G75*
%MOIN*%
%OFA0B0*%
%FSLAX24Y24*%
%IPPOS*%
%LPD*%
%AMOC8*
5,1,8,0,0,1.08239X$1,22.5*
%
%ADD10C,0.0000*%
%ADD11C,0.0520*%
%ADD12R,0.0740X0.0740*%
%ADD13C,0.0740*%
%ADD14C,0.0650*%
%ADD15C,0.0700*%
%ADD16R,0.0650X0.0650*%
%ADD17OC8,0.0720*%
%ADD18C,0.0600*%
%ADD19OC8,0.0740*%
%ADD20C,0.0100*%
%ADD21C,0.0360*%
%ADD22C,0.0356*%
D10*
X001150Y000844D02*
X001150Y014964D01*
X032642Y014964D01*
X032642Y000844D01*
X001150Y000844D01*
X001579Y001744D02*
X001581Y001791D01*
X001587Y001837D01*
X001597Y001883D01*
X001610Y001928D01*
X001628Y001971D01*
X001649Y002013D01*
X001673Y002053D01*
X001701Y002090D01*
X001732Y002125D01*
X001766Y002158D01*
X001802Y002187D01*
X001841Y002213D01*
X001882Y002236D01*
X001925Y002255D01*
X001969Y002271D01*
X002014Y002283D01*
X002060Y002291D01*
X002107Y002295D01*
X002153Y002295D01*
X002200Y002291D01*
X002246Y002283D01*
X002291Y002271D01*
X002335Y002255D01*
X002378Y002236D01*
X002419Y002213D01*
X002458Y002187D01*
X002494Y002158D01*
X002528Y002125D01*
X002559Y002090D01*
X002587Y002053D01*
X002611Y002013D01*
X002632Y001971D01*
X002650Y001928D01*
X002663Y001883D01*
X002673Y001837D01*
X002679Y001791D01*
X002681Y001744D01*
X002679Y001697D01*
X002673Y001651D01*
X002663Y001605D01*
X002650Y001560D01*
X002632Y001517D01*
X002611Y001475D01*
X002587Y001435D01*
X002559Y001398D01*
X002528Y001363D01*
X002494Y001330D01*
X002458Y001301D01*
X002419Y001275D01*
X002378Y001252D01*
X002335Y001233D01*
X002291Y001217D01*
X002246Y001205D01*
X002200Y001197D01*
X002153Y001193D01*
X002107Y001193D01*
X002060Y001197D01*
X002014Y001205D01*
X001969Y001217D01*
X001925Y001233D01*
X001882Y001252D01*
X001841Y001275D01*
X001802Y001301D01*
X001766Y001330D01*
X001732Y001363D01*
X001701Y001398D01*
X001673Y001435D01*
X001649Y001475D01*
X001628Y001517D01*
X001610Y001560D01*
X001597Y001605D01*
X001587Y001651D01*
X001581Y001697D01*
X001579Y001744D01*
X003000Y011744D02*
X003002Y011794D01*
X003008Y011844D01*
X003018Y011894D01*
X003031Y011942D01*
X003048Y011990D01*
X003069Y012036D01*
X003093Y012080D01*
X003121Y012122D01*
X003152Y012162D01*
X003186Y012199D01*
X003223Y012234D01*
X003262Y012265D01*
X003303Y012294D01*
X003347Y012319D01*
X003393Y012341D01*
X003440Y012359D01*
X003488Y012373D01*
X003537Y012384D01*
X003587Y012391D01*
X003637Y012394D01*
X003688Y012393D01*
X003738Y012388D01*
X003788Y012379D01*
X003836Y012367D01*
X003884Y012350D01*
X003930Y012330D01*
X003975Y012307D01*
X004018Y012280D01*
X004058Y012250D01*
X004096Y012217D01*
X004131Y012181D01*
X004164Y012142D01*
X004193Y012101D01*
X004219Y012058D01*
X004242Y012013D01*
X004261Y011966D01*
X004276Y011918D01*
X004288Y011869D01*
X004296Y011819D01*
X004300Y011769D01*
X004300Y011719D01*
X004296Y011669D01*
X004288Y011619D01*
X004276Y011570D01*
X004261Y011522D01*
X004242Y011475D01*
X004219Y011430D01*
X004193Y011387D01*
X004164Y011346D01*
X004131Y011307D01*
X004096Y011271D01*
X004058Y011238D01*
X004018Y011208D01*
X003975Y011181D01*
X003930Y011158D01*
X003884Y011138D01*
X003836Y011121D01*
X003788Y011109D01*
X003738Y011100D01*
X003688Y011095D01*
X003637Y011094D01*
X003587Y011097D01*
X003537Y011104D01*
X003488Y011115D01*
X003440Y011129D01*
X003393Y011147D01*
X003347Y011169D01*
X003303Y011194D01*
X003262Y011223D01*
X003223Y011254D01*
X003186Y011289D01*
X003152Y011326D01*
X003121Y011366D01*
X003093Y011408D01*
X003069Y011452D01*
X003048Y011498D01*
X003031Y011546D01*
X003018Y011594D01*
X003008Y011644D01*
X003002Y011694D01*
X003000Y011744D01*
X001579Y013934D02*
X001581Y013981D01*
X001587Y014027D01*
X001597Y014073D01*
X001610Y014118D01*
X001628Y014161D01*
X001649Y014203D01*
X001673Y014243D01*
X001701Y014280D01*
X001732Y014315D01*
X001766Y014348D01*
X001802Y014377D01*
X001841Y014403D01*
X001882Y014426D01*
X001925Y014445D01*
X001969Y014461D01*
X002014Y014473D01*
X002060Y014481D01*
X002107Y014485D01*
X002153Y014485D01*
X002200Y014481D01*
X002246Y014473D01*
X002291Y014461D01*
X002335Y014445D01*
X002378Y014426D01*
X002419Y014403D01*
X002458Y014377D01*
X002494Y014348D01*
X002528Y014315D01*
X002559Y014280D01*
X002587Y014243D01*
X002611Y014203D01*
X002632Y014161D01*
X002650Y014118D01*
X002663Y014073D01*
X002673Y014027D01*
X002679Y013981D01*
X002681Y013934D01*
X002679Y013887D01*
X002673Y013841D01*
X002663Y013795D01*
X002650Y013750D01*
X002632Y013707D01*
X002611Y013665D01*
X002587Y013625D01*
X002559Y013588D01*
X002528Y013553D01*
X002494Y013520D01*
X002458Y013491D01*
X002419Y013465D01*
X002378Y013442D01*
X002335Y013423D01*
X002291Y013407D01*
X002246Y013395D01*
X002200Y013387D01*
X002153Y013383D01*
X002107Y013383D01*
X002060Y013387D01*
X002014Y013395D01*
X001969Y013407D01*
X001925Y013423D01*
X001882Y013442D01*
X001841Y013465D01*
X001802Y013491D01*
X001766Y013520D01*
X001732Y013553D01*
X001701Y013588D01*
X001673Y013625D01*
X001649Y013665D01*
X001628Y013707D01*
X001610Y013750D01*
X001597Y013795D01*
X001587Y013841D01*
X001581Y013887D01*
X001579Y013934D01*
X031109Y013944D02*
X031111Y013991D01*
X031117Y014037D01*
X031127Y014083D01*
X031140Y014128D01*
X031158Y014171D01*
X031179Y014213D01*
X031203Y014253D01*
X031231Y014290D01*
X031262Y014325D01*
X031296Y014358D01*
X031332Y014387D01*
X031371Y014413D01*
X031412Y014436D01*
X031455Y014455D01*
X031499Y014471D01*
X031544Y014483D01*
X031590Y014491D01*
X031637Y014495D01*
X031683Y014495D01*
X031730Y014491D01*
X031776Y014483D01*
X031821Y014471D01*
X031865Y014455D01*
X031908Y014436D01*
X031949Y014413D01*
X031988Y014387D01*
X032024Y014358D01*
X032058Y014325D01*
X032089Y014290D01*
X032117Y014253D01*
X032141Y014213D01*
X032162Y014171D01*
X032180Y014128D01*
X032193Y014083D01*
X032203Y014037D01*
X032209Y013991D01*
X032211Y013944D01*
X032209Y013897D01*
X032203Y013851D01*
X032193Y013805D01*
X032180Y013760D01*
X032162Y013717D01*
X032141Y013675D01*
X032117Y013635D01*
X032089Y013598D01*
X032058Y013563D01*
X032024Y013530D01*
X031988Y013501D01*
X031949Y013475D01*
X031908Y013452D01*
X031865Y013433D01*
X031821Y013417D01*
X031776Y013405D01*
X031730Y013397D01*
X031683Y013393D01*
X031637Y013393D01*
X031590Y013397D01*
X031544Y013405D01*
X031499Y013417D01*
X031455Y013433D01*
X031412Y013452D01*
X031371Y013475D01*
X031332Y013501D01*
X031296Y013530D01*
X031262Y013563D01*
X031231Y013598D01*
X031203Y013635D01*
X031179Y013675D01*
X031158Y013717D01*
X031140Y013760D01*
X031127Y013805D01*
X031117Y013851D01*
X031111Y013897D01*
X031109Y013944D01*
X031109Y001744D02*
X031111Y001791D01*
X031117Y001837D01*
X031127Y001883D01*
X031140Y001928D01*
X031158Y001971D01*
X031179Y002013D01*
X031203Y002053D01*
X031231Y002090D01*
X031262Y002125D01*
X031296Y002158D01*
X031332Y002187D01*
X031371Y002213D01*
X031412Y002236D01*
X031455Y002255D01*
X031499Y002271D01*
X031544Y002283D01*
X031590Y002291D01*
X031637Y002295D01*
X031683Y002295D01*
X031730Y002291D01*
X031776Y002283D01*
X031821Y002271D01*
X031865Y002255D01*
X031908Y002236D01*
X031949Y002213D01*
X031988Y002187D01*
X032024Y002158D01*
X032058Y002125D01*
X032089Y002090D01*
X032117Y002053D01*
X032141Y002013D01*
X032162Y001971D01*
X032180Y001928D01*
X032193Y001883D01*
X032203Y001837D01*
X032209Y001791D01*
X032211Y001744D01*
X032209Y001697D01*
X032203Y001651D01*
X032193Y001605D01*
X032180Y001560D01*
X032162Y001517D01*
X032141Y001475D01*
X032117Y001435D01*
X032089Y001398D01*
X032058Y001363D01*
X032024Y001330D01*
X031988Y001301D01*
X031949Y001275D01*
X031908Y001252D01*
X031865Y001233D01*
X031821Y001217D01*
X031776Y001205D01*
X031730Y001197D01*
X031683Y001193D01*
X031637Y001193D01*
X031590Y001197D01*
X031544Y001205D01*
X031499Y001217D01*
X031455Y001233D01*
X031412Y001252D01*
X031371Y001275D01*
X031332Y001301D01*
X031296Y001330D01*
X031262Y001363D01*
X031231Y001398D01*
X031203Y001435D01*
X031179Y001475D01*
X031158Y001517D01*
X031140Y001560D01*
X031127Y001605D01*
X031117Y001651D01*
X031111Y001697D01*
X031109Y001744D01*
D11*
X029150Y007584D02*
X029150Y008104D01*
X028150Y008104D02*
X028150Y007584D01*
X027150Y007584D02*
X027150Y008104D01*
X026150Y008104D02*
X026150Y007584D01*
X025150Y007584D02*
X025150Y008104D01*
X024150Y008104D02*
X024150Y007584D01*
X023150Y007584D02*
X023150Y008104D01*
X022150Y008104D02*
X022150Y007584D01*
X020650Y007584D02*
X020650Y008104D01*
X019650Y008104D02*
X019650Y007584D01*
X018650Y007584D02*
X018650Y008104D01*
X017650Y008104D02*
X017650Y007584D01*
X016650Y007584D02*
X016650Y008104D01*
X015650Y008104D02*
X015650Y007584D01*
X014650Y007584D02*
X014650Y008104D01*
X013650Y008104D02*
X013650Y007584D01*
X012650Y007584D02*
X012650Y008104D01*
X011650Y008104D02*
X011650Y007584D01*
X010650Y007584D02*
X010650Y008104D01*
X009650Y008104D02*
X009650Y007584D01*
X008650Y007584D02*
X008650Y008104D01*
X007650Y008104D02*
X007650Y007584D01*
X007650Y010584D02*
X007650Y011104D01*
X008650Y011104D02*
X008650Y010584D01*
X009650Y010584D02*
X009650Y011104D01*
X010650Y011104D02*
X010650Y010584D01*
X011650Y010584D02*
X011650Y011104D01*
X012650Y011104D02*
X012650Y010584D01*
X013650Y010584D02*
X013650Y011104D01*
X014650Y011104D02*
X014650Y010584D01*
X015650Y010584D02*
X015650Y011104D01*
X016650Y011104D02*
X016650Y010584D01*
X017650Y010584D02*
X017650Y011104D01*
X018650Y011104D02*
X018650Y010584D01*
X019650Y010584D02*
X019650Y011104D01*
X020650Y011104D02*
X020650Y010584D01*
X022150Y010584D02*
X022150Y011104D01*
X023150Y011104D02*
X023150Y010584D01*
X024150Y010584D02*
X024150Y011104D01*
X025150Y011104D02*
X025150Y010584D01*
X026150Y010584D02*
X026150Y011104D01*
X027150Y011104D02*
X027150Y010584D01*
X028150Y010584D02*
X028150Y011104D01*
X029150Y011104D02*
X029150Y010584D01*
D12*
X014492Y013946D03*
X004160Y002704D03*
X012380Y002304D03*
D13*
X011380Y002304D03*
X010380Y002304D03*
X009380Y002304D03*
X008380Y002304D03*
X007380Y002304D03*
X005160Y002704D03*
X006970Y003584D03*
X008750Y003584D03*
X009880Y003554D03*
X014650Y001844D03*
X015650Y001844D03*
X017650Y001844D03*
X018650Y001844D03*
X008750Y006144D03*
X009880Y006554D03*
X006970Y006144D03*
X006650Y007844D03*
X006650Y010844D03*
X011080Y012134D03*
X013080Y012134D03*
X015492Y013946D03*
X016492Y013946D03*
X017492Y013946D03*
X018492Y013946D03*
X019492Y013946D03*
X020492Y013946D03*
X021492Y013946D03*
X022492Y013946D03*
X023492Y013946D03*
X024492Y013946D03*
X025492Y013946D03*
X026492Y013946D03*
X027492Y013946D03*
X028492Y013946D03*
X029492Y013946D03*
X027150Y012594D03*
X024150Y012594D03*
X021530Y012224D03*
X020530Y012224D03*
X021030Y012974D03*
X012080Y014134D03*
D14*
X014660Y012384D03*
X015660Y012384D03*
X015150Y006094D03*
X017150Y006094D03*
X012900Y005844D03*
X012900Y004844D03*
X014150Y004344D03*
X015150Y004344D03*
X016650Y004344D03*
X017650Y004344D03*
X011150Y003844D03*
X011150Y004844D03*
X005650Y004844D03*
X005650Y005844D03*
X001900Y003844D03*
D15*
X031026Y005014D03*
X032026Y005014D03*
X032026Y006014D03*
X031026Y006014D03*
X031026Y007014D03*
X032026Y007014D03*
X032026Y008014D03*
X031026Y008014D03*
X031026Y009014D03*
X032026Y009014D03*
X032026Y010014D03*
X031026Y010014D03*
X031026Y011014D03*
X032026Y011014D03*
X032026Y012014D03*
X031026Y012014D03*
D16*
X002900Y003844D03*
D17*
X026650Y002844D03*
X027650Y002844D03*
X028650Y002844D03*
X028650Y001844D03*
X027650Y001844D03*
X026650Y001844D03*
D18*
X004650Y005544D02*
X004650Y006144D01*
X003650Y006144D02*
X003650Y005544D01*
X002650Y005544D02*
X002650Y006144D01*
D19*
X007150Y012844D03*
X008150Y012844D03*
X009150Y012844D03*
X009150Y013844D03*
X008150Y013844D03*
X007150Y013844D03*
X020650Y002844D03*
X021650Y002844D03*
X022650Y002844D03*
X023650Y002844D03*
X024650Y002844D03*
X024650Y001844D03*
X023650Y001844D03*
X022650Y001844D03*
X021650Y001844D03*
X020650Y001844D03*
D20*
X021120Y001829D02*
X021180Y001829D01*
X021180Y001731D02*
X021120Y001731D01*
X021120Y001649D02*
X020965Y001494D01*
X021335Y001494D01*
X021180Y001649D01*
X021180Y002039D01*
X021212Y002070D01*
X021000Y002282D01*
X021000Y002529D01*
X020845Y002374D01*
X020455Y002374D01*
X020180Y002649D01*
X020180Y003039D01*
X020205Y003064D01*
X020094Y003064D01*
X019991Y003107D01*
X019913Y003185D01*
X019870Y003288D01*
X019870Y003400D01*
X019874Y003408D01*
X018214Y005068D01*
X018206Y005064D01*
X018094Y005064D01*
X017991Y005107D01*
X017913Y005185D01*
X017870Y005288D01*
X017870Y005400D01*
X017913Y005503D01*
X017991Y005581D01*
X018022Y005594D01*
X017991Y005607D01*
X017913Y005685D01*
X017870Y005788D01*
X017870Y005900D01*
X017874Y005908D01*
X017555Y006227D01*
X017575Y006179D01*
X017575Y006009D01*
X017510Y005853D01*
X017432Y005775D01*
X017800Y005406D01*
X017800Y004742D01*
X017891Y004704D01*
X018010Y004585D01*
X018075Y004429D01*
X018075Y004259D01*
X018010Y004103D01*
X017891Y003984D01*
X017735Y003919D01*
X017565Y003919D01*
X017409Y003984D01*
X017300Y004093D01*
X017300Y003406D01*
X018212Y002494D01*
X018300Y002406D01*
X018300Y002159D01*
X018384Y002242D01*
X018500Y002291D01*
X018500Y003603D01*
X018491Y003607D01*
X018413Y003685D01*
X018370Y003788D01*
X018370Y003900D01*
X018413Y004003D01*
X018491Y004081D01*
X018594Y004124D01*
X018706Y004124D01*
X018809Y004081D01*
X018887Y004003D01*
X018930Y003900D01*
X018930Y003788D01*
X018887Y003685D01*
X018809Y003607D01*
X018800Y003603D01*
X018800Y002291D01*
X018916Y002242D01*
X019048Y002110D01*
X019120Y001938D01*
X019120Y001751D01*
X019048Y001578D01*
X018965Y001494D01*
X020335Y001494D01*
X020180Y001649D01*
X020180Y002039D01*
X020455Y002314D01*
X020845Y002314D01*
X021120Y002039D01*
X021120Y001649D01*
X021103Y001632D02*
X021197Y001632D01*
X021296Y001534D02*
X021004Y001534D01*
X020296Y001534D02*
X019004Y001534D01*
X019071Y001632D02*
X020197Y001632D01*
X020180Y001731D02*
X019112Y001731D01*
X019120Y001829D02*
X020180Y001829D01*
X020180Y001928D02*
X019120Y001928D01*
X019083Y002026D02*
X020180Y002026D01*
X020266Y002125D02*
X019034Y002125D01*
X018936Y002223D02*
X020364Y002223D01*
X020936Y002223D02*
X021059Y002223D01*
X021034Y002125D02*
X021157Y002125D01*
X021180Y002026D02*
X021120Y002026D01*
X021120Y001928D02*
X021180Y001928D01*
X021150Y002344D02*
X021650Y001844D01*
X022150Y002344D02*
X022650Y001844D01*
X022150Y002344D02*
X022150Y004844D01*
X020650Y006344D01*
X021149Y006557D02*
X022967Y006557D01*
X022991Y006581D02*
X022913Y006503D01*
X022870Y006400D01*
X022870Y006288D01*
X022913Y006185D01*
X022991Y006107D01*
X023000Y006103D01*
X023000Y003159D01*
X022845Y003314D01*
X022800Y003314D01*
X022800Y004906D01*
X022712Y004994D01*
X020010Y007696D01*
X020010Y008176D01*
X019955Y008308D01*
X019854Y008409D01*
X019722Y008464D01*
X019578Y008464D01*
X019446Y008409D01*
X019345Y008308D01*
X019300Y008200D01*
X019300Y010488D01*
X019345Y010380D01*
X019446Y010279D01*
X019500Y010256D01*
X019500Y009085D01*
X019491Y009081D01*
X019413Y009003D01*
X019370Y008900D01*
X019370Y008788D01*
X019413Y008685D01*
X019491Y008607D01*
X019594Y008564D01*
X019706Y008564D01*
X019809Y008607D01*
X019887Y008685D01*
X019930Y008788D01*
X019930Y008900D01*
X019887Y009003D01*
X019809Y009081D01*
X019800Y009085D01*
X019800Y010256D01*
X019854Y010279D01*
X019955Y010380D01*
X020000Y010488D01*
X020000Y009782D01*
X020088Y009694D01*
X021790Y007992D01*
X021790Y007512D01*
X021845Y007380D01*
X021946Y007279D01*
X022078Y007224D01*
X022222Y007224D01*
X022354Y007279D01*
X022455Y007380D01*
X022510Y007512D01*
X022510Y008176D01*
X022455Y008308D01*
X022354Y008409D01*
X022222Y008464D01*
X022078Y008464D01*
X021946Y008409D01*
X021872Y008335D01*
X020300Y009906D01*
X022500Y009906D01*
X022500Y009808D02*
X020399Y009808D01*
X020497Y009709D02*
X022500Y009709D01*
X022500Y009611D02*
X020596Y009611D01*
X020694Y009512D02*
X022500Y009512D01*
X022500Y009414D02*
X020793Y009414D01*
X020891Y009315D02*
X022500Y009315D01*
X022500Y009217D02*
X020990Y009217D01*
X021088Y009118D02*
X022500Y009118D01*
X022500Y009020D02*
X021187Y009020D01*
X021285Y008921D02*
X022500Y008921D01*
X022500Y008823D02*
X021384Y008823D01*
X021482Y008724D02*
X022500Y008724D01*
X022500Y008626D02*
X021581Y008626D01*
X021679Y008527D02*
X022500Y008527D01*
X022500Y008429D02*
X022307Y008429D01*
X022433Y008330D02*
X022500Y008330D01*
X022500Y008282D02*
X022588Y008194D01*
X022790Y007992D01*
X022790Y007512D01*
X022845Y007380D01*
X022946Y007279D01*
X023078Y007224D01*
X023222Y007224D01*
X023354Y007279D01*
X023455Y007380D01*
X023500Y007488D01*
X023500Y004782D01*
X023588Y004694D01*
X024874Y003408D01*
X024870Y003400D01*
X024870Y003359D01*
X024865Y003364D01*
X024700Y003364D01*
X024700Y002894D01*
X025170Y002894D01*
X025170Y003059D01*
X025165Y003064D01*
X025206Y003064D01*
X025309Y003107D01*
X025387Y003185D01*
X025430Y003288D01*
X025430Y003400D01*
X025387Y003503D01*
X025309Y003581D01*
X025206Y003624D01*
X025094Y003624D01*
X025086Y003620D01*
X023800Y004906D01*
X023800Y007488D01*
X023845Y007380D01*
X023946Y007279D01*
X024078Y007224D01*
X024222Y007224D01*
X024354Y007279D01*
X024455Y007380D01*
X024510Y007512D01*
X024510Y008176D01*
X024455Y008308D01*
X024354Y008409D01*
X024222Y008464D01*
X024078Y008464D01*
X023946Y008409D01*
X023845Y008308D01*
X023800Y008200D01*
X023800Y010282D01*
X023872Y010353D01*
X023946Y010279D01*
X024078Y010224D01*
X024222Y010224D01*
X024354Y010279D01*
X024455Y010380D01*
X024500Y010488D01*
X024500Y008282D01*
X024588Y008194D01*
X024790Y007992D01*
X024790Y007512D01*
X024845Y007380D01*
X024946Y007279D01*
X025078Y007224D01*
X025222Y007224D01*
X025354Y007279D01*
X025455Y007380D01*
X025510Y007512D01*
X025510Y008176D01*
X025455Y008308D01*
X025354Y008409D01*
X025222Y008464D01*
X025078Y008464D01*
X024946Y008409D01*
X024872Y008335D01*
X024800Y008406D01*
X024800Y010368D01*
X024837Y010317D01*
X024883Y010271D01*
X024935Y010233D01*
X024993Y010204D01*
X025054Y010184D01*
X025118Y010174D01*
X025120Y010174D01*
X025120Y010814D01*
X025180Y010814D01*
X025180Y010174D01*
X025182Y010174D01*
X025246Y010184D01*
X025307Y010204D01*
X025365Y010233D01*
X025417Y010271D01*
X025463Y010317D01*
X025500Y010368D01*
X025500Y010282D01*
X025588Y010194D01*
X026000Y009782D01*
X026000Y008432D01*
X025946Y008409D01*
X025845Y008308D01*
X025790Y008176D01*
X025790Y007512D01*
X025845Y007380D01*
X025946Y007279D01*
X026078Y007224D01*
X026222Y007224D01*
X026354Y007279D01*
X026455Y007380D01*
X026510Y007512D01*
X026510Y008176D01*
X026455Y008308D01*
X026354Y008409D01*
X026300Y008432D01*
X026300Y009906D01*
X026376Y009906D01*
X026300Y009906D02*
X025800Y010406D01*
X025800Y010488D01*
X025845Y010380D01*
X025946Y010279D01*
X026043Y010239D01*
X026088Y010194D01*
X026500Y009782D01*
X026500Y009085D01*
X026491Y009081D01*
X026413Y009003D01*
X026370Y008900D01*
X026370Y008788D01*
X026413Y008685D01*
X026491Y008607D01*
X026594Y008564D01*
X026706Y008564D01*
X026809Y008607D01*
X026887Y008685D01*
X026930Y008788D01*
X026930Y008900D01*
X026887Y009003D01*
X026809Y009081D01*
X026800Y009085D01*
X026800Y009906D01*
X026876Y009906D01*
X026800Y009906D02*
X026391Y010316D01*
X026455Y010380D01*
X026500Y010488D01*
X026500Y010282D01*
X027000Y009782D01*
X027000Y009583D01*
X026992Y009580D01*
X026914Y009502D01*
X026872Y009399D01*
X026872Y009289D01*
X026914Y009186D01*
X026992Y009108D01*
X027000Y009105D01*
X027000Y008432D01*
X026946Y008409D01*
X026845Y008308D01*
X026790Y008176D01*
X026790Y007512D01*
X026845Y007380D01*
X026946Y007279D01*
X027078Y007224D01*
X027222Y007224D01*
X027354Y007279D01*
X027455Y007380D01*
X027500Y007488D01*
X027500Y007406D01*
X027000Y006906D01*
X027000Y003145D01*
X026841Y003304D01*
X026459Y003304D01*
X026190Y003035D01*
X026190Y002653D01*
X026459Y002384D01*
X026841Y002384D01*
X027000Y002543D01*
X027000Y002282D01*
X027088Y002194D01*
X027219Y002063D01*
X027190Y002035D01*
X027190Y001653D01*
X027349Y001494D01*
X026951Y001494D01*
X027110Y001653D01*
X027110Y002035D01*
X026841Y002304D01*
X026459Y002304D01*
X026190Y002035D01*
X026190Y001653D01*
X026349Y001494D01*
X025300Y001494D01*
X025300Y002406D01*
X025212Y002494D01*
X025035Y002494D01*
X025170Y002629D01*
X025170Y002794D01*
X024700Y002794D01*
X024700Y002894D01*
X024600Y002894D01*
X024600Y002794D01*
X024130Y002794D01*
X024130Y002629D01*
X024265Y002494D01*
X023965Y002494D01*
X024120Y002649D01*
X024120Y003039D01*
X023845Y003314D01*
X023455Y003314D01*
X023300Y003159D01*
X023300Y006103D01*
X023309Y006107D01*
X023387Y006185D01*
X023430Y006288D01*
X023430Y006400D01*
X023387Y006503D01*
X023309Y006581D01*
X023206Y006624D01*
X023094Y006624D01*
X022991Y006581D01*
X022894Y006459D02*
X021248Y006459D01*
X021346Y006360D02*
X022870Y006360D01*
X022881Y006262D02*
X021445Y006262D01*
X021543Y006163D02*
X022935Y006163D01*
X023000Y006065D02*
X021642Y006065D01*
X021740Y005966D02*
X023000Y005966D01*
X023000Y005868D02*
X021839Y005868D01*
X021937Y005769D02*
X023000Y005769D01*
X023000Y005671D02*
X022036Y005671D01*
X022134Y005572D02*
X023000Y005572D01*
X023000Y005474D02*
X022233Y005474D01*
X022331Y005375D02*
X023000Y005375D01*
X023000Y005277D02*
X022430Y005277D01*
X022528Y005178D02*
X023000Y005178D01*
X023000Y005080D02*
X022627Y005080D01*
X022725Y004981D02*
X023000Y004981D01*
X023000Y004883D02*
X022800Y004883D01*
X022800Y004784D02*
X023000Y004784D01*
X023000Y004686D02*
X022800Y004686D01*
X022800Y004587D02*
X023000Y004587D01*
X023000Y004489D02*
X022800Y004489D01*
X022800Y004390D02*
X023000Y004390D01*
X023000Y004292D02*
X022800Y004292D01*
X022800Y004193D02*
X023000Y004193D01*
X023000Y004095D02*
X022800Y004095D01*
X022800Y003996D02*
X023000Y003996D01*
X023000Y003898D02*
X022800Y003898D01*
X022800Y003799D02*
X023000Y003799D01*
X023000Y003701D02*
X022800Y003701D01*
X022800Y003602D02*
X023000Y003602D01*
X023000Y003504D02*
X022800Y003504D01*
X022800Y003405D02*
X023000Y003405D01*
X023000Y003307D02*
X022852Y003307D01*
X022951Y003208D02*
X023000Y003208D01*
X023300Y003208D02*
X023349Y003208D01*
X023300Y003307D02*
X023448Y003307D01*
X023300Y003405D02*
X024872Y003405D01*
X024778Y003504D02*
X023300Y003504D01*
X023300Y003602D02*
X024680Y003602D01*
X024581Y003701D02*
X023300Y003701D01*
X023300Y003799D02*
X024483Y003799D01*
X024384Y003898D02*
X023300Y003898D01*
X023300Y003996D02*
X024286Y003996D01*
X024187Y004095D02*
X023300Y004095D01*
X023300Y004193D02*
X024089Y004193D01*
X023990Y004292D02*
X023300Y004292D01*
X023300Y004390D02*
X023892Y004390D01*
X023793Y004489D02*
X023300Y004489D01*
X023300Y004587D02*
X023695Y004587D01*
X023596Y004686D02*
X023300Y004686D01*
X023300Y004784D02*
X023500Y004784D01*
X023500Y004883D02*
X023300Y004883D01*
X023300Y004981D02*
X023500Y004981D01*
X023500Y005080D02*
X023300Y005080D01*
X023300Y005178D02*
X023500Y005178D01*
X023500Y005277D02*
X023300Y005277D01*
X023300Y005375D02*
X023500Y005375D01*
X023500Y005474D02*
X023300Y005474D01*
X023300Y005572D02*
X023500Y005572D01*
X023500Y005671D02*
X023300Y005671D01*
X023300Y005769D02*
X023500Y005769D01*
X023500Y005868D02*
X023300Y005868D01*
X023300Y005966D02*
X023500Y005966D01*
X023500Y006065D02*
X023300Y006065D01*
X023365Y006163D02*
X023500Y006163D01*
X023500Y006262D02*
X023419Y006262D01*
X023430Y006360D02*
X023500Y006360D01*
X023500Y006459D02*
X023406Y006459D01*
X023333Y006557D02*
X023500Y006557D01*
X023500Y006656D02*
X021051Y006656D01*
X020952Y006754D02*
X023500Y006754D01*
X023500Y006853D02*
X020854Y006853D01*
X020755Y006951D02*
X023500Y006951D01*
X023500Y007050D02*
X020657Y007050D01*
X020558Y007148D02*
X023500Y007148D01*
X023500Y007247D02*
X023276Y007247D01*
X023420Y007345D02*
X023500Y007345D01*
X023500Y007444D02*
X023481Y007444D01*
X023800Y007444D02*
X023819Y007444D01*
X023800Y007345D02*
X023880Y007345D01*
X023800Y007247D02*
X024024Y007247D01*
X024112Y007040D02*
X024215Y007082D01*
X024325Y007082D01*
X024428Y007040D01*
X024506Y006962D01*
X024548Y006859D01*
X024548Y006749D01*
X024506Y006646D01*
X024428Y006568D01*
X024420Y006565D01*
X024420Y005066D01*
X024867Y004619D01*
X024875Y004622D01*
X024985Y004622D01*
X025088Y004580D01*
X025166Y004502D01*
X025208Y004399D01*
X025208Y004289D01*
X025166Y004186D01*
X025088Y004108D01*
X024985Y004066D01*
X024875Y004066D01*
X024772Y004108D01*
X024694Y004186D01*
X024652Y004289D01*
X024652Y004399D01*
X024655Y004407D01*
X024120Y004942D01*
X024120Y006565D01*
X024112Y006568D01*
X024034Y006646D01*
X023992Y006749D01*
X023992Y006859D01*
X024034Y006962D01*
X024112Y007040D01*
X024136Y007050D02*
X023800Y007050D01*
X023800Y007148D02*
X027242Y007148D01*
X027276Y007247D02*
X027340Y007247D01*
X027420Y007345D02*
X027439Y007345D01*
X027481Y007444D02*
X027500Y007444D01*
X027650Y007344D02*
X027650Y009844D01*
X027150Y010344D01*
X027150Y010844D01*
X027800Y011200D02*
X027800Y013590D01*
X027890Y013680D01*
X027962Y013853D01*
X027962Y014040D01*
X027890Y014213D01*
X027758Y014345D01*
X027585Y014416D01*
X027398Y014416D01*
X027225Y014345D01*
X027093Y014213D01*
X027022Y014040D01*
X027022Y013853D01*
X027093Y013680D01*
X027225Y013548D01*
X027398Y013476D01*
X027500Y013476D01*
X027500Y012909D01*
X027416Y012992D01*
X027243Y013064D01*
X027057Y013064D01*
X026884Y012992D01*
X026800Y012909D01*
X026800Y013590D01*
X026890Y013680D01*
X026962Y013853D01*
X026962Y014040D01*
X026890Y014213D01*
X026758Y014345D01*
X026585Y014416D01*
X026398Y014416D01*
X026225Y014345D01*
X026093Y014213D01*
X026022Y014040D01*
X026022Y013853D01*
X026093Y013680D01*
X026225Y013548D01*
X026398Y013476D01*
X026500Y013476D01*
X026500Y011200D01*
X026455Y011308D01*
X026354Y011409D01*
X026222Y011464D01*
X026078Y011464D01*
X025946Y011409D01*
X025845Y011308D01*
X025800Y011200D01*
X025800Y013590D01*
X025890Y013680D01*
X025962Y013853D01*
X025962Y014040D01*
X025890Y014213D01*
X025758Y014345D01*
X025585Y014416D01*
X025398Y014416D01*
X025225Y014345D01*
X025093Y014213D01*
X025022Y014040D01*
X025022Y013853D01*
X025093Y013680D01*
X025225Y013548D01*
X025398Y013476D01*
X025500Y013476D01*
X025500Y011320D01*
X025463Y011371D01*
X025417Y011417D01*
X025365Y011455D01*
X025307Y011484D01*
X025246Y011504D01*
X025182Y011514D01*
X025180Y011514D01*
X025180Y010874D01*
X025120Y010874D01*
X025120Y011514D01*
X025118Y011514D01*
X025054Y011504D01*
X024993Y011484D01*
X024935Y011455D01*
X024883Y011417D01*
X024837Y011371D01*
X024800Y011320D01*
X024800Y013590D01*
X024890Y013680D01*
X024962Y013853D01*
X024962Y014040D01*
X024890Y014213D01*
X024758Y014345D01*
X024585Y014416D01*
X024398Y014416D01*
X024225Y014345D01*
X024093Y014213D01*
X024022Y014040D01*
X024022Y013853D01*
X024093Y013680D01*
X024225Y013548D01*
X024398Y013476D01*
X024500Y013476D01*
X024500Y012909D01*
X024416Y012992D01*
X024243Y013064D01*
X024057Y013064D01*
X023884Y012992D01*
X023752Y012860D01*
X023680Y012688D01*
X023680Y012501D01*
X023752Y012328D01*
X023884Y012196D01*
X024057Y012124D01*
X024243Y012124D01*
X024416Y012196D01*
X024500Y012279D01*
X024500Y011200D01*
X024455Y011308D01*
X024354Y011409D01*
X024222Y011464D01*
X024078Y011464D01*
X023946Y011409D01*
X023845Y011308D01*
X023790Y011176D01*
X023790Y010696D01*
X023500Y010406D01*
X023500Y008200D01*
X023455Y008308D01*
X023354Y008409D01*
X023222Y008464D01*
X023078Y008464D01*
X022946Y008409D01*
X022872Y008335D01*
X022800Y008406D01*
X022800Y010488D01*
X022845Y010380D01*
X022946Y010279D01*
X023078Y010224D01*
X023222Y010224D01*
X023354Y010279D01*
X023455Y010380D01*
X023510Y010512D01*
X023510Y011176D01*
X023455Y011308D01*
X023354Y011409D01*
X023222Y011464D01*
X023078Y011464D01*
X022946Y011409D01*
X022845Y011308D01*
X022800Y011200D01*
X022800Y012603D01*
X022809Y012607D01*
X022887Y012685D01*
X022930Y012788D01*
X022930Y012900D01*
X022887Y013003D01*
X022809Y013081D01*
X022706Y013124D01*
X022594Y013124D01*
X022491Y013081D01*
X022413Y013003D01*
X022370Y012900D01*
X022370Y012788D01*
X022413Y012685D01*
X022491Y012607D01*
X022500Y012603D01*
X022500Y011200D01*
X022455Y011308D01*
X022354Y011409D01*
X022222Y011464D01*
X022078Y011464D01*
X021946Y011409D01*
X021845Y011308D01*
X021800Y011200D01*
X021800Y011282D01*
X022212Y011694D01*
X022300Y011782D01*
X022300Y013103D01*
X022309Y013107D01*
X022387Y013185D01*
X022430Y013288D01*
X022430Y013400D01*
X022398Y013476D01*
X022585Y013476D01*
X022758Y013548D01*
X022890Y013680D01*
X022962Y013853D01*
X022962Y014040D01*
X022890Y014213D01*
X022758Y014345D01*
X022585Y014416D01*
X022398Y014416D01*
X022225Y014345D01*
X022093Y014213D01*
X022022Y014040D01*
X022022Y013853D01*
X022093Y013680D01*
X022149Y013624D01*
X022094Y013624D01*
X021991Y013581D01*
X021913Y013503D01*
X021870Y013400D01*
X021870Y013288D01*
X021913Y013185D01*
X021991Y013107D01*
X022000Y013103D01*
X022000Y011906D01*
X021500Y011406D01*
X021500Y010994D01*
X021010Y010994D01*
X021010Y011176D01*
X020955Y011308D01*
X020854Y011409D01*
X020722Y011464D01*
X020578Y011464D01*
X020446Y011409D01*
X020345Y011308D01*
X020300Y011200D01*
X020300Y011758D01*
X020330Y011742D01*
X020408Y011717D01*
X020489Y011704D01*
X020500Y011704D01*
X020500Y012194D01*
X020560Y012194D01*
X020560Y011704D01*
X020571Y011704D01*
X020652Y011717D01*
X020730Y011742D01*
X020803Y011779D01*
X020869Y011827D01*
X020927Y011885D01*
X020975Y011951D01*
X021012Y012024D01*
X021037Y012102D01*
X021050Y012183D01*
X021050Y012194D01*
X020560Y012194D01*
X020560Y012254D01*
X021050Y012254D01*
X021050Y012265D01*
X021037Y012346D01*
X021012Y012424D01*
X020975Y012497D01*
X020969Y012504D01*
X021123Y012504D01*
X021161Y012519D01*
X021132Y012490D01*
X021060Y012318D01*
X021060Y012131D01*
X021132Y011958D01*
X021264Y011826D01*
X021437Y011754D01*
X021623Y011754D01*
X021796Y011826D01*
X021928Y011958D01*
X022000Y012131D01*
X022000Y012318D01*
X021928Y012490D01*
X021796Y012622D01*
X021623Y012694D01*
X021437Y012694D01*
X021399Y012679D01*
X021428Y012708D01*
X021500Y012881D01*
X021500Y013068D01*
X021428Y013240D01*
X021296Y013372D01*
X021123Y013444D01*
X020937Y013444D01*
X020764Y013372D01*
X020632Y013240D01*
X020560Y013068D01*
X020560Y012881D01*
X020620Y012736D01*
X020571Y012744D01*
X020560Y012744D01*
X020560Y012254D01*
X020500Y012254D01*
X020500Y012194D01*
X020012Y012194D01*
X019800Y012406D01*
X019800Y012603D01*
X019809Y012607D01*
X019887Y012685D01*
X019930Y012788D01*
X019930Y012900D01*
X019887Y013003D01*
X019809Y013081D01*
X019706Y013124D01*
X019594Y013124D01*
X019491Y013081D01*
X019413Y013003D01*
X019370Y012900D01*
X019370Y012788D01*
X019413Y012685D01*
X019491Y012607D01*
X019500Y012603D01*
X019500Y012282D01*
X019588Y012194D01*
X020000Y011782D01*
X020000Y011200D01*
X019955Y011308D01*
X019854Y011409D01*
X019722Y011464D01*
X019578Y011464D01*
X019446Y011409D01*
X019345Y011308D01*
X019300Y011200D01*
X019300Y013517D01*
X019398Y013476D01*
X019585Y013476D01*
X019758Y013548D01*
X019890Y013680D01*
X019962Y013853D01*
X019962Y014040D01*
X019890Y014213D01*
X019758Y014345D01*
X019585Y014416D01*
X019398Y014416D01*
X019225Y014345D01*
X019093Y014213D01*
X019022Y014040D01*
X019022Y013928D01*
X019000Y013906D01*
X019000Y013896D01*
X018542Y013896D01*
X018542Y013996D01*
X019010Y013996D01*
X018999Y014068D01*
X018973Y014146D01*
X018936Y014219D01*
X018888Y014285D01*
X018830Y014343D01*
X018764Y014391D01*
X018691Y014428D01*
X018613Y014454D01*
X018542Y014465D01*
X018542Y013996D01*
X018442Y013996D01*
X018442Y013896D01*
X018542Y013896D01*
X018542Y013428D01*
X018613Y013439D01*
X018691Y013464D01*
X018764Y013502D01*
X018830Y013550D01*
X018888Y013608D01*
X018936Y013674D01*
X018973Y013747D01*
X018999Y013825D01*
X018999Y013826D01*
X019000Y013822D01*
X019000Y011200D01*
X018955Y011308D01*
X018854Y011409D01*
X018722Y011464D01*
X018578Y011464D01*
X018446Y011409D01*
X018345Y011308D01*
X018290Y011176D01*
X018290Y010512D01*
X018345Y010380D01*
X018446Y010279D01*
X018578Y010224D01*
X018722Y010224D01*
X018854Y010279D01*
X018955Y010380D01*
X019000Y010488D01*
X019000Y008200D01*
X018955Y008308D01*
X018854Y008409D01*
X018722Y008464D01*
X018578Y008464D01*
X018446Y008409D01*
X018345Y008308D01*
X018290Y008176D01*
X018290Y007512D01*
X018345Y007380D01*
X018446Y007279D01*
X018578Y007224D01*
X018722Y007224D01*
X018854Y007279D01*
X018955Y007380D01*
X019000Y007488D01*
X019000Y007282D01*
X019088Y007194D01*
X020374Y005908D01*
X020370Y005900D01*
X020370Y005836D01*
X019212Y006994D01*
X019088Y006994D01*
X019000Y006906D01*
X018588Y006494D01*
X018212Y006494D01*
X017800Y006906D01*
X017800Y007256D01*
X017854Y007279D01*
X017955Y007380D01*
X018010Y007512D01*
X018010Y008176D01*
X017955Y008308D01*
X017854Y008409D01*
X017722Y008464D01*
X017578Y008464D01*
X017446Y008409D01*
X017345Y008308D01*
X017300Y008200D01*
X017300Y010488D01*
X017345Y010380D01*
X017446Y010279D01*
X017578Y010224D01*
X017722Y010224D01*
X017854Y010279D01*
X017955Y010380D01*
X018010Y010512D01*
X018010Y011176D01*
X017955Y011308D01*
X017854Y011409D01*
X017722Y011464D01*
X017578Y011464D01*
X017446Y011409D01*
X017345Y011308D01*
X017300Y011200D01*
X017300Y013406D01*
X016930Y013776D01*
X016962Y013853D01*
X016962Y014040D01*
X016890Y014213D01*
X016758Y014345D01*
X016585Y014416D01*
X016398Y014416D01*
X016225Y014345D01*
X016093Y014213D01*
X016022Y014040D01*
X016022Y013853D01*
X016093Y013680D01*
X016225Y013548D01*
X016398Y013476D01*
X016585Y013476D01*
X016741Y013541D01*
X017000Y013282D01*
X017000Y011200D01*
X016955Y011308D01*
X016854Y011409D01*
X016722Y011464D01*
X016578Y011464D01*
X016446Y011409D01*
X016345Y011308D01*
X016300Y011200D01*
X016300Y011282D01*
X016586Y011568D01*
X016594Y011564D01*
X016706Y011564D01*
X016809Y011607D01*
X016887Y011685D01*
X016930Y011788D01*
X016930Y011900D01*
X016887Y012003D01*
X016809Y012081D01*
X016706Y012124D01*
X016594Y012124D01*
X016491Y012081D01*
X016413Y012003D01*
X016370Y011900D01*
X016370Y011788D01*
X016374Y011780D01*
X016088Y011494D01*
X016000Y011406D01*
X016000Y011200D01*
X015955Y011308D01*
X015854Y011409D01*
X015722Y011464D01*
X015578Y011464D01*
X015446Y011409D01*
X015372Y011335D01*
X015300Y011406D01*
X015300Y012072D01*
X015351Y012022D01*
X015411Y011978D01*
X015478Y011944D01*
X015549Y011921D01*
X015623Y011909D01*
X015641Y011909D01*
X015641Y012365D01*
X015679Y012365D01*
X015679Y012403D01*
X015641Y012403D01*
X015641Y012859D01*
X015623Y012859D01*
X015549Y012847D01*
X015478Y012824D01*
X015411Y012790D01*
X015351Y012746D01*
X015300Y012696D01*
X015300Y013517D01*
X015398Y013476D01*
X015585Y013476D01*
X015758Y013548D01*
X015890Y013680D01*
X015962Y013853D01*
X015962Y014040D01*
X015890Y014213D01*
X015758Y014345D01*
X015585Y014416D01*
X015398Y014416D01*
X015225Y014345D01*
X015093Y014213D01*
X015022Y014040D01*
X015022Y013928D01*
X015000Y013906D01*
X015000Y013896D01*
X014542Y013896D01*
X014542Y013996D01*
X015012Y013996D01*
X015012Y014336D01*
X015001Y014374D01*
X014982Y014408D01*
X014954Y014436D01*
X014919Y014456D01*
X014881Y014466D01*
X014542Y014466D01*
X014542Y013996D01*
X014442Y013996D01*
X014442Y013896D01*
X014542Y013896D01*
X014542Y013426D01*
X014881Y013426D01*
X014919Y013437D01*
X014954Y013456D01*
X014982Y013484D01*
X015000Y013516D01*
X015000Y012645D01*
X014901Y012744D01*
X014745Y012809D01*
X014575Y012809D01*
X014419Y012744D01*
X014300Y012625D01*
X014235Y012469D01*
X014235Y012299D01*
X014300Y012143D01*
X014419Y012024D01*
X014500Y011990D01*
X014500Y011432D01*
X014446Y011409D01*
X014345Y011308D01*
X014300Y011200D01*
X014300Y011906D01*
X014212Y011994D01*
X013588Y011994D01*
X013578Y011984D01*
X013587Y012012D01*
X013599Y012086D01*
X013128Y012086D01*
X013128Y011615D01*
X013202Y011627D01*
X013230Y011636D01*
X013000Y011406D01*
X013000Y011200D01*
X012955Y011308D01*
X012854Y011409D01*
X012722Y011464D01*
X012578Y011464D01*
X012446Y011409D01*
X012372Y011335D01*
X011800Y011906D01*
X011800Y012406D01*
X010300Y013906D01*
X010212Y013994D01*
X009620Y013994D01*
X009620Y014039D01*
X009345Y014314D01*
X008955Y014314D01*
X008680Y014039D01*
X008680Y013649D01*
X008620Y013649D01*
X008620Y014039D01*
X008345Y014314D01*
X007955Y014314D01*
X007680Y014039D01*
X007680Y013649D01*
X007620Y013649D01*
X007620Y014039D01*
X007345Y014314D01*
X006955Y014314D01*
X006680Y014039D01*
X006680Y013649D01*
X002771Y013649D01*
X002730Y013551D02*
X006779Y013551D01*
X006877Y013452D02*
X002640Y013452D01*
X002724Y013537D02*
X002831Y013795D01*
X002831Y014073D01*
X002724Y014331D01*
X002527Y014528D01*
X002269Y014635D01*
X001991Y014635D01*
X001733Y014528D01*
X001536Y014331D01*
X001429Y014073D01*
X001429Y013795D01*
X001536Y013537D01*
X001733Y013340D01*
X001991Y013233D01*
X002269Y013233D01*
X002527Y013340D01*
X002724Y013537D01*
X002812Y013748D02*
X006680Y013748D01*
X006680Y013846D02*
X002831Y013846D01*
X002831Y013945D02*
X006680Y013945D01*
X006684Y014043D02*
X002831Y014043D01*
X002803Y014142D02*
X006783Y014142D01*
X006881Y014240D02*
X002762Y014240D01*
X002717Y014339D02*
X011656Y014339D01*
X011682Y014400D02*
X011610Y014228D01*
X011610Y014041D01*
X011682Y013868D01*
X011814Y013736D01*
X011987Y013664D01*
X012173Y013664D01*
X012346Y013736D01*
X012478Y013868D01*
X012550Y014041D01*
X012550Y014228D01*
X012478Y014400D01*
X012346Y014532D01*
X012173Y014604D01*
X011987Y014604D01*
X011814Y014532D01*
X011682Y014400D01*
X011718Y014437D02*
X002619Y014437D01*
X002510Y014536D02*
X011821Y014536D01*
X012339Y014536D02*
X031260Y014536D01*
X031263Y014538D02*
X031066Y014341D01*
X030959Y014083D01*
X030959Y013805D01*
X031066Y013547D01*
X031263Y013350D01*
X031521Y013243D01*
X031799Y013243D01*
X032057Y013350D01*
X032254Y013547D01*
X032361Y013805D01*
X032361Y014083D01*
X032254Y014341D01*
X032057Y014538D01*
X031799Y014645D01*
X031521Y014645D01*
X031263Y014538D01*
X031161Y014437D02*
X018664Y014437D01*
X018542Y014437D02*
X018442Y014437D01*
X018442Y014465D02*
X018370Y014454D01*
X018292Y014428D01*
X018219Y014391D01*
X018153Y014343D01*
X018095Y014285D01*
X018047Y014219D01*
X018010Y014146D01*
X017984Y014068D01*
X017973Y013996D01*
X018442Y013996D01*
X018442Y014465D01*
X018319Y014437D02*
X014953Y014437D01*
X015011Y014339D02*
X015219Y014339D01*
X015121Y014240D02*
X015012Y014240D01*
X015012Y014142D02*
X015064Y014142D01*
X015023Y014043D02*
X015012Y014043D01*
X015022Y013945D02*
X014542Y013945D01*
X014492Y013946D02*
X014150Y013844D01*
X013150Y012844D01*
X013150Y012344D01*
X013080Y012134D01*
X013128Y012172D02*
X014288Y012172D01*
X014247Y012270D02*
X013583Y012270D01*
X013587Y012256D02*
X013562Y012334D01*
X013525Y012407D01*
X013477Y012473D01*
X013419Y012531D01*
X013353Y012579D01*
X013280Y012616D01*
X013202Y012641D01*
X013128Y012653D01*
X013128Y012182D01*
X013032Y012182D01*
X013032Y012086D01*
X013128Y012086D01*
X013128Y012182D01*
X013599Y012182D01*
X013587Y012256D01*
X013544Y012369D02*
X014235Y012369D01*
X014235Y012467D02*
X013481Y012467D01*
X013371Y012566D02*
X014275Y012566D01*
X014339Y012664D02*
X011542Y012664D01*
X011444Y012763D02*
X014463Y012763D01*
X014857Y012763D02*
X015000Y012763D01*
X015000Y012861D02*
X011345Y012861D01*
X011247Y012960D02*
X015000Y012960D01*
X015000Y013058D02*
X011148Y013058D01*
X011050Y013157D02*
X015000Y013157D01*
X015000Y013255D02*
X010951Y013255D01*
X010853Y013354D02*
X015000Y013354D01*
X015000Y013452D02*
X014946Y013452D01*
X015300Y013452D02*
X016830Y013452D01*
X016928Y013354D02*
X015300Y013354D01*
X015300Y013255D02*
X017000Y013255D01*
X017000Y013157D02*
X015300Y013157D01*
X015300Y013058D02*
X017000Y013058D01*
X017000Y012960D02*
X015300Y012960D01*
X015300Y012861D02*
X017000Y012861D01*
X017000Y012763D02*
X015947Y012763D01*
X015969Y012746D02*
X015909Y012790D01*
X015842Y012824D01*
X015771Y012847D01*
X015697Y012859D01*
X015679Y012859D01*
X015679Y012403D01*
X016135Y012403D01*
X016135Y012421D01*
X016123Y012495D01*
X016100Y012566D01*
X016066Y012633D01*
X016022Y012693D01*
X015969Y012746D01*
X016044Y012664D02*
X017000Y012664D01*
X017000Y012566D02*
X016100Y012566D01*
X016128Y012467D02*
X017000Y012467D01*
X017000Y012369D02*
X015679Y012369D01*
X015679Y012365D02*
X016135Y012365D01*
X016135Y012347D01*
X016123Y012273D01*
X016100Y012202D01*
X016066Y012135D01*
X016022Y012075D01*
X015969Y012022D01*
X015909Y011978D01*
X015842Y011944D01*
X015771Y011921D01*
X015697Y011909D01*
X015679Y011909D01*
X015679Y012365D01*
X015679Y012270D02*
X015641Y012270D01*
X015641Y012172D02*
X015679Y012172D01*
X015679Y012073D02*
X015641Y012073D01*
X015641Y011975D02*
X015679Y011975D01*
X015903Y011975D02*
X016401Y011975D01*
X016370Y011876D02*
X015300Y011876D01*
X015300Y011778D02*
X016371Y011778D01*
X016273Y011679D02*
X015300Y011679D01*
X015300Y011581D02*
X016174Y011581D01*
X016076Y011482D02*
X015300Y011482D01*
X015323Y011384D02*
X015420Y011384D01*
X015150Y011344D02*
X015150Y013844D01*
X015492Y013946D01*
X015962Y013945D02*
X016022Y013945D01*
X016023Y014043D02*
X015960Y014043D01*
X015919Y014142D02*
X016064Y014142D01*
X016121Y014240D02*
X015863Y014240D01*
X015764Y014339D02*
X016219Y014339D01*
X016492Y013946D02*
X016650Y013844D01*
X017150Y013344D01*
X017150Y006844D01*
X018150Y005844D01*
X018403Y005966D02*
X019316Y005966D01*
X019414Y005868D02*
X018430Y005868D01*
X018430Y005900D02*
X018387Y006003D01*
X018309Y006081D01*
X018206Y006124D01*
X018094Y006124D01*
X018086Y006120D01*
X017300Y006906D01*
X017300Y007488D01*
X017345Y007380D01*
X017446Y007279D01*
X017500Y007256D01*
X017500Y006782D01*
X017588Y006694D01*
X018000Y006282D01*
X018000Y006282D01*
X018088Y006194D01*
X018712Y006194D01*
X018870Y006352D01*
X018870Y006288D01*
X018913Y006185D01*
X018991Y006107D01*
X019094Y006064D01*
X019206Y006064D01*
X019214Y006068D01*
X021000Y004282D01*
X021000Y003159D01*
X020845Y003314D01*
X020455Y003314D01*
X020430Y003289D01*
X020430Y003400D01*
X020387Y003503D01*
X020309Y003581D01*
X020206Y003624D01*
X020094Y003624D01*
X020086Y003620D01*
X018426Y005280D01*
X018430Y005288D01*
X018430Y005400D01*
X018387Y005503D01*
X018309Y005581D01*
X018278Y005594D01*
X018309Y005607D01*
X018387Y005685D01*
X018430Y005788D01*
X018430Y005900D01*
X018422Y005769D02*
X019513Y005769D01*
X019611Y005671D02*
X018372Y005671D01*
X018318Y005572D02*
X019710Y005572D01*
X019808Y005474D02*
X018399Y005474D01*
X018430Y005375D02*
X019907Y005375D01*
X020005Y005277D02*
X018430Y005277D01*
X018528Y005178D02*
X020104Y005178D01*
X020202Y005080D02*
X018627Y005080D01*
X018725Y004981D02*
X020301Y004981D01*
X020399Y004883D02*
X018824Y004883D01*
X018922Y004784D02*
X020498Y004784D01*
X020596Y004686D02*
X019021Y004686D01*
X019119Y004587D02*
X020695Y004587D01*
X020793Y004489D02*
X019218Y004489D01*
X019316Y004390D02*
X020892Y004390D01*
X020990Y004292D02*
X019415Y004292D01*
X019513Y004193D02*
X021000Y004193D01*
X021000Y004095D02*
X019612Y004095D01*
X019710Y003996D02*
X021000Y003996D01*
X021000Y003898D02*
X019809Y003898D01*
X019907Y003799D02*
X021000Y003799D01*
X021000Y003701D02*
X020006Y003701D01*
X020259Y003602D02*
X021000Y003602D01*
X021000Y003504D02*
X020386Y003504D01*
X020428Y003405D02*
X021000Y003405D01*
X021000Y003307D02*
X020852Y003307D01*
X020951Y003208D02*
X021000Y003208D01*
X020448Y003307D02*
X020430Y003307D01*
X020150Y003344D02*
X018150Y005344D01*
X017901Y005474D02*
X017733Y005474D01*
X017800Y005375D02*
X017870Y005375D01*
X017875Y005277D02*
X017800Y005277D01*
X017800Y005178D02*
X017920Y005178D01*
X017800Y005080D02*
X018057Y005080D01*
X018301Y004981D02*
X017800Y004981D01*
X017800Y004883D02*
X018399Y004883D01*
X018498Y004784D02*
X017800Y004784D01*
X017910Y004686D02*
X018596Y004686D01*
X018695Y004587D02*
X018008Y004587D01*
X018050Y004489D02*
X018793Y004489D01*
X018892Y004390D02*
X018075Y004390D01*
X018075Y004292D02*
X018990Y004292D01*
X019089Y004193D02*
X018047Y004193D01*
X018002Y004095D02*
X018523Y004095D01*
X018410Y003996D02*
X017903Y003996D01*
X018370Y003898D02*
X017300Y003898D01*
X017300Y003996D02*
X017397Y003996D01*
X017300Y003799D02*
X018370Y003799D01*
X018406Y003701D02*
X017300Y003701D01*
X017300Y003602D02*
X018500Y003602D01*
X018500Y003504D02*
X017300Y003504D01*
X017301Y003405D02*
X018500Y003405D01*
X018500Y003307D02*
X017400Y003307D01*
X017498Y003208D02*
X018500Y003208D01*
X018500Y003110D02*
X017597Y003110D01*
X017695Y003011D02*
X018500Y003011D01*
X018500Y002913D02*
X017794Y002913D01*
X017892Y002814D02*
X018500Y002814D01*
X018500Y002716D02*
X017991Y002716D01*
X018089Y002617D02*
X018500Y002617D01*
X018500Y002519D02*
X018188Y002519D01*
X018286Y002420D02*
X018500Y002420D01*
X018500Y002322D02*
X018300Y002322D01*
X018300Y002223D02*
X018364Y002223D01*
X018150Y002344D02*
X018150Y001344D01*
X024650Y001344D01*
X024650Y001844D01*
X025300Y001829D02*
X026190Y001829D01*
X026190Y001731D02*
X025300Y001731D01*
X025300Y001632D02*
X026211Y001632D01*
X026310Y001534D02*
X025300Y001534D01*
X025150Y001344D02*
X025150Y002344D01*
X023650Y002344D01*
X023650Y002844D01*
X024120Y002814D02*
X024600Y002814D01*
X024650Y002844D02*
X025150Y002844D01*
X025650Y003344D01*
X025080Y004954D01*
X025650Y008344D01*
X025150Y008844D01*
X025150Y010844D01*
X025120Y010891D02*
X025180Y010891D01*
X025180Y010793D02*
X025120Y010793D01*
X025120Y010694D02*
X025180Y010694D01*
X025180Y010596D02*
X025120Y010596D01*
X025120Y010497D02*
X025180Y010497D01*
X025180Y010399D02*
X025120Y010399D01*
X025120Y010300D02*
X025180Y010300D01*
X025180Y010202D02*
X025120Y010202D01*
X025000Y010202D02*
X024800Y010202D01*
X024800Y010300D02*
X024854Y010300D01*
X024800Y010103D02*
X025679Y010103D01*
X025777Y010005D02*
X024800Y010005D01*
X024800Y009906D02*
X025876Y009906D01*
X025974Y009808D02*
X024800Y009808D01*
X024800Y009709D02*
X026000Y009709D01*
X026000Y009611D02*
X024800Y009611D01*
X024800Y009512D02*
X026000Y009512D01*
X026000Y009414D02*
X024800Y009414D01*
X024800Y009315D02*
X026000Y009315D01*
X026000Y009217D02*
X024800Y009217D01*
X024800Y009118D02*
X026000Y009118D01*
X026000Y009020D02*
X024800Y009020D01*
X024800Y008921D02*
X026000Y008921D01*
X026000Y008823D02*
X024800Y008823D01*
X024800Y008724D02*
X026000Y008724D01*
X026000Y008626D02*
X024800Y008626D01*
X024800Y008527D02*
X026000Y008527D01*
X025993Y008429D02*
X025307Y008429D01*
X025433Y008330D02*
X025867Y008330D01*
X025813Y008232D02*
X025487Y008232D01*
X025510Y008133D02*
X025790Y008133D01*
X025790Y008035D02*
X025510Y008035D01*
X025510Y007936D02*
X025790Y007936D01*
X025790Y007838D02*
X025510Y007838D01*
X025510Y007739D02*
X025790Y007739D01*
X025790Y007641D02*
X025510Y007641D01*
X025510Y007542D02*
X025790Y007542D01*
X025819Y007444D02*
X025481Y007444D01*
X025420Y007345D02*
X025880Y007345D01*
X026024Y007247D02*
X025276Y007247D01*
X025024Y007247D02*
X024276Y007247D01*
X024420Y007345D02*
X024880Y007345D01*
X024819Y007444D02*
X024481Y007444D01*
X024510Y007542D02*
X024790Y007542D01*
X024790Y007641D02*
X024510Y007641D01*
X024510Y007739D02*
X024790Y007739D01*
X024790Y007838D02*
X024510Y007838D01*
X024510Y007936D02*
X024790Y007936D01*
X024747Y008035D02*
X024510Y008035D01*
X024510Y008133D02*
X024649Y008133D01*
X024550Y008232D02*
X024487Y008232D01*
X024500Y008330D02*
X024433Y008330D01*
X024500Y008429D02*
X024307Y008429D01*
X024500Y008527D02*
X023800Y008527D01*
X023800Y008429D02*
X023993Y008429D01*
X023867Y008330D02*
X023800Y008330D01*
X023800Y008232D02*
X023813Y008232D01*
X023500Y008232D02*
X023487Y008232D01*
X023500Y008330D02*
X023433Y008330D01*
X023500Y008429D02*
X023307Y008429D01*
X023500Y008527D02*
X022800Y008527D01*
X022800Y008429D02*
X022993Y008429D01*
X022800Y008626D02*
X023500Y008626D01*
X023500Y008724D02*
X022800Y008724D01*
X022800Y008823D02*
X023500Y008823D01*
X023500Y008921D02*
X022800Y008921D01*
X022800Y009020D02*
X023500Y009020D01*
X023500Y009118D02*
X022800Y009118D01*
X022800Y009217D02*
X023500Y009217D01*
X023500Y009315D02*
X022800Y009315D01*
X022800Y009414D02*
X023500Y009414D01*
X023500Y009512D02*
X022800Y009512D01*
X022800Y009611D02*
X023500Y009611D01*
X023500Y009709D02*
X022800Y009709D01*
X022800Y009808D02*
X023500Y009808D01*
X023500Y009906D02*
X022800Y009906D01*
X022800Y010005D02*
X023500Y010005D01*
X023500Y010103D02*
X022800Y010103D01*
X022800Y010202D02*
X023500Y010202D01*
X023500Y010300D02*
X023375Y010300D01*
X023463Y010399D02*
X023500Y010399D01*
X023504Y010497D02*
X023591Y010497D01*
X023510Y010596D02*
X023689Y010596D01*
X023788Y010694D02*
X023510Y010694D01*
X023510Y010793D02*
X023790Y010793D01*
X023790Y010891D02*
X023510Y010891D01*
X023510Y010990D02*
X023790Y010990D01*
X023790Y011088D02*
X023510Y011088D01*
X023505Y011187D02*
X023795Y011187D01*
X023835Y011285D02*
X023465Y011285D01*
X023380Y011384D02*
X023920Y011384D01*
X024380Y011384D02*
X024500Y011384D01*
X024500Y011482D02*
X022800Y011482D01*
X022800Y011384D02*
X022920Y011384D01*
X022835Y011285D02*
X022800Y011285D01*
X022500Y011285D02*
X022465Y011285D01*
X022500Y011384D02*
X022380Y011384D01*
X022500Y011482D02*
X022000Y011482D01*
X021920Y011384D02*
X021902Y011384D01*
X021835Y011285D02*
X021803Y011285D01*
X021650Y011344D02*
X022150Y011844D01*
X022150Y013344D01*
X021892Y013452D02*
X019300Y013452D01*
X019300Y013354D02*
X020745Y013354D01*
X020646Y013255D02*
X019300Y013255D01*
X019300Y013157D02*
X020597Y013157D01*
X020560Y013058D02*
X019832Y013058D01*
X019905Y012960D02*
X020560Y012960D01*
X020568Y012861D02*
X019930Y012861D01*
X019919Y012763D02*
X020609Y012763D01*
X020560Y012664D02*
X020500Y012664D01*
X020500Y012744D02*
X020489Y012744D01*
X020408Y012731D01*
X020330Y012706D01*
X020257Y012669D01*
X020191Y012621D01*
X020133Y012563D01*
X020085Y012497D01*
X020048Y012424D01*
X020023Y012346D01*
X020010Y012265D01*
X020010Y012254D01*
X020500Y012254D01*
X020500Y012744D01*
X020500Y012566D02*
X020560Y012566D01*
X020560Y012467D02*
X020500Y012467D01*
X020500Y012369D02*
X020560Y012369D01*
X020560Y012270D02*
X020500Y012270D01*
X020500Y012172D02*
X020560Y012172D01*
X020560Y012073D02*
X020500Y012073D01*
X020500Y011975D02*
X020560Y011975D01*
X020560Y011876D02*
X020500Y011876D01*
X020500Y011778D02*
X020560Y011778D01*
X020799Y011778D02*
X021380Y011778D01*
X021213Y011876D02*
X020917Y011876D01*
X020986Y011975D02*
X021125Y011975D01*
X021084Y012073D02*
X021028Y012073D01*
X021048Y012172D02*
X021060Y012172D01*
X021049Y012270D02*
X021060Y012270D01*
X021081Y012369D02*
X021030Y012369D01*
X020990Y012467D02*
X021122Y012467D01*
X021853Y012566D02*
X022000Y012566D01*
X022000Y012664D02*
X021696Y012664D01*
X021451Y012763D02*
X022000Y012763D01*
X022000Y012861D02*
X021492Y012861D01*
X021500Y012960D02*
X022000Y012960D01*
X022000Y013058D02*
X021500Y013058D01*
X021463Y013157D02*
X021941Y013157D01*
X021884Y013255D02*
X021414Y013255D01*
X021315Y013354D02*
X021870Y013354D01*
X021961Y013551D02*
X021760Y013551D01*
X021758Y013548D02*
X021890Y013680D01*
X021962Y013853D01*
X021962Y014040D01*
X021890Y014213D01*
X021758Y014345D01*
X021585Y014416D01*
X021398Y014416D01*
X021225Y014345D01*
X021093Y014213D01*
X021022Y014040D01*
X021022Y013853D01*
X021093Y013680D01*
X021225Y013548D01*
X021398Y013476D01*
X021585Y013476D01*
X021758Y013548D01*
X021859Y013649D02*
X022124Y013649D01*
X022065Y013748D02*
X021918Y013748D01*
X021959Y013846D02*
X022024Y013846D01*
X022022Y013945D02*
X021962Y013945D01*
X021960Y014043D02*
X022023Y014043D01*
X022064Y014142D02*
X021919Y014142D01*
X021863Y014240D02*
X022121Y014240D01*
X022219Y014339D02*
X021764Y014339D01*
X021219Y014339D02*
X020764Y014339D01*
X020758Y014345D02*
X020585Y014416D01*
X020398Y014416D01*
X020225Y014345D01*
X020093Y014213D01*
X020022Y014040D01*
X020022Y013853D01*
X020093Y013680D01*
X020225Y013548D01*
X020398Y013476D01*
X020585Y013476D01*
X020758Y013548D01*
X020890Y013680D01*
X020962Y013853D01*
X020962Y014040D01*
X020890Y014213D01*
X020758Y014345D01*
X020863Y014240D02*
X021121Y014240D01*
X021064Y014142D02*
X020919Y014142D01*
X020960Y014043D02*
X021023Y014043D01*
X021022Y013945D02*
X020962Y013945D01*
X020959Y013846D02*
X021024Y013846D01*
X021065Y013748D02*
X020918Y013748D01*
X020859Y013649D02*
X021124Y013649D01*
X021223Y013551D02*
X020760Y013551D01*
X020223Y013551D02*
X019760Y013551D01*
X019859Y013649D02*
X020124Y013649D01*
X020065Y013748D02*
X019918Y013748D01*
X019959Y013846D02*
X020024Y013846D01*
X020022Y013945D02*
X019962Y013945D01*
X019960Y014043D02*
X020023Y014043D01*
X020064Y014142D02*
X019919Y014142D01*
X019863Y014240D02*
X020121Y014240D01*
X020219Y014339D02*
X019764Y014339D01*
X019219Y014339D02*
X018835Y014339D01*
X018921Y014240D02*
X019121Y014240D01*
X019064Y014142D02*
X018975Y014142D01*
X019003Y014043D02*
X019023Y014043D01*
X019022Y013945D02*
X018542Y013945D01*
X018542Y014043D02*
X018442Y014043D01*
X018442Y013945D02*
X017962Y013945D01*
X017973Y013896D02*
X017984Y013825D01*
X018010Y013747D01*
X018047Y013674D01*
X018095Y013608D01*
X018153Y013550D01*
X018219Y013502D01*
X018292Y013464D01*
X018370Y013439D01*
X018442Y013428D01*
X018442Y013896D01*
X017973Y013896D01*
X017962Y013853D02*
X017890Y013680D01*
X017758Y013548D01*
X017585Y013476D01*
X017398Y013476D01*
X017225Y013548D01*
X017093Y013680D01*
X017022Y013853D01*
X017022Y014040D01*
X017093Y014213D01*
X017225Y014345D01*
X017398Y014416D01*
X017585Y014416D01*
X017758Y014345D01*
X017890Y014213D01*
X017962Y014040D01*
X017962Y013853D01*
X017959Y013846D02*
X017981Y013846D01*
X018009Y013748D02*
X017918Y013748D01*
X017859Y013649D02*
X018065Y013649D01*
X018152Y013551D02*
X017760Y013551D01*
X017300Y013354D02*
X019000Y013354D01*
X019000Y013452D02*
X018653Y013452D01*
X018542Y013452D02*
X018442Y013452D01*
X018442Y013551D02*
X018542Y013551D01*
X018542Y013649D02*
X018442Y013649D01*
X018442Y013748D02*
X018542Y013748D01*
X018542Y013846D02*
X018442Y013846D01*
X017980Y014043D02*
X017960Y014043D01*
X017919Y014142D02*
X018008Y014142D01*
X018062Y014240D02*
X017863Y014240D01*
X017764Y014339D02*
X018148Y014339D01*
X018442Y014339D02*
X018542Y014339D01*
X018542Y014240D02*
X018442Y014240D01*
X018442Y014142D02*
X018542Y014142D01*
X019150Y013844D02*
X019492Y013946D01*
X019150Y013844D02*
X019150Y007344D01*
X020650Y005844D01*
X020370Y005868D02*
X020339Y005868D01*
X020316Y005966D02*
X020240Y005966D01*
X020217Y006065D02*
X020142Y006065D01*
X020119Y006163D02*
X020043Y006163D01*
X020020Y006262D02*
X019945Y006262D01*
X019922Y006360D02*
X019846Y006360D01*
X019823Y006459D02*
X019748Y006459D01*
X019725Y006557D02*
X019649Y006557D01*
X019626Y006656D02*
X019551Y006656D01*
X019528Y006754D02*
X019452Y006754D01*
X019429Y006853D02*
X019354Y006853D01*
X019331Y006951D02*
X019255Y006951D01*
X019232Y007050D02*
X017800Y007050D01*
X017800Y007148D02*
X019134Y007148D01*
X019088Y007194D02*
X019088Y007194D01*
X019035Y007247D02*
X018776Y007247D01*
X018920Y007345D02*
X019000Y007345D01*
X019000Y007444D02*
X018981Y007444D01*
X018524Y007247D02*
X017800Y007247D01*
X017920Y007345D02*
X018380Y007345D01*
X018319Y007444D02*
X017981Y007444D01*
X018010Y007542D02*
X018290Y007542D01*
X018290Y007641D02*
X018010Y007641D01*
X018010Y007739D02*
X018290Y007739D01*
X018290Y007838D02*
X018010Y007838D01*
X018010Y007936D02*
X018290Y007936D01*
X018290Y008035D02*
X018010Y008035D01*
X018010Y008133D02*
X018290Y008133D01*
X018313Y008232D02*
X017987Y008232D01*
X017933Y008330D02*
X018367Y008330D01*
X018493Y008429D02*
X017807Y008429D01*
X017493Y008429D02*
X017300Y008429D01*
X017300Y008527D02*
X019000Y008527D01*
X019000Y008429D02*
X018807Y008429D01*
X018933Y008330D02*
X019000Y008330D01*
X018987Y008232D02*
X019000Y008232D01*
X019300Y008232D02*
X019313Y008232D01*
X019300Y008330D02*
X019367Y008330D01*
X019300Y008429D02*
X019493Y008429D01*
X019473Y008626D02*
X019300Y008626D01*
X019300Y008724D02*
X019397Y008724D01*
X019370Y008823D02*
X019300Y008823D01*
X019300Y008921D02*
X019379Y008921D01*
X019430Y009020D02*
X019300Y009020D01*
X019300Y009118D02*
X019500Y009118D01*
X019500Y009217D02*
X019300Y009217D01*
X019300Y009315D02*
X019500Y009315D01*
X019500Y009414D02*
X019300Y009414D01*
X019300Y009512D02*
X019500Y009512D01*
X019500Y009611D02*
X019300Y009611D01*
X019300Y009709D02*
X019500Y009709D01*
X019500Y009808D02*
X019300Y009808D01*
X019300Y009906D02*
X019500Y009906D01*
X019500Y010005D02*
X019300Y010005D01*
X019300Y010103D02*
X019500Y010103D01*
X019500Y010202D02*
X019300Y010202D01*
X019300Y010300D02*
X019425Y010300D01*
X019337Y010399D02*
X019300Y010399D01*
X019000Y010399D02*
X018963Y010399D01*
X019000Y010300D02*
X018875Y010300D01*
X019000Y010202D02*
X017300Y010202D01*
X017300Y010300D02*
X017425Y010300D01*
X017337Y010399D02*
X017300Y010399D01*
X017300Y010103D02*
X019000Y010103D01*
X019000Y010005D02*
X017300Y010005D01*
X017300Y009906D02*
X019000Y009906D01*
X019000Y009808D02*
X017300Y009808D01*
X017300Y009709D02*
X019000Y009709D01*
X019000Y009611D02*
X017300Y009611D01*
X017300Y009512D02*
X019000Y009512D01*
X019000Y009414D02*
X017300Y009414D01*
X017300Y009315D02*
X019000Y009315D01*
X019000Y009217D02*
X017300Y009217D01*
X017300Y009118D02*
X019000Y009118D01*
X019000Y009020D02*
X017300Y009020D01*
X017300Y008921D02*
X019000Y008921D01*
X019000Y008823D02*
X017300Y008823D01*
X017300Y008724D02*
X019000Y008724D01*
X019000Y008626D02*
X017300Y008626D01*
X017000Y008626D02*
X016300Y008626D01*
X016300Y008724D02*
X017000Y008724D01*
X017000Y008823D02*
X016300Y008823D01*
X016300Y008921D02*
X017000Y008921D01*
X017000Y009020D02*
X016300Y009020D01*
X016300Y009118D02*
X017000Y009118D01*
X017000Y009217D02*
X016300Y009217D01*
X016300Y009315D02*
X017000Y009315D01*
X017000Y009414D02*
X016300Y009414D01*
X016300Y009512D02*
X017000Y009512D01*
X017000Y009611D02*
X016300Y009611D01*
X016300Y009709D02*
X017000Y009709D01*
X017000Y009808D02*
X016300Y009808D01*
X016300Y009906D02*
X017000Y009906D01*
X017000Y010005D02*
X016300Y010005D01*
X016300Y010103D02*
X017000Y010103D01*
X017000Y010202D02*
X016300Y010202D01*
X016300Y010300D02*
X016425Y010300D01*
X016446Y010279D02*
X016578Y010224D01*
X016722Y010224D01*
X016854Y010279D01*
X016955Y010380D01*
X017000Y010488D01*
X017000Y008200D01*
X016955Y008308D01*
X016854Y008409D01*
X016722Y008464D01*
X016578Y008464D01*
X016446Y008409D01*
X016345Y008308D01*
X016300Y008200D01*
X016300Y010488D01*
X016345Y010380D01*
X016446Y010279D01*
X016337Y010399D02*
X016300Y010399D01*
X016000Y010399D02*
X015963Y010399D01*
X015955Y010380D02*
X016000Y010488D01*
X016000Y008200D01*
X015955Y008308D01*
X015854Y008409D01*
X015722Y008464D01*
X015578Y008464D01*
X015446Y008409D01*
X015345Y008308D01*
X015290Y008176D01*
X015290Y007696D01*
X015088Y007494D01*
X015035Y007441D01*
X015050Y007488D01*
X015060Y007552D01*
X015060Y007814D01*
X014680Y007814D01*
X014680Y007174D01*
X014682Y007174D01*
X014746Y007184D01*
X014807Y007204D01*
X014865Y007233D01*
X014917Y007271D01*
X014963Y007317D01*
X015000Y007368D01*
X015000Y006492D01*
X014909Y006454D01*
X014790Y006335D01*
X014725Y006179D01*
X014725Y006009D01*
X014790Y005853D01*
X014909Y005734D01*
X015000Y005696D01*
X015000Y004742D01*
X014909Y004704D01*
X014790Y004585D01*
X014725Y004429D01*
X014725Y004259D01*
X014790Y004103D01*
X014909Y003984D01*
X015065Y003919D01*
X015235Y003919D01*
X015391Y003984D01*
X015500Y004093D01*
X015500Y002782D01*
X015588Y002694D01*
X016649Y002694D01*
X016653Y002685D01*
X016731Y002607D01*
X016834Y002564D01*
X016946Y002564D01*
X017049Y002607D01*
X017127Y002685D01*
X017170Y002788D01*
X017170Y002900D01*
X017127Y003003D01*
X017049Y003081D01*
X016946Y003124D01*
X016834Y003124D01*
X016731Y003081D01*
X016653Y003003D01*
X016649Y002994D01*
X015800Y002994D01*
X015800Y006603D01*
X015809Y006607D01*
X015887Y006685D01*
X015930Y006788D01*
X015930Y006900D01*
X015887Y007003D01*
X015809Y007081D01*
X015706Y007124D01*
X015594Y007124D01*
X015491Y007081D01*
X015413Y007003D01*
X015370Y006900D01*
X015370Y006788D01*
X015413Y006685D01*
X015491Y006607D01*
X015500Y006603D01*
X015500Y006345D01*
X015391Y006454D01*
X015300Y006492D01*
X015300Y007282D01*
X015372Y007353D01*
X015446Y007279D01*
X015578Y007224D01*
X015722Y007224D01*
X015854Y007279D01*
X015955Y007380D01*
X016000Y007488D01*
X016000Y005782D01*
X017000Y004782D01*
X017000Y004666D01*
X016959Y004706D01*
X016899Y004750D01*
X016832Y004784D01*
X016761Y004807D01*
X016687Y004819D01*
X016669Y004819D01*
X016669Y004363D01*
X016631Y004363D01*
X016631Y004325D01*
X016669Y004325D01*
X016669Y003869D01*
X016687Y003869D01*
X016761Y003881D01*
X016832Y003904D01*
X016899Y003938D01*
X016959Y003982D01*
X017000Y004022D01*
X017000Y003282D01*
X018000Y002282D01*
X018000Y002159D01*
X017916Y002242D01*
X017743Y002314D01*
X017557Y002314D01*
X017384Y002242D01*
X017252Y002110D01*
X017203Y001994D01*
X016097Y001994D01*
X016048Y002110D01*
X015916Y002242D01*
X015743Y002314D01*
X015557Y002314D01*
X015384Y002242D01*
X015252Y002110D01*
X015180Y001938D01*
X015180Y001751D01*
X015252Y001578D01*
X015335Y001494D01*
X014965Y001494D01*
X015048Y001578D01*
X015120Y001751D01*
X015120Y001938D01*
X015048Y002110D01*
X014916Y002242D01*
X014743Y002314D01*
X014557Y002314D01*
X014440Y002266D01*
X013800Y002906D01*
X013800Y004022D01*
X013841Y003982D01*
X013901Y003938D01*
X013968Y003904D01*
X014039Y003881D01*
X014113Y003869D01*
X014131Y003869D01*
X014131Y004325D01*
X014169Y004325D01*
X014169Y004363D01*
X014131Y004363D01*
X014131Y004819D01*
X014113Y004819D01*
X014039Y004807D01*
X013968Y004784D01*
X013901Y004750D01*
X013841Y004706D01*
X013800Y004666D01*
X013800Y005603D01*
X013809Y005607D01*
X013887Y005685D01*
X013930Y005788D01*
X013930Y005900D01*
X013887Y006003D01*
X013809Y006081D01*
X013706Y006124D01*
X013594Y006124D01*
X013491Y006081D01*
X013413Y006003D01*
X013370Y005900D01*
X013370Y005788D01*
X013413Y005685D01*
X013491Y005607D01*
X013500Y005603D01*
X013500Y002782D01*
X013588Y002694D01*
X014228Y002054D01*
X014180Y001938D01*
X014180Y001751D01*
X014252Y001578D01*
X014335Y001494D01*
X006300Y001494D01*
X006300Y007529D01*
X006384Y007446D01*
X006557Y007374D01*
X006743Y007374D01*
X006916Y007446D01*
X007000Y007529D01*
X007000Y006614D01*
X006877Y006614D01*
X006704Y006542D01*
X006572Y006410D01*
X006500Y006238D01*
X006500Y006051D01*
X006572Y005878D01*
X006704Y005746D01*
X006877Y005674D01*
X007063Y005674D01*
X007236Y005746D01*
X007368Y005878D01*
X007440Y006051D01*
X007440Y006238D01*
X007368Y006410D01*
X007300Y006479D01*
X007300Y007488D01*
X007345Y007380D01*
X007446Y007279D01*
X007578Y007224D01*
X007722Y007224D01*
X007854Y007279D01*
X007955Y007380D01*
X008000Y007488D01*
X008000Y004585D01*
X007991Y004581D01*
X007913Y004503D01*
X007870Y004400D01*
X007870Y004288D01*
X007913Y004185D01*
X007991Y004107D01*
X008094Y004064D01*
X008206Y004064D01*
X008309Y004107D01*
X008387Y004185D01*
X008430Y004288D01*
X008430Y004400D01*
X008387Y004503D01*
X008309Y004581D01*
X008300Y004585D01*
X008300Y005882D01*
X008305Y005871D01*
X008353Y005805D01*
X008411Y005747D01*
X008477Y005699D01*
X008550Y005662D01*
X008628Y005637D01*
X008700Y005625D01*
X008700Y006094D01*
X008800Y006094D01*
X008800Y005625D01*
X008872Y005637D01*
X008950Y005662D01*
X009023Y005699D01*
X009089Y005747D01*
X009147Y005805D01*
X009195Y005871D01*
X009232Y005944D01*
X009257Y006022D01*
X009269Y006094D01*
X008800Y006094D01*
X008800Y006194D01*
X009269Y006194D01*
X009257Y006266D01*
X009232Y006344D01*
X009195Y006417D01*
X009147Y006483D01*
X009089Y006541D01*
X009023Y006589D01*
X008950Y006626D01*
X008872Y006651D01*
X008800Y006663D01*
X008800Y006194D01*
X008700Y006194D01*
X008700Y006663D01*
X008628Y006651D01*
X008550Y006626D01*
X008477Y006589D01*
X008411Y006541D01*
X008353Y006483D01*
X008305Y006417D01*
X008300Y006406D01*
X008300Y007488D01*
X008345Y007380D01*
X008446Y007279D01*
X008578Y007224D01*
X008722Y007224D01*
X008854Y007279D01*
X008928Y007353D01*
X009476Y006806D01*
X009410Y006648D01*
X009410Y006461D01*
X009482Y006288D01*
X009614Y006156D01*
X009787Y006084D01*
X009973Y006084D01*
X010146Y006156D01*
X010278Y006288D01*
X010350Y006461D01*
X010350Y006648D01*
X010278Y006820D01*
X010146Y006952D01*
X009973Y007024D01*
X009787Y007024D01*
X009713Y006993D01*
X009010Y007696D01*
X009010Y008176D01*
X008955Y008308D01*
X008854Y008409D01*
X008722Y008464D01*
X008578Y008464D01*
X008446Y008409D01*
X008345Y008308D01*
X008300Y008200D01*
X008300Y008694D01*
X009588Y008694D01*
X010290Y007992D01*
X010290Y007512D01*
X010345Y007380D01*
X010446Y007279D01*
X010578Y007224D01*
X010722Y007224D01*
X010854Y007279D01*
X010955Y007380D01*
X011000Y007488D01*
X011000Y005782D01*
X011088Y005694D01*
X012874Y003908D01*
X012870Y003900D01*
X012870Y003788D01*
X012913Y003685D01*
X012991Y003607D01*
X013094Y003564D01*
X013206Y003564D01*
X013309Y003607D01*
X013387Y003685D01*
X013430Y003788D01*
X013430Y003900D01*
X013387Y004003D01*
X013309Y004081D01*
X013206Y004124D01*
X013094Y004124D01*
X013086Y004120D01*
X012832Y004374D01*
X012863Y004369D01*
X012881Y004369D01*
X012881Y004825D01*
X012425Y004825D01*
X012425Y004807D01*
X012430Y004776D01*
X011300Y005906D01*
X011300Y007488D01*
X011345Y007380D01*
X011446Y007279D01*
X011578Y007224D01*
X011722Y007224D01*
X011854Y007279D01*
X011955Y007380D01*
X012010Y007512D01*
X012010Y008176D01*
X011955Y008308D01*
X011854Y008409D01*
X011722Y008464D01*
X011578Y008464D01*
X011446Y008409D01*
X011345Y008308D01*
X011300Y008200D01*
X011300Y008406D01*
X009010Y010696D01*
X009010Y011176D01*
X008955Y011308D01*
X008854Y011409D01*
X008722Y011464D01*
X008578Y011464D01*
X008446Y011409D01*
X008372Y011335D01*
X007800Y011906D01*
X007800Y012529D01*
X007955Y012374D01*
X008000Y012374D01*
X008000Y012282D01*
X008088Y012194D01*
X009290Y010992D01*
X009290Y010512D01*
X009345Y010380D01*
X009446Y010279D01*
X009578Y010224D01*
X009722Y010224D01*
X009854Y010279D01*
X009955Y010380D01*
X010010Y010512D01*
X010010Y011176D01*
X009955Y011308D01*
X009854Y011409D01*
X009722Y011464D01*
X009578Y011464D01*
X009446Y011409D01*
X009372Y011335D01*
X008332Y012374D01*
X008345Y012374D01*
X008500Y012529D01*
X008500Y012282D01*
X008588Y012194D01*
X009088Y012194D01*
X010290Y010992D01*
X010290Y010512D01*
X010345Y010380D01*
X010446Y010279D01*
X010578Y010224D01*
X010722Y010224D01*
X010854Y010279D01*
X010955Y010380D01*
X011010Y010512D01*
X011010Y011176D01*
X010955Y011308D01*
X010854Y011409D01*
X010722Y011464D01*
X010578Y011464D01*
X010446Y011409D01*
X010372Y011335D01*
X009332Y012374D01*
X009345Y012374D01*
X009620Y012649D01*
X009620Y013039D01*
X009345Y013314D01*
X008955Y013314D01*
X008800Y013159D01*
X008800Y013406D01*
X008588Y013618D01*
X008620Y013649D01*
X008680Y013649D02*
X008955Y013374D01*
X009345Y013374D01*
X009620Y013649D01*
X010133Y013649D01*
X010088Y013694D02*
X011181Y012601D01*
X011173Y012604D01*
X010987Y012604D01*
X010814Y012532D01*
X010682Y012400D01*
X010610Y012228D01*
X010610Y012041D01*
X010682Y011868D01*
X010814Y011736D01*
X010987Y011664D01*
X011173Y011664D01*
X011346Y011736D01*
X011478Y011868D01*
X011500Y011920D01*
X011500Y011782D01*
X011588Y011694D01*
X012290Y010992D01*
X012290Y010512D01*
X012345Y010380D01*
X012446Y010279D01*
X012578Y010224D01*
X012722Y010224D01*
X012854Y010279D01*
X012955Y010380D01*
X013000Y010488D01*
X013000Y008406D01*
X012928Y008335D01*
X012854Y008409D01*
X012722Y008464D01*
X012578Y008464D01*
X012446Y008409D01*
X012345Y008308D01*
X012290Y008176D01*
X012290Y007512D01*
X012345Y007380D01*
X012446Y007279D01*
X012578Y007224D01*
X012722Y007224D01*
X012854Y007279D01*
X012955Y007380D01*
X013010Y007512D01*
X013010Y007992D01*
X013212Y008194D01*
X013300Y008282D01*
X013300Y010368D01*
X013337Y010317D01*
X013383Y010271D01*
X013435Y010233D01*
X013493Y010204D01*
X013554Y010184D01*
X013618Y010174D01*
X013620Y010174D01*
X013620Y010814D01*
X013680Y010814D01*
X013680Y010174D01*
X013682Y010174D01*
X013746Y010184D01*
X013807Y010204D01*
X013865Y010233D01*
X013917Y010271D01*
X013963Y010317D01*
X014000Y010368D01*
X014000Y010282D01*
X015374Y008908D01*
X015370Y008900D01*
X015370Y008788D01*
X015413Y008685D01*
X015491Y008607D01*
X015594Y008564D01*
X015706Y008564D01*
X015809Y008607D01*
X015887Y008685D01*
X015930Y008788D01*
X015930Y008900D01*
X015887Y009003D01*
X015809Y009081D01*
X015706Y009124D01*
X015594Y009124D01*
X015586Y009120D01*
X014300Y010406D01*
X014300Y010488D01*
X014345Y010380D01*
X014446Y010279D01*
X014578Y010224D01*
X014722Y010224D01*
X014854Y010279D01*
X014955Y010380D01*
X015010Y010512D01*
X015010Y011176D01*
X014955Y011308D01*
X014854Y011409D01*
X014800Y011432D01*
X014800Y011982D01*
X014901Y012024D01*
X015000Y012123D01*
X015000Y011282D01*
X015088Y011194D01*
X015290Y010992D01*
X015290Y010512D01*
X015345Y010380D01*
X015446Y010279D01*
X015578Y010224D01*
X015722Y010224D01*
X015854Y010279D01*
X015955Y010380D01*
X016000Y010300D02*
X015875Y010300D01*
X016000Y010202D02*
X014505Y010202D01*
X014425Y010300D02*
X014406Y010300D01*
X014337Y010399D02*
X014308Y010399D01*
X014150Y010344D02*
X015650Y008844D01*
X015903Y008724D02*
X016000Y008724D01*
X016000Y008626D02*
X015827Y008626D01*
X015807Y008429D02*
X016000Y008429D01*
X016000Y008527D02*
X013300Y008527D01*
X013300Y008429D02*
X013493Y008429D01*
X013446Y008409D02*
X013345Y008308D01*
X013290Y008176D01*
X013290Y007696D01*
X013088Y007494D01*
X013000Y007406D01*
X013000Y006263D01*
X012985Y006269D01*
X012815Y006269D01*
X012659Y006204D01*
X012540Y006085D01*
X012475Y005929D01*
X012475Y005759D01*
X012540Y005603D01*
X012659Y005484D01*
X012815Y005419D01*
X012985Y005419D01*
X013141Y005484D01*
X013260Y005603D01*
X013325Y005759D01*
X013325Y005929D01*
X013300Y005989D01*
X013300Y007282D01*
X013372Y007353D01*
X013446Y007279D01*
X013578Y007224D01*
X013722Y007224D01*
X013854Y007279D01*
X013955Y007380D01*
X014010Y007512D01*
X014010Y008176D01*
X013955Y008308D01*
X013854Y008409D01*
X013722Y008464D01*
X013578Y008464D01*
X013446Y008409D01*
X013367Y008330D02*
X013300Y008330D01*
X013313Y008232D02*
X013250Y008232D01*
X013290Y008133D02*
X013151Y008133D01*
X013053Y008035D02*
X013290Y008035D01*
X013290Y007936D02*
X013010Y007936D01*
X013010Y007838D02*
X013290Y007838D01*
X013290Y007739D02*
X013010Y007739D01*
X013010Y007641D02*
X013234Y007641D01*
X013136Y007542D02*
X013010Y007542D01*
X013037Y007444D02*
X012981Y007444D01*
X013000Y007345D02*
X012920Y007345D01*
X013000Y007247D02*
X012776Y007247D01*
X013000Y007148D02*
X011300Y007148D01*
X011300Y007050D02*
X013000Y007050D01*
X013000Y006951D02*
X011300Y006951D01*
X011300Y006853D02*
X013000Y006853D01*
X013000Y006754D02*
X011300Y006754D01*
X011300Y006656D02*
X013000Y006656D01*
X013000Y006557D02*
X011300Y006557D01*
X011300Y006459D02*
X013000Y006459D01*
X013000Y006360D02*
X011300Y006360D01*
X011300Y006262D02*
X012797Y006262D01*
X012618Y006163D02*
X011300Y006163D01*
X011300Y006065D02*
X012531Y006065D01*
X012491Y005966D02*
X011300Y005966D01*
X011339Y005868D02*
X012475Y005868D01*
X012475Y005769D02*
X011437Y005769D01*
X011536Y005671D02*
X012512Y005671D01*
X012571Y005572D02*
X011634Y005572D01*
X011733Y005474D02*
X012684Y005474D01*
X012718Y005284D02*
X012789Y005307D01*
X012863Y005319D01*
X012881Y005319D01*
X012881Y004863D01*
X012881Y004825D01*
X012919Y004825D01*
X012919Y004863D01*
X012881Y004863D01*
X012425Y004863D01*
X012425Y004881D01*
X012437Y004955D01*
X012460Y005026D01*
X012494Y005093D01*
X012538Y005153D01*
X012591Y005206D01*
X012651Y005250D01*
X012718Y005284D01*
X012703Y005277D02*
X011930Y005277D01*
X011831Y005375D02*
X013500Y005375D01*
X013500Y005277D02*
X013097Y005277D01*
X013082Y005284D02*
X013011Y005307D01*
X012937Y005319D01*
X012919Y005319D01*
X012919Y004863D01*
X013375Y004863D01*
X013375Y004881D01*
X013363Y004955D01*
X013340Y005026D01*
X013306Y005093D01*
X013262Y005153D01*
X013209Y005206D01*
X013149Y005250D01*
X013082Y005284D01*
X012919Y005277D02*
X012881Y005277D01*
X012881Y005178D02*
X012919Y005178D01*
X012919Y005080D02*
X012881Y005080D01*
X012881Y004981D02*
X012919Y004981D01*
X012919Y004883D02*
X012881Y004883D01*
X012919Y004825D02*
X013375Y004825D01*
X013375Y004807D01*
X013363Y004733D01*
X013340Y004662D01*
X013306Y004595D01*
X013262Y004535D01*
X013209Y004482D01*
X013149Y004438D01*
X013082Y004404D01*
X013011Y004381D01*
X012937Y004369D01*
X012919Y004369D01*
X012919Y004825D01*
X012919Y004784D02*
X012881Y004784D01*
X012881Y004686D02*
X012919Y004686D01*
X012919Y004587D02*
X012881Y004587D01*
X012881Y004489D02*
X012919Y004489D01*
X012919Y004390D02*
X012881Y004390D01*
X012915Y004292D02*
X013500Y004292D01*
X013500Y004390D02*
X013040Y004390D01*
X013013Y004193D02*
X013500Y004193D01*
X013500Y004095D02*
X013277Y004095D01*
X013390Y003996D02*
X013500Y003996D01*
X013500Y003898D02*
X013430Y003898D01*
X013430Y003799D02*
X013500Y003799D01*
X013500Y003701D02*
X013394Y003701D01*
X013297Y003602D02*
X013500Y003602D01*
X013500Y003504D02*
X011703Y003504D01*
X011604Y003602D02*
X013003Y003602D01*
X012906Y003701D02*
X011551Y003701D01*
X011537Y003669D02*
X011575Y003759D01*
X011575Y003929D01*
X011510Y004085D01*
X011391Y004204D01*
X011235Y004269D01*
X011065Y004269D01*
X010909Y004204D01*
X010800Y004095D01*
X010800Y004593D01*
X010909Y004484D01*
X011065Y004419D01*
X011235Y004419D01*
X011391Y004484D01*
X011510Y004603D01*
X011575Y004759D01*
X011575Y004929D01*
X011510Y005085D01*
X011391Y005204D01*
X011235Y005269D01*
X011065Y005269D01*
X010909Y005204D01*
X010800Y005095D01*
X010800Y006906D01*
X010712Y006994D01*
X010010Y007696D01*
X010010Y008176D01*
X009955Y008308D01*
X009854Y008409D01*
X009722Y008464D01*
X009578Y008464D01*
X009446Y008409D01*
X009345Y008308D01*
X009290Y008176D01*
X009290Y007512D01*
X009345Y007380D01*
X009446Y007279D01*
X009578Y007224D01*
X009722Y007224D01*
X009854Y007279D01*
X009928Y007353D01*
X010500Y006782D01*
X010500Y002763D01*
X010473Y002774D01*
X010287Y002774D01*
X010114Y002702D01*
X009982Y002570D01*
X009910Y002398D01*
X009910Y002211D01*
X009982Y002038D01*
X010114Y001906D01*
X010287Y001834D01*
X010473Y001834D01*
X010646Y001906D01*
X010778Y002038D01*
X010850Y002211D01*
X010850Y002398D01*
X010800Y002518D01*
X010800Y003593D01*
X010909Y003484D01*
X011065Y003419D01*
X011235Y003419D01*
X011325Y003457D01*
X012000Y002782D01*
X012000Y002774D01*
X011969Y002774D01*
X011910Y002715D01*
X011910Y001893D01*
X011969Y001834D01*
X012791Y001834D01*
X012850Y001893D01*
X012850Y002715D01*
X012791Y002774D01*
X012300Y002774D01*
X012300Y002906D01*
X012212Y002994D01*
X011537Y003669D01*
X011575Y003799D02*
X012870Y003799D01*
X012870Y003898D02*
X011575Y003898D01*
X011547Y003996D02*
X012786Y003996D01*
X012687Y004095D02*
X011501Y004095D01*
X011402Y004193D02*
X012589Y004193D01*
X012490Y004292D02*
X010800Y004292D01*
X010800Y004390D02*
X012392Y004390D01*
X012293Y004489D02*
X011396Y004489D01*
X011494Y004587D02*
X012195Y004587D01*
X012096Y004686D02*
X011544Y004686D01*
X011575Y004784D02*
X011998Y004784D01*
X011899Y004883D02*
X011575Y004883D01*
X011553Y004981D02*
X011801Y004981D01*
X011702Y005080D02*
X011512Y005080D01*
X011604Y005178D02*
X011417Y005178D01*
X011505Y005277D02*
X010800Y005277D01*
X010800Y005375D02*
X011407Y005375D01*
X011308Y005474D02*
X010800Y005474D01*
X010800Y005572D02*
X011210Y005572D01*
X011111Y005671D02*
X010800Y005671D01*
X010800Y005769D02*
X011013Y005769D01*
X011000Y005868D02*
X010800Y005868D01*
X010800Y005966D02*
X011000Y005966D01*
X011000Y006065D02*
X010800Y006065D01*
X010800Y006163D02*
X011000Y006163D01*
X011000Y006262D02*
X010800Y006262D01*
X010800Y006360D02*
X011000Y006360D01*
X011000Y006459D02*
X010800Y006459D01*
X010800Y006557D02*
X011000Y006557D01*
X011000Y006656D02*
X010800Y006656D01*
X010800Y006754D02*
X011000Y006754D01*
X011000Y006853D02*
X010800Y006853D01*
X010755Y006951D02*
X011000Y006951D01*
X011000Y007050D02*
X010657Y007050D01*
X010558Y007148D02*
X011000Y007148D01*
X011000Y007247D02*
X010776Y007247D01*
X010920Y007345D02*
X011000Y007345D01*
X011000Y007444D02*
X010981Y007444D01*
X011300Y007444D02*
X011319Y007444D01*
X011300Y007345D02*
X011380Y007345D01*
X011300Y007247D02*
X011524Y007247D01*
X011776Y007247D02*
X012524Y007247D01*
X012380Y007345D02*
X011920Y007345D01*
X011981Y007444D02*
X012319Y007444D01*
X012290Y007542D02*
X012010Y007542D01*
X012010Y007641D02*
X012290Y007641D01*
X012290Y007739D02*
X012010Y007739D01*
X012010Y007838D02*
X012290Y007838D01*
X012290Y007936D02*
X012010Y007936D01*
X012010Y008035D02*
X012290Y008035D01*
X012290Y008133D02*
X012010Y008133D01*
X011987Y008232D02*
X012313Y008232D01*
X012367Y008330D02*
X011933Y008330D01*
X011807Y008429D02*
X012493Y008429D01*
X012807Y008429D02*
X013000Y008429D01*
X013000Y008527D02*
X011179Y008527D01*
X011081Y008626D02*
X013000Y008626D01*
X013000Y008724D02*
X010982Y008724D01*
X010884Y008823D02*
X013000Y008823D01*
X013000Y008921D02*
X010785Y008921D01*
X010687Y009020D02*
X013000Y009020D01*
X013000Y009118D02*
X010588Y009118D01*
X010490Y009217D02*
X013000Y009217D01*
X013000Y009315D02*
X010391Y009315D01*
X010293Y009414D02*
X013000Y009414D01*
X013000Y009512D02*
X010194Y009512D01*
X010096Y009611D02*
X013000Y009611D01*
X013000Y009709D02*
X009997Y009709D01*
X009899Y009808D02*
X013000Y009808D01*
X013000Y009906D02*
X009800Y009906D01*
X009702Y010005D02*
X013000Y010005D01*
X013000Y010103D02*
X009603Y010103D01*
X009505Y010202D02*
X013000Y010202D01*
X013000Y010300D02*
X012875Y010300D01*
X012963Y010399D02*
X013000Y010399D01*
X013300Y010300D02*
X013354Y010300D01*
X013300Y010202D02*
X013500Y010202D01*
X013620Y010202D02*
X013680Y010202D01*
X013680Y010300D02*
X013620Y010300D01*
X013620Y010399D02*
X013680Y010399D01*
X013680Y010497D02*
X013620Y010497D01*
X013620Y010596D02*
X013680Y010596D01*
X013680Y010694D02*
X013620Y010694D01*
X013620Y010793D02*
X013680Y010793D01*
X013650Y010844D02*
X013650Y008844D01*
X014650Y007844D01*
X014650Y004844D01*
X014150Y004344D01*
X014169Y004325D02*
X014625Y004325D01*
X014625Y004307D01*
X014613Y004233D01*
X014590Y004162D01*
X014556Y004095D01*
X014512Y004035D01*
X014459Y003982D01*
X014399Y003938D01*
X014332Y003904D01*
X014261Y003881D01*
X014187Y003869D01*
X014169Y003869D01*
X014169Y004325D01*
X014169Y004292D02*
X014131Y004292D01*
X014169Y004363D02*
X014625Y004363D01*
X014625Y004381D01*
X014613Y004455D01*
X014590Y004526D01*
X014556Y004593D01*
X014512Y004653D01*
X014459Y004706D01*
X014399Y004750D01*
X014332Y004784D01*
X014261Y004807D01*
X014187Y004819D01*
X014169Y004819D01*
X014169Y004363D01*
X014169Y004390D02*
X014131Y004390D01*
X014131Y004489D02*
X014169Y004489D01*
X014169Y004587D02*
X014131Y004587D01*
X014131Y004686D02*
X014169Y004686D01*
X014169Y004784D02*
X014131Y004784D01*
X013967Y004784D02*
X013800Y004784D01*
X013800Y004686D02*
X013820Y004686D01*
X013800Y004883D02*
X015000Y004883D01*
X015000Y004981D02*
X013800Y004981D01*
X013800Y005080D02*
X015000Y005080D01*
X015000Y005178D02*
X013800Y005178D01*
X013800Y005277D02*
X015000Y005277D01*
X015000Y005375D02*
X013800Y005375D01*
X013800Y005474D02*
X015000Y005474D01*
X015000Y005572D02*
X013800Y005572D01*
X013872Y005671D02*
X015000Y005671D01*
X014874Y005769D02*
X013922Y005769D01*
X013930Y005868D02*
X014784Y005868D01*
X014743Y005966D02*
X013903Y005966D01*
X013825Y006065D02*
X014725Y006065D01*
X014725Y006163D02*
X013300Y006163D01*
X013300Y006065D02*
X013475Y006065D01*
X013397Y005966D02*
X013309Y005966D01*
X013325Y005868D02*
X013370Y005868D01*
X013378Y005769D02*
X013325Y005769D01*
X013288Y005671D02*
X013428Y005671D01*
X013500Y005572D02*
X013229Y005572D01*
X013116Y005474D02*
X013500Y005474D01*
X013500Y005178D02*
X013238Y005178D01*
X013313Y005080D02*
X013500Y005080D01*
X013500Y004981D02*
X013355Y004981D01*
X013375Y004883D02*
X013500Y004883D01*
X013500Y004784D02*
X013371Y004784D01*
X013348Y004686D02*
X013500Y004686D01*
X013500Y004587D02*
X013300Y004587D01*
X013216Y004489D02*
X013500Y004489D01*
X014131Y004193D02*
X014169Y004193D01*
X014169Y004095D02*
X014131Y004095D01*
X014131Y003996D02*
X014169Y003996D01*
X014169Y003898D02*
X014131Y003898D01*
X013987Y003898D02*
X013800Y003898D01*
X013800Y003996D02*
X013826Y003996D01*
X013800Y003799D02*
X015500Y003799D01*
X015500Y003701D02*
X013800Y003701D01*
X013800Y003602D02*
X015500Y003602D01*
X015500Y003504D02*
X013800Y003504D01*
X013800Y003405D02*
X015500Y003405D01*
X015500Y003307D02*
X013800Y003307D01*
X013800Y003208D02*
X015500Y003208D01*
X015500Y003110D02*
X013800Y003110D01*
X013800Y003011D02*
X015500Y003011D01*
X015500Y002913D02*
X013800Y002913D01*
X013892Y002814D02*
X015500Y002814D01*
X015566Y002716D02*
X013991Y002716D01*
X014089Y002617D02*
X016721Y002617D01*
X016890Y002844D02*
X015650Y002844D01*
X015650Y006844D01*
X015391Y006951D02*
X015300Y006951D01*
X015300Y006853D02*
X015370Y006853D01*
X015384Y006754D02*
X015300Y006754D01*
X015300Y006656D02*
X015443Y006656D01*
X015500Y006557D02*
X015300Y006557D01*
X015381Y006459D02*
X015500Y006459D01*
X015500Y006360D02*
X015485Y006360D01*
X015800Y006360D02*
X016000Y006360D01*
X016000Y006262D02*
X015800Y006262D01*
X015800Y006163D02*
X016000Y006163D01*
X016000Y006065D02*
X015800Y006065D01*
X015800Y005966D02*
X016000Y005966D01*
X016000Y005868D02*
X015800Y005868D01*
X015800Y005769D02*
X016013Y005769D01*
X016111Y005671D02*
X015800Y005671D01*
X015800Y005572D02*
X016210Y005572D01*
X016308Y005474D02*
X015800Y005474D01*
X015800Y005375D02*
X016407Y005375D01*
X016505Y005277D02*
X015800Y005277D01*
X015800Y005178D02*
X016604Y005178D01*
X016702Y005080D02*
X015800Y005080D01*
X015800Y004981D02*
X016801Y004981D01*
X016899Y004883D02*
X015800Y004883D01*
X015800Y004784D02*
X016467Y004784D01*
X016468Y004784D02*
X016401Y004750D01*
X016341Y004706D01*
X016288Y004653D01*
X016244Y004593D01*
X016210Y004526D01*
X016187Y004455D01*
X016175Y004381D01*
X016175Y004363D01*
X016631Y004363D01*
X016631Y004819D01*
X016613Y004819D01*
X016539Y004807D01*
X016468Y004784D01*
X016631Y004784D02*
X016669Y004784D01*
X016669Y004686D02*
X016631Y004686D01*
X016631Y004587D02*
X016669Y004587D01*
X016669Y004489D02*
X016631Y004489D01*
X016631Y004390D02*
X016669Y004390D01*
X016631Y004325D02*
X016175Y004325D01*
X016175Y004307D01*
X016187Y004233D01*
X016210Y004162D01*
X016244Y004095D01*
X016288Y004035D01*
X016341Y003982D01*
X016401Y003938D01*
X016468Y003904D01*
X016539Y003881D01*
X016613Y003869D01*
X016631Y003869D01*
X016631Y004325D01*
X016631Y004292D02*
X016669Y004292D01*
X016669Y004193D02*
X016631Y004193D01*
X016631Y004095D02*
X016669Y004095D01*
X016669Y003996D02*
X016631Y003996D01*
X016631Y003898D02*
X016669Y003898D01*
X016813Y003898D02*
X017000Y003898D01*
X017000Y003996D02*
X016974Y003996D01*
X017000Y003799D02*
X015800Y003799D01*
X015800Y003701D02*
X017000Y003701D01*
X017000Y003602D02*
X015800Y003602D01*
X015800Y003504D02*
X017000Y003504D01*
X017000Y003405D02*
X015800Y003405D01*
X015800Y003307D02*
X017000Y003307D01*
X017074Y003208D02*
X015800Y003208D01*
X015800Y003110D02*
X016799Y003110D01*
X016661Y003011D02*
X015800Y003011D01*
X016981Y003110D02*
X017172Y003110D01*
X017119Y003011D02*
X017271Y003011D01*
X017369Y002913D02*
X017165Y002913D01*
X017170Y002814D02*
X017468Y002814D01*
X017566Y002716D02*
X017140Y002716D01*
X017059Y002617D02*
X017665Y002617D01*
X017763Y002519D02*
X014188Y002519D01*
X014286Y002420D02*
X017862Y002420D01*
X017960Y002322D02*
X014385Y002322D01*
X014157Y002125D02*
X012850Y002125D01*
X012850Y002223D02*
X014059Y002223D01*
X013960Y002322D02*
X012850Y002322D01*
X012850Y002420D02*
X013862Y002420D01*
X013763Y002519D02*
X012850Y002519D01*
X012850Y002617D02*
X013665Y002617D01*
X013566Y002716D02*
X012850Y002716D01*
X012300Y002814D02*
X013500Y002814D01*
X013500Y002913D02*
X012294Y002913D01*
X012195Y003011D02*
X013500Y003011D01*
X013500Y003110D02*
X012097Y003110D01*
X011998Y003208D02*
X013500Y003208D01*
X013500Y003307D02*
X011900Y003307D01*
X011801Y003405D02*
X013500Y003405D01*
X013150Y003844D02*
X011150Y005844D01*
X011150Y008344D01*
X008650Y010844D01*
X007650Y011844D01*
X007650Y013344D01*
X007150Y013844D01*
X007620Y013846D02*
X007680Y013846D01*
X007680Y013748D02*
X007620Y013748D01*
X007620Y013649D02*
X007588Y013618D01*
X007800Y013406D01*
X007800Y013159D01*
X007955Y013314D01*
X008345Y013314D01*
X008500Y013159D01*
X008500Y013282D01*
X008376Y013406D01*
X008345Y013374D01*
X007955Y013374D01*
X007680Y013649D01*
X007656Y013551D02*
X007779Y013551D01*
X007754Y013452D02*
X007877Y013452D01*
X007800Y013354D02*
X008428Y013354D01*
X008404Y013255D02*
X008500Y013255D01*
X008650Y013344D02*
X008150Y013844D01*
X007680Y013945D02*
X007620Y013945D01*
X007616Y014043D02*
X007684Y014043D01*
X007783Y014142D02*
X007517Y014142D01*
X007419Y014240D02*
X007881Y014240D01*
X008419Y014240D02*
X008881Y014240D01*
X008783Y014142D02*
X008517Y014142D01*
X008616Y014043D02*
X008684Y014043D01*
X008680Y013945D02*
X008620Y013945D01*
X008620Y013846D02*
X008680Y013846D01*
X008680Y013748D02*
X008620Y013748D01*
X008656Y013551D02*
X008779Y013551D01*
X008754Y013452D02*
X008877Y013452D01*
X008800Y013354D02*
X010428Y013354D01*
X010330Y013452D02*
X009423Y013452D01*
X009521Y013551D02*
X010231Y013551D01*
X010088Y013694D02*
X009620Y013694D01*
X009620Y013649D01*
X009150Y013844D02*
X010150Y013844D01*
X011650Y012344D01*
X011650Y011844D01*
X012650Y010844D01*
X012290Y010891D02*
X012010Y010891D01*
X012010Y010793D02*
X012290Y010793D01*
X012290Y010694D02*
X012010Y010694D01*
X012010Y010596D02*
X012290Y010596D01*
X012296Y010497D02*
X012004Y010497D01*
X012010Y010512D02*
X012010Y011176D01*
X011955Y011308D01*
X011854Y011409D01*
X011722Y011464D01*
X011578Y011464D01*
X011446Y011409D01*
X011345Y011308D01*
X011290Y011176D01*
X011290Y010512D01*
X011345Y010380D01*
X011446Y010279D01*
X011578Y010224D01*
X011722Y010224D01*
X011854Y010279D01*
X011955Y010380D01*
X012010Y010512D01*
X011963Y010399D02*
X012337Y010399D01*
X012425Y010300D02*
X011875Y010300D01*
X011425Y010300D02*
X010875Y010300D01*
X010963Y010399D02*
X011337Y010399D01*
X011296Y010497D02*
X011004Y010497D01*
X011010Y010596D02*
X011290Y010596D01*
X011290Y010694D02*
X011010Y010694D01*
X011010Y010793D02*
X011290Y010793D01*
X011290Y010891D02*
X011010Y010891D01*
X011010Y010990D02*
X011290Y010990D01*
X011290Y011088D02*
X011010Y011088D01*
X011005Y011187D02*
X011295Y011187D01*
X011335Y011285D02*
X010965Y011285D01*
X010880Y011384D02*
X011420Y011384D01*
X011701Y011581D02*
X010126Y011581D01*
X010027Y011679D02*
X010950Y011679D01*
X010772Y011778D02*
X009929Y011778D01*
X009830Y011876D02*
X010678Y011876D01*
X010637Y011975D02*
X009732Y011975D01*
X009633Y012073D02*
X010610Y012073D01*
X010610Y012172D02*
X009535Y012172D01*
X009436Y012270D02*
X010628Y012270D01*
X010668Y012369D02*
X009338Y012369D01*
X009438Y012467D02*
X010748Y012467D01*
X010894Y012566D02*
X009536Y012566D01*
X009620Y012664D02*
X011118Y012664D01*
X011019Y012763D02*
X009620Y012763D01*
X009620Y012861D02*
X010921Y012861D01*
X010822Y012960D02*
X009620Y012960D01*
X009601Y013058D02*
X010724Y013058D01*
X010625Y013157D02*
X009502Y013157D01*
X009404Y013255D02*
X010527Y013255D01*
X010754Y013452D02*
X014037Y013452D01*
X014029Y013456D02*
X014064Y013437D01*
X014102Y013426D01*
X014442Y013426D01*
X014442Y013896D01*
X013972Y013896D01*
X013972Y013557D01*
X013982Y013518D01*
X014002Y013484D01*
X014029Y013456D01*
X013973Y013551D02*
X010656Y013551D01*
X010557Y013649D02*
X013972Y013649D01*
X013972Y013748D02*
X012358Y013748D01*
X012457Y013846D02*
X013972Y013846D01*
X013972Y013996D02*
X014442Y013996D01*
X014442Y014466D01*
X014102Y014466D01*
X014064Y014456D01*
X014029Y014436D01*
X014002Y014408D01*
X013982Y014374D01*
X013972Y014336D01*
X013972Y013996D01*
X013972Y014043D02*
X012550Y014043D01*
X012550Y014142D02*
X013972Y014142D01*
X013972Y014240D02*
X012545Y014240D01*
X012504Y014339D02*
X013972Y014339D01*
X014031Y014437D02*
X012442Y014437D01*
X011615Y014240D02*
X009419Y014240D01*
X009517Y014142D02*
X011610Y014142D01*
X011610Y014043D02*
X009616Y014043D01*
X010262Y013945D02*
X011650Y013945D01*
X011703Y013846D02*
X010360Y013846D01*
X010459Y013748D02*
X011802Y013748D01*
X012510Y013945D02*
X014442Y013945D01*
X014442Y014043D02*
X014542Y014043D01*
X014542Y014142D02*
X014442Y014142D01*
X014442Y014240D02*
X014542Y014240D01*
X014542Y014339D02*
X014442Y014339D01*
X014442Y014437D02*
X014542Y014437D01*
X014542Y013846D02*
X014442Y013846D01*
X014442Y013748D02*
X014542Y013748D01*
X014542Y013649D02*
X014442Y013649D01*
X014442Y013551D02*
X014542Y013551D01*
X014542Y013452D02*
X014442Y013452D01*
X015760Y013551D02*
X016223Y013551D01*
X016124Y013649D02*
X015859Y013649D01*
X015918Y013748D02*
X016065Y013748D01*
X016024Y013846D02*
X015959Y013846D01*
X016863Y014240D02*
X017121Y014240D01*
X017064Y014142D02*
X016919Y014142D01*
X016960Y014043D02*
X017023Y014043D01*
X017022Y013945D02*
X016962Y013945D01*
X016959Y013846D02*
X017024Y013846D01*
X017065Y013748D02*
X016959Y013748D01*
X017057Y013649D02*
X017124Y013649D01*
X017156Y013551D02*
X017223Y013551D01*
X017254Y013452D02*
X018330Y013452D01*
X018831Y013551D02*
X019000Y013551D01*
X019000Y013649D02*
X018918Y013649D01*
X018974Y013748D02*
X019000Y013748D01*
X019000Y013255D02*
X017300Y013255D01*
X017300Y013157D02*
X019000Y013157D01*
X019000Y013058D02*
X017300Y013058D01*
X017300Y012960D02*
X019000Y012960D01*
X019000Y012861D02*
X017300Y012861D01*
X017300Y012763D02*
X019000Y012763D01*
X019000Y012664D02*
X017300Y012664D01*
X017300Y012566D02*
X019000Y012566D01*
X019000Y012467D02*
X017300Y012467D01*
X017300Y012369D02*
X019000Y012369D01*
X019000Y012270D02*
X017300Y012270D01*
X017300Y012172D02*
X019000Y012172D01*
X019000Y012073D02*
X017300Y012073D01*
X017300Y011975D02*
X019000Y011975D01*
X019000Y011876D02*
X017300Y011876D01*
X017300Y011778D02*
X019000Y011778D01*
X019000Y011679D02*
X017300Y011679D01*
X017300Y011581D02*
X019000Y011581D01*
X019000Y011482D02*
X017300Y011482D01*
X017300Y011384D02*
X017420Y011384D01*
X017335Y011285D02*
X017300Y011285D01*
X017000Y011285D02*
X016965Y011285D01*
X017000Y011384D02*
X016880Y011384D01*
X017000Y011482D02*
X016500Y011482D01*
X016420Y011384D02*
X016402Y011384D01*
X016335Y011285D02*
X016303Y011285D01*
X016150Y011344D02*
X016150Y005844D01*
X017150Y004844D01*
X017150Y003344D01*
X018150Y002344D01*
X018000Y002223D02*
X017936Y002223D01*
X017364Y002223D02*
X015936Y002223D01*
X016034Y002125D02*
X017266Y002125D01*
X017217Y002026D02*
X016083Y002026D01*
X016150Y001844D02*
X016150Y001344D01*
X006150Y001344D01*
X006150Y009344D01*
X007650Y010844D01*
X007150Y011344D01*
X007150Y012844D01*
X006680Y012861D02*
X001300Y012861D01*
X001300Y012763D02*
X006680Y012763D01*
X006680Y012664D02*
X001300Y012664D01*
X001300Y012566D02*
X006764Y012566D01*
X006680Y012649D02*
X006955Y012374D01*
X007000Y012374D01*
X007000Y011282D01*
X007088Y011194D01*
X007290Y010992D01*
X007290Y010696D01*
X006010Y009416D01*
X006010Y009992D01*
X006440Y010422D01*
X006557Y010374D01*
X006743Y010374D01*
X006916Y010446D01*
X007048Y010578D01*
X007120Y010751D01*
X007120Y010938D01*
X007048Y011110D01*
X006916Y011242D01*
X006743Y011314D01*
X006557Y011314D01*
X006384Y011242D01*
X006252Y011110D01*
X006180Y010938D01*
X006180Y010751D01*
X006228Y010634D01*
X005710Y010116D01*
X005710Y006944D01*
X003588Y006944D01*
X003500Y006856D01*
X003500Y006515D01*
X003423Y006483D01*
X003311Y006371D01*
X003250Y006224D01*
X003250Y005656D01*
X003100Y005506D01*
X003100Y005509D01*
X003100Y005794D01*
X002700Y005794D01*
X002700Y005096D01*
X002755Y005105D01*
X002823Y005127D01*
X002886Y005159D01*
X002943Y005201D01*
X002993Y005251D01*
X003000Y005260D01*
X003000Y004269D01*
X002534Y004269D01*
X002475Y004210D01*
X002475Y003478D01*
X002534Y003419D01*
X003266Y003419D01*
X003325Y003478D01*
X003325Y004210D01*
X003300Y004235D01*
X003300Y005282D01*
X003323Y005305D01*
X003423Y005205D01*
X003570Y005144D01*
X003730Y005144D01*
X003877Y005205D01*
X003989Y005317D01*
X004050Y005464D01*
X004050Y006224D01*
X003989Y006371D01*
X003877Y006483D01*
X003800Y006515D01*
X003800Y006644D01*
X005922Y006644D01*
X006000Y006722D01*
X006000Y006095D01*
X005891Y006204D01*
X005735Y006269D01*
X005565Y006269D01*
X005409Y006204D01*
X005290Y006085D01*
X005252Y005994D01*
X005050Y005994D01*
X005050Y006224D01*
X004989Y006371D01*
X004877Y006483D01*
X004730Y006544D01*
X004570Y006544D01*
X004423Y006483D01*
X004311Y006371D01*
X004250Y006224D01*
X004250Y005464D01*
X004311Y005317D01*
X004423Y005205D01*
X004500Y005173D01*
X004500Y003406D01*
X004268Y003174D01*
X003749Y003174D01*
X003690Y003115D01*
X003690Y002293D01*
X003749Y002234D01*
X004571Y002234D01*
X004630Y002293D01*
X004630Y003112D01*
X004712Y003194D01*
X004800Y003282D01*
X004800Y005173D01*
X004877Y005205D01*
X004989Y005317D01*
X005050Y005464D01*
X005050Y005694D01*
X005252Y005694D01*
X005290Y005603D01*
X005409Y005484D01*
X005565Y005419D01*
X005735Y005419D01*
X005891Y005484D01*
X006000Y005593D01*
X006000Y005166D01*
X005959Y005206D01*
X005899Y005250D01*
X005832Y005284D01*
X005761Y005307D01*
X005687Y005319D01*
X005669Y005319D01*
X005669Y004863D01*
X005631Y004863D01*
X005631Y004825D01*
X005669Y004825D01*
X005669Y004369D01*
X005687Y004369D01*
X005761Y004381D01*
X005832Y004404D01*
X005899Y004438D01*
X005959Y004482D01*
X006000Y004522D01*
X006000Y001282D01*
X006088Y001194D01*
X016212Y001194D01*
X016300Y001282D01*
X016300Y001694D01*
X017203Y001694D01*
X017252Y001578D01*
X017384Y001446D01*
X017557Y001374D01*
X017743Y001374D01*
X017916Y001446D01*
X018000Y001529D01*
X018000Y001282D01*
X018088Y001194D01*
X024712Y001194D01*
X024800Y001282D01*
X024800Y001374D01*
X024845Y001374D01*
X025000Y001529D01*
X025000Y001282D01*
X025088Y001194D01*
X029212Y001194D01*
X029300Y001282D01*
X029800Y001782D01*
X029800Y012906D01*
X029712Y012994D01*
X029426Y013280D01*
X029430Y013288D01*
X029430Y013400D01*
X029398Y013476D01*
X029585Y013476D01*
X029758Y013548D01*
X029890Y013680D01*
X029962Y013853D01*
X029962Y014040D01*
X029890Y014213D01*
X029758Y014345D01*
X029585Y014416D01*
X029398Y014416D01*
X029225Y014345D01*
X029093Y014213D01*
X029022Y014040D01*
X029022Y013853D01*
X029093Y013680D01*
X029149Y013624D01*
X029094Y013624D01*
X028991Y013581D01*
X028913Y013503D01*
X028870Y013400D01*
X028870Y013288D01*
X028913Y013185D01*
X028991Y013107D01*
X029094Y013064D01*
X029206Y013064D01*
X029214Y013068D01*
X029500Y012782D01*
X029500Y011200D01*
X029455Y011308D01*
X029354Y011409D01*
X029222Y011464D01*
X029078Y011464D01*
X028946Y011409D01*
X028845Y011308D01*
X028800Y011200D01*
X028800Y013590D01*
X028890Y013680D01*
X028962Y013853D01*
X028962Y014040D01*
X028890Y014213D01*
X028758Y014345D01*
X028585Y014416D01*
X028398Y014416D01*
X028225Y014345D01*
X028093Y014213D01*
X028022Y014040D01*
X028022Y013928D01*
X028000Y013906D01*
X028000Y013882D01*
X027988Y013860D01*
X028000Y013822D01*
X028000Y011432D01*
X027946Y011409D01*
X027845Y011308D01*
X027800Y011200D01*
X027800Y011285D02*
X027835Y011285D01*
X027800Y011384D02*
X027920Y011384D01*
X028000Y011482D02*
X027800Y011482D01*
X027800Y011581D02*
X028000Y011581D01*
X028000Y011679D02*
X027800Y011679D01*
X027800Y011778D02*
X028000Y011778D01*
X028000Y011876D02*
X027800Y011876D01*
X027800Y011975D02*
X028000Y011975D01*
X028000Y012073D02*
X027800Y012073D01*
X027800Y012172D02*
X028000Y012172D01*
X028000Y012270D02*
X027800Y012270D01*
X027800Y012369D02*
X028000Y012369D01*
X028000Y012467D02*
X027800Y012467D01*
X027800Y012566D02*
X028000Y012566D01*
X028000Y012664D02*
X027800Y012664D01*
X027800Y012763D02*
X028000Y012763D01*
X028000Y012861D02*
X027800Y012861D01*
X027800Y012960D02*
X028000Y012960D01*
X028000Y013058D02*
X027800Y013058D01*
X027800Y013157D02*
X028000Y013157D01*
X028000Y013255D02*
X027800Y013255D01*
X027800Y013354D02*
X028000Y013354D01*
X028000Y013452D02*
X027800Y013452D01*
X027800Y013551D02*
X028000Y013551D01*
X028000Y013649D02*
X027859Y013649D01*
X027918Y013748D02*
X028000Y013748D01*
X027993Y013846D02*
X027959Y013846D01*
X027962Y013945D02*
X028022Y013945D01*
X028023Y014043D02*
X027960Y014043D01*
X027919Y014142D02*
X028064Y014142D01*
X028121Y014240D02*
X027863Y014240D01*
X027764Y014339D02*
X028219Y014339D01*
X028764Y014339D02*
X029219Y014339D01*
X029121Y014240D02*
X028863Y014240D01*
X028919Y014142D02*
X029064Y014142D01*
X029023Y014043D02*
X028960Y014043D01*
X028962Y013945D02*
X029022Y013945D01*
X029024Y013846D02*
X028959Y013846D01*
X028918Y013748D02*
X029065Y013748D01*
X029124Y013649D02*
X028859Y013649D01*
X028800Y013551D02*
X028961Y013551D01*
X028892Y013452D02*
X028800Y013452D01*
X028800Y013354D02*
X028870Y013354D01*
X028884Y013255D02*
X028800Y013255D01*
X028800Y013157D02*
X028941Y013157D01*
X028800Y013058D02*
X029224Y013058D01*
X029322Y012960D02*
X028800Y012960D01*
X028800Y012861D02*
X029421Y012861D01*
X029500Y012763D02*
X028800Y012763D01*
X028800Y012664D02*
X029500Y012664D01*
X029500Y012566D02*
X028800Y012566D01*
X028800Y012467D02*
X029500Y012467D01*
X029500Y012369D02*
X028800Y012369D01*
X028800Y012270D02*
X029500Y012270D01*
X029500Y012172D02*
X028800Y012172D01*
X028800Y012073D02*
X029500Y012073D01*
X029500Y011975D02*
X028800Y011975D01*
X028800Y011876D02*
X029500Y011876D01*
X029500Y011778D02*
X028800Y011778D01*
X028800Y011679D02*
X029500Y011679D01*
X029500Y011581D02*
X028800Y011581D01*
X028800Y011482D02*
X029500Y011482D01*
X029500Y011384D02*
X029380Y011384D01*
X029465Y011285D02*
X029500Y011285D01*
X029800Y011285D02*
X030660Y011285D01*
X030644Y011269D02*
X030576Y011104D01*
X030576Y010925D01*
X030644Y010759D01*
X030771Y010633D01*
X030936Y010564D01*
X031115Y010564D01*
X031280Y010633D01*
X031407Y010759D01*
X031476Y010925D01*
X031476Y011104D01*
X031407Y011269D01*
X031280Y011396D01*
X031115Y011464D01*
X030936Y011464D01*
X030771Y011396D01*
X030644Y011269D01*
X030610Y011187D02*
X029800Y011187D01*
X029800Y011088D02*
X030576Y011088D01*
X030576Y010990D02*
X029800Y010990D01*
X029800Y010891D02*
X030589Y010891D01*
X030630Y010793D02*
X029800Y010793D01*
X029800Y010694D02*
X030709Y010694D01*
X030860Y010596D02*
X029800Y010596D01*
X029800Y010497D02*
X032492Y010497D01*
X032492Y010399D02*
X032273Y010399D01*
X032280Y010396D02*
X032115Y010464D01*
X031936Y010464D01*
X031771Y010396D01*
X031644Y010269D01*
X031576Y010104D01*
X031576Y009925D01*
X031644Y009759D01*
X031771Y009633D01*
X031936Y009564D01*
X032115Y009564D01*
X032280Y009633D01*
X032407Y009759D01*
X032476Y009925D01*
X032476Y010104D01*
X032407Y010269D01*
X032280Y010396D01*
X032376Y010300D02*
X032492Y010300D01*
X032492Y010202D02*
X032435Y010202D01*
X032476Y010103D02*
X032492Y010103D01*
X032492Y010005D02*
X032476Y010005D01*
X032468Y009906D02*
X032492Y009906D01*
X032492Y009808D02*
X032427Y009808D01*
X032492Y009709D02*
X032357Y009709D01*
X032227Y009611D02*
X032492Y009611D01*
X032492Y009512D02*
X030736Y009512D01*
X030771Y009396D02*
X030936Y009464D01*
X031115Y009464D01*
X031280Y009396D01*
X031407Y009269D01*
X031476Y009104D01*
X031476Y008925D01*
X031407Y008759D01*
X031280Y008633D01*
X031115Y008564D01*
X030936Y008564D01*
X030771Y008633D01*
X030644Y008759D01*
X030576Y008925D01*
X030576Y009104D01*
X030644Y009269D01*
X030771Y009396D01*
X030814Y009414D02*
X030637Y009414D01*
X030690Y009315D02*
X030539Y009315D01*
X030622Y009217D02*
X030440Y009217D01*
X030342Y009118D02*
X030582Y009118D01*
X030576Y009020D02*
X030300Y009020D01*
X030300Y009076D02*
X030831Y009607D01*
X030936Y009564D01*
X031115Y009564D01*
X031280Y009633D01*
X031407Y009759D01*
X031476Y009925D01*
X031476Y010104D01*
X031407Y010269D01*
X031280Y010396D01*
X031115Y010464D01*
X030936Y010464D01*
X030771Y010396D01*
X030644Y010269D01*
X030576Y010104D01*
X030576Y009925D01*
X030619Y009820D01*
X030000Y009201D01*
X030000Y007083D01*
X029992Y007080D01*
X029914Y007002D01*
X029872Y006899D01*
X029872Y006789D01*
X029914Y006686D01*
X029992Y006608D01*
X030095Y006566D01*
X030205Y006566D01*
X030308Y006608D01*
X030386Y006686D01*
X030428Y006789D01*
X030428Y006899D01*
X030386Y007002D01*
X030308Y007080D01*
X030300Y007083D01*
X030300Y009076D01*
X030300Y008921D02*
X030577Y008921D01*
X030618Y008823D02*
X030300Y008823D01*
X030300Y008724D02*
X030679Y008724D01*
X030787Y008626D02*
X030300Y008626D01*
X030300Y008527D02*
X032492Y008527D01*
X032492Y008429D02*
X032201Y008429D01*
X032280Y008396D02*
X032115Y008464D01*
X031936Y008464D01*
X031771Y008396D01*
X031644Y008269D01*
X031576Y008104D01*
X031576Y007925D01*
X031644Y007759D01*
X031771Y007633D01*
X031936Y007564D01*
X032115Y007564D01*
X032280Y007633D01*
X032407Y007759D01*
X032476Y007925D01*
X032476Y008104D01*
X032407Y008269D01*
X032280Y008396D01*
X032346Y008330D02*
X032492Y008330D01*
X032492Y008232D02*
X032422Y008232D01*
X032463Y008133D02*
X032492Y008133D01*
X032492Y008035D02*
X032476Y008035D01*
X032476Y007936D02*
X032492Y007936D01*
X032492Y007838D02*
X032439Y007838D01*
X032387Y007739D02*
X032492Y007739D01*
X032492Y007641D02*
X032288Y007641D01*
X032492Y007542D02*
X030300Y007542D01*
X030300Y007444D02*
X030767Y007444D01*
X030763Y007442D02*
X030700Y007395D01*
X030644Y007340D01*
X030598Y007276D01*
X030562Y007206D01*
X030538Y007131D01*
X030527Y007062D01*
X030977Y007062D01*
X030977Y006966D01*
X030527Y006966D01*
X030538Y006897D01*
X030562Y006822D01*
X030598Y006752D01*
X030644Y006688D01*
X030700Y006633D01*
X030763Y006586D01*
X030834Y006551D01*
X030908Y006526D01*
X030977Y006515D01*
X030977Y006966D01*
X031074Y006966D01*
X031074Y007062D01*
X031524Y007062D01*
X031513Y007131D01*
X031489Y007206D01*
X031453Y007276D01*
X031407Y007340D01*
X031351Y007395D01*
X031288Y007442D01*
X031217Y007477D01*
X031143Y007502D01*
X031074Y007513D01*
X031074Y007062D01*
X030977Y007062D01*
X030977Y007513D01*
X030908Y007502D01*
X030834Y007477D01*
X030763Y007442D01*
X030649Y007345D02*
X030300Y007345D01*
X030300Y007247D02*
X030583Y007247D01*
X030543Y007148D02*
X030300Y007148D01*
X030338Y007050D02*
X030977Y007050D01*
X031020Y007014D02*
X031026Y007014D01*
X031020Y007014D02*
X030320Y006264D01*
X030320Y005344D01*
X031020Y005344D01*
X031026Y005014D01*
X031074Y004981D02*
X031576Y004981D01*
X031524Y004966D02*
X031074Y004966D01*
X031074Y005062D01*
X031524Y005062D01*
X031513Y005131D01*
X031489Y005206D01*
X031453Y005276D01*
X031407Y005340D01*
X031351Y005395D01*
X031288Y005442D01*
X031217Y005477D01*
X031143Y005502D01*
X031074Y005513D01*
X031074Y005062D01*
X030977Y005062D01*
X030977Y004966D01*
X030527Y004966D01*
X030538Y004897D01*
X030562Y004822D01*
X030598Y004752D01*
X030644Y004688D01*
X030700Y004633D01*
X030763Y004586D01*
X030834Y004551D01*
X030908Y004526D01*
X030977Y004515D01*
X030977Y004966D01*
X031074Y004966D01*
X031074Y004515D01*
X031143Y004526D01*
X031217Y004551D01*
X031288Y004586D01*
X031351Y004633D01*
X031407Y004688D01*
X031453Y004752D01*
X031489Y004822D01*
X031513Y004897D01*
X031524Y004966D01*
X031576Y004925D02*
X031644Y004759D01*
X031771Y004633D01*
X031936Y004564D01*
X032115Y004564D01*
X032280Y004633D01*
X032407Y004759D01*
X032476Y004925D01*
X032476Y005104D01*
X032407Y005269D01*
X032280Y005396D01*
X032115Y005464D01*
X031936Y005464D01*
X031771Y005396D01*
X031644Y005269D01*
X031576Y005104D01*
X031576Y004925D01*
X031593Y004883D02*
X031509Y004883D01*
X031469Y004784D02*
X031634Y004784D01*
X031718Y004686D02*
X031404Y004686D01*
X031288Y004587D02*
X031880Y004587D01*
X032171Y004587D02*
X032492Y004587D01*
X032492Y004489D02*
X029800Y004489D01*
X029800Y004587D02*
X030763Y004587D01*
X030647Y004686D02*
X029800Y004686D01*
X029800Y004784D02*
X030582Y004784D01*
X030543Y004883D02*
X029800Y004883D01*
X029800Y004981D02*
X030977Y004981D01*
X030977Y005062D02*
X030527Y005062D01*
X030538Y005131D01*
X030562Y005206D01*
X030598Y005276D01*
X030644Y005340D01*
X030700Y005395D01*
X030763Y005442D01*
X030834Y005477D01*
X030908Y005502D01*
X030977Y005513D01*
X030977Y005062D01*
X030977Y005080D02*
X031074Y005080D01*
X031074Y005178D02*
X030977Y005178D01*
X030977Y005277D02*
X031074Y005277D01*
X031074Y005375D02*
X030977Y005375D01*
X030977Y005474D02*
X031074Y005474D01*
X031115Y005564D02*
X031280Y005633D01*
X031407Y005759D01*
X031476Y005925D01*
X031476Y006104D01*
X031407Y006269D01*
X031280Y006396D01*
X031115Y006464D01*
X030936Y006464D01*
X030771Y006396D01*
X030644Y006269D01*
X030576Y006104D01*
X030576Y005925D01*
X030644Y005759D01*
X030771Y005633D01*
X030936Y005564D01*
X031115Y005564D01*
X031134Y005572D02*
X031917Y005572D01*
X031936Y005564D02*
X032115Y005564D01*
X032280Y005633D01*
X032407Y005759D01*
X032476Y005925D01*
X032476Y006104D01*
X032407Y006269D01*
X032280Y006396D01*
X032115Y006464D01*
X031936Y006464D01*
X031771Y006396D01*
X031644Y006269D01*
X031576Y006104D01*
X031576Y005925D01*
X031644Y005759D01*
X031771Y005633D01*
X031936Y005564D01*
X032134Y005572D02*
X032492Y005572D01*
X032492Y005474D02*
X031225Y005474D01*
X031372Y005375D02*
X031750Y005375D01*
X031652Y005277D02*
X031453Y005277D01*
X031498Y005178D02*
X031606Y005178D01*
X031576Y005080D02*
X031521Y005080D01*
X031074Y004883D02*
X030977Y004883D01*
X030977Y004784D02*
X031074Y004784D01*
X031074Y004686D02*
X030977Y004686D01*
X030977Y004587D02*
X031074Y004587D01*
X030530Y005080D02*
X029800Y005080D01*
X029800Y005178D02*
X030553Y005178D01*
X030598Y005277D02*
X029800Y005277D01*
X029800Y005375D02*
X030679Y005375D01*
X030826Y005474D02*
X029800Y005474D01*
X029800Y005572D02*
X030917Y005572D01*
X030733Y005671D02*
X029800Y005671D01*
X029800Y005769D02*
X030640Y005769D01*
X030599Y005868D02*
X029800Y005868D01*
X029800Y005966D02*
X030576Y005966D01*
X030576Y006065D02*
X029800Y006065D01*
X029800Y006163D02*
X030600Y006163D01*
X030641Y006262D02*
X029800Y006262D01*
X029800Y006360D02*
X030735Y006360D01*
X030923Y006459D02*
X029800Y006459D01*
X029800Y006557D02*
X030821Y006557D01*
X030977Y006557D02*
X031074Y006557D01*
X031074Y006515D02*
X031143Y006526D01*
X031217Y006551D01*
X031288Y006586D01*
X031351Y006633D01*
X031407Y006688D01*
X031453Y006752D01*
X031489Y006822D01*
X031513Y006897D01*
X031524Y006966D01*
X031074Y006966D01*
X031074Y006515D01*
X031128Y006459D02*
X031923Y006459D01*
X031936Y006564D02*
X032115Y006564D01*
X032280Y006633D01*
X032407Y006759D01*
X032476Y006925D01*
X032476Y007104D01*
X032407Y007269D01*
X032280Y007396D01*
X032115Y007464D01*
X031936Y007464D01*
X031771Y007396D01*
X031644Y007269D01*
X031576Y007104D01*
X031576Y006925D01*
X031644Y006759D01*
X031771Y006633D01*
X031936Y006564D01*
X031748Y006656D02*
X031374Y006656D01*
X031454Y006754D02*
X031649Y006754D01*
X031605Y006853D02*
X031499Y006853D01*
X031522Y006951D02*
X031576Y006951D01*
X031576Y007050D02*
X031074Y007050D01*
X031074Y007148D02*
X030977Y007148D01*
X030977Y007247D02*
X031074Y007247D01*
X031074Y007345D02*
X030977Y007345D01*
X030977Y007444D02*
X031074Y007444D01*
X031115Y007564D02*
X030936Y007564D01*
X030771Y007633D01*
X030644Y007759D01*
X030576Y007925D01*
X030576Y008104D01*
X030644Y008269D01*
X030771Y008396D01*
X030936Y008464D01*
X031115Y008464D01*
X031280Y008396D01*
X031407Y008269D01*
X031476Y008104D01*
X031476Y007925D01*
X031407Y007759D01*
X031280Y007633D01*
X031115Y007564D01*
X031288Y007641D02*
X031763Y007641D01*
X031664Y007739D02*
X031387Y007739D01*
X031439Y007838D02*
X031612Y007838D01*
X031576Y007936D02*
X031476Y007936D01*
X031476Y008035D02*
X031576Y008035D01*
X031588Y008133D02*
X031463Y008133D01*
X031422Y008232D02*
X031629Y008232D01*
X031705Y008330D02*
X031346Y008330D01*
X031201Y008429D02*
X031850Y008429D01*
X031936Y008564D02*
X031771Y008633D01*
X031644Y008759D01*
X031576Y008925D01*
X031576Y009104D01*
X031644Y009269D01*
X031771Y009396D01*
X031936Y009464D01*
X032115Y009464D01*
X032280Y009396D01*
X032407Y009269D01*
X032476Y009104D01*
X032476Y008925D01*
X032407Y008759D01*
X032280Y008633D01*
X032115Y008564D01*
X031936Y008564D01*
X031787Y008626D02*
X031264Y008626D01*
X031372Y008724D02*
X031679Y008724D01*
X031618Y008823D02*
X031433Y008823D01*
X031474Y008921D02*
X031577Y008921D01*
X031576Y009020D02*
X031476Y009020D01*
X031470Y009118D02*
X031582Y009118D01*
X031622Y009217D02*
X031429Y009217D01*
X031361Y009315D02*
X031690Y009315D01*
X031814Y009414D02*
X031237Y009414D01*
X031227Y009611D02*
X031824Y009611D01*
X031694Y009709D02*
X031357Y009709D01*
X031427Y009808D02*
X031624Y009808D01*
X031583Y009906D02*
X031468Y009906D01*
X031476Y010005D02*
X031576Y010005D01*
X031576Y010103D02*
X031476Y010103D01*
X031435Y010202D02*
X031616Y010202D01*
X031675Y010300D02*
X031376Y010300D01*
X031273Y010399D02*
X031778Y010399D01*
X031936Y010564D02*
X032115Y010564D01*
X032280Y010633D01*
X032407Y010759D01*
X032476Y010925D01*
X032476Y011104D01*
X032407Y011269D01*
X032280Y011396D01*
X032115Y011464D01*
X031936Y011464D01*
X031771Y011396D01*
X031644Y011269D01*
X031576Y011104D01*
X031576Y010925D01*
X031644Y010759D01*
X031771Y010633D01*
X031936Y010564D01*
X031860Y010596D02*
X031191Y010596D01*
X031342Y010694D02*
X031709Y010694D01*
X031630Y010793D02*
X031421Y010793D01*
X031462Y010891D02*
X031589Y010891D01*
X031576Y010990D02*
X031476Y010990D01*
X031476Y011088D02*
X031576Y011088D01*
X031610Y011187D02*
X031441Y011187D01*
X031391Y011285D02*
X031660Y011285D01*
X031759Y011384D02*
X031292Y011384D01*
X031155Y011581D02*
X031896Y011581D01*
X031936Y011564D02*
X032115Y011564D01*
X032280Y011633D01*
X032407Y011759D01*
X032476Y011925D01*
X032476Y012104D01*
X032407Y012269D01*
X032280Y012396D01*
X032115Y012464D01*
X031936Y012464D01*
X031771Y012396D01*
X031644Y012269D01*
X031576Y012104D01*
X031576Y011925D01*
X031644Y011759D01*
X031771Y011633D01*
X031936Y011564D01*
X032155Y011581D02*
X032492Y011581D01*
X032492Y011679D02*
X032327Y011679D01*
X032415Y011778D02*
X032492Y011778D01*
X032492Y011876D02*
X032455Y011876D01*
X032476Y011975D02*
X032492Y011975D01*
X032492Y012073D02*
X032476Y012073D01*
X032492Y012172D02*
X032447Y012172D01*
X032406Y012270D02*
X032492Y012270D01*
X032492Y012369D02*
X032307Y012369D01*
X032492Y012467D02*
X029800Y012467D01*
X029800Y012369D02*
X030744Y012369D01*
X030771Y012396D02*
X030644Y012269D01*
X030576Y012104D01*
X030576Y011925D01*
X030644Y011759D01*
X030771Y011633D01*
X030936Y011564D01*
X031115Y011564D01*
X031280Y011633D01*
X031407Y011759D01*
X031476Y011925D01*
X031476Y012104D01*
X031407Y012269D01*
X031280Y012396D01*
X031115Y012464D01*
X030936Y012464D01*
X030771Y012396D01*
X030645Y012270D02*
X029800Y012270D01*
X029800Y012172D02*
X030604Y012172D01*
X030576Y012073D02*
X029800Y012073D01*
X029800Y011975D02*
X030576Y011975D01*
X030596Y011876D02*
X029800Y011876D01*
X029800Y011778D02*
X030636Y011778D01*
X030724Y011679D02*
X029800Y011679D01*
X029800Y011581D02*
X030896Y011581D01*
X030759Y011384D02*
X029800Y011384D01*
X029800Y011482D02*
X032492Y011482D01*
X032492Y011384D02*
X032292Y011384D01*
X032391Y011285D02*
X032492Y011285D01*
X032492Y011187D02*
X032441Y011187D01*
X032476Y011088D02*
X032492Y011088D01*
X032492Y010990D02*
X032476Y010990D01*
X032462Y010891D02*
X032492Y010891D01*
X032492Y010793D02*
X032421Y010793D01*
X032492Y010694D02*
X032342Y010694D01*
X032492Y010596D02*
X032191Y010596D01*
X030778Y010399D02*
X029800Y010399D01*
X029800Y010300D02*
X030675Y010300D01*
X030616Y010202D02*
X029800Y010202D01*
X029800Y010103D02*
X030576Y010103D01*
X030576Y010005D02*
X029800Y010005D01*
X029800Y009906D02*
X030583Y009906D01*
X030607Y009808D02*
X029800Y009808D01*
X029800Y009709D02*
X030508Y009709D01*
X030410Y009611D02*
X029800Y009611D01*
X029800Y009512D02*
X030311Y009512D01*
X030213Y009414D02*
X029800Y009414D01*
X029800Y009315D02*
X030114Y009315D01*
X030016Y009217D02*
X029800Y009217D01*
X029800Y009118D02*
X030000Y009118D01*
X030000Y009020D02*
X029800Y009020D01*
X029800Y008921D02*
X030000Y008921D01*
X030000Y008823D02*
X029800Y008823D01*
X029800Y008724D02*
X030000Y008724D01*
X030000Y008626D02*
X029800Y008626D01*
X029800Y008527D02*
X030000Y008527D01*
X030000Y008429D02*
X029800Y008429D01*
X029800Y008330D02*
X030000Y008330D01*
X030000Y008232D02*
X029800Y008232D01*
X029800Y008133D02*
X030000Y008133D01*
X030000Y008035D02*
X029800Y008035D01*
X029800Y007936D02*
X030000Y007936D01*
X030000Y007838D02*
X029800Y007838D01*
X029800Y007739D02*
X030000Y007739D01*
X030000Y007641D02*
X029800Y007641D01*
X029800Y007542D02*
X030000Y007542D01*
X030000Y007444D02*
X029800Y007444D01*
X029800Y007345D02*
X030000Y007345D01*
X030000Y007247D02*
X029800Y007247D01*
X029800Y007148D02*
X030000Y007148D01*
X029962Y007050D02*
X029800Y007050D01*
X029800Y006951D02*
X029893Y006951D01*
X029872Y006853D02*
X029800Y006853D01*
X029800Y006754D02*
X029886Y006754D01*
X029945Y006656D02*
X029800Y006656D01*
X029500Y006656D02*
X028800Y006656D01*
X028800Y006754D02*
X029500Y006754D01*
X029500Y006853D02*
X028800Y006853D01*
X028800Y006951D02*
X029500Y006951D01*
X029500Y007050D02*
X028800Y007050D01*
X028800Y007148D02*
X029500Y007148D01*
X029500Y007247D02*
X029383Y007247D01*
X029365Y007233D02*
X029417Y007271D01*
X029463Y007317D01*
X029500Y007368D01*
X029500Y001906D01*
X029088Y001494D01*
X028951Y001494D01*
X029110Y001653D01*
X029110Y002035D01*
X028841Y002304D01*
X028459Y002304D01*
X028190Y002035D01*
X028190Y001653D01*
X028349Y001494D01*
X027951Y001494D01*
X028110Y001653D01*
X028110Y002035D01*
X027841Y002304D01*
X027459Y002304D01*
X027431Y002275D01*
X027300Y002406D01*
X027300Y002543D01*
X027459Y002384D01*
X027841Y002384D01*
X028110Y002653D01*
X028110Y003035D01*
X027841Y003304D01*
X027459Y003304D01*
X027300Y003145D01*
X027300Y006782D01*
X027712Y007194D01*
X027800Y007282D01*
X027800Y007488D01*
X027845Y007380D01*
X027946Y007279D01*
X028078Y007224D01*
X028222Y007224D01*
X028354Y007279D01*
X028455Y007380D01*
X028500Y007488D01*
X028500Y004085D01*
X028491Y004081D01*
X028413Y004003D01*
X028370Y003900D01*
X028370Y003788D01*
X028413Y003685D01*
X028491Y003607D01*
X028594Y003564D01*
X028706Y003564D01*
X028809Y003607D01*
X028887Y003685D01*
X028930Y003788D01*
X028930Y003900D01*
X028887Y004003D01*
X028809Y004081D01*
X028800Y004085D01*
X028800Y007368D01*
X028837Y007317D01*
X028883Y007271D01*
X028935Y007233D01*
X028993Y007204D01*
X029054Y007184D01*
X029118Y007174D01*
X029120Y007174D01*
X029120Y007814D01*
X029180Y007814D01*
X029180Y007174D01*
X029182Y007174D01*
X029246Y007184D01*
X029307Y007204D01*
X029365Y007233D01*
X029483Y007345D02*
X029500Y007345D01*
X029180Y007345D02*
X029120Y007345D01*
X029120Y007247D02*
X029180Y007247D01*
X029180Y007444D02*
X029120Y007444D01*
X029120Y007542D02*
X029180Y007542D01*
X029180Y007641D02*
X029120Y007641D01*
X029120Y007739D02*
X029180Y007739D01*
X029150Y007844D02*
X029150Y003344D01*
X028650Y002844D01*
X028700Y002814D02*
X029500Y002814D01*
X029500Y002716D02*
X029160Y002716D01*
X029160Y002794D02*
X029160Y002633D01*
X028861Y002334D01*
X028700Y002334D01*
X028700Y002794D01*
X028600Y002794D01*
X028600Y002334D01*
X028439Y002334D01*
X028140Y002633D01*
X028140Y002794D01*
X028600Y002794D01*
X028600Y002894D01*
X028140Y002894D01*
X028140Y003055D01*
X028439Y003354D01*
X028600Y003354D01*
X028600Y002894D01*
X028700Y002894D01*
X029160Y002894D01*
X029160Y003055D01*
X028861Y003354D01*
X028700Y003354D01*
X028700Y002894D01*
X028700Y002794D01*
X029160Y002794D01*
X029160Y002913D02*
X029500Y002913D01*
X029500Y003011D02*
X029160Y003011D01*
X029106Y003110D02*
X029500Y003110D01*
X029500Y003208D02*
X029007Y003208D01*
X028909Y003307D02*
X029500Y003307D01*
X029500Y003405D02*
X027300Y003405D01*
X027300Y003307D02*
X028391Y003307D01*
X028293Y003208D02*
X027937Y003208D01*
X028035Y003110D02*
X028194Y003110D01*
X028140Y003011D02*
X028110Y003011D01*
X028110Y002913D02*
X028140Y002913D01*
X028110Y002814D02*
X028600Y002814D01*
X028600Y002716D02*
X028700Y002716D01*
X028700Y002617D02*
X028600Y002617D01*
X028600Y002519D02*
X028700Y002519D01*
X028700Y002420D02*
X028600Y002420D01*
X028353Y002420D02*
X027877Y002420D01*
X027975Y002519D02*
X028254Y002519D01*
X028156Y002617D02*
X028074Y002617D01*
X028110Y002716D02*
X028140Y002716D01*
X028600Y002913D02*
X028700Y002913D01*
X028700Y003011D02*
X028600Y003011D01*
X028600Y003110D02*
X028700Y003110D01*
X028700Y003208D02*
X028600Y003208D01*
X028600Y003307D02*
X028700Y003307D01*
X028797Y003602D02*
X029500Y003602D01*
X029500Y003504D02*
X027300Y003504D01*
X027300Y003602D02*
X028503Y003602D01*
X028406Y003701D02*
X027300Y003701D01*
X027300Y003799D02*
X028370Y003799D01*
X028370Y003898D02*
X027300Y003898D01*
X027300Y003996D02*
X028410Y003996D01*
X028500Y004095D02*
X027300Y004095D01*
X027300Y004193D02*
X028500Y004193D01*
X028500Y004292D02*
X027300Y004292D01*
X027300Y004390D02*
X028500Y004390D01*
X028500Y004489D02*
X027300Y004489D01*
X027300Y004587D02*
X028500Y004587D01*
X028500Y004686D02*
X027300Y004686D01*
X027300Y004784D02*
X028500Y004784D01*
X028500Y004883D02*
X027300Y004883D01*
X027300Y004981D02*
X028500Y004981D01*
X028500Y005080D02*
X027300Y005080D01*
X027300Y005178D02*
X028500Y005178D01*
X028500Y005277D02*
X027300Y005277D01*
X027300Y005375D02*
X028500Y005375D01*
X028500Y005474D02*
X027300Y005474D01*
X027300Y005572D02*
X028500Y005572D01*
X028500Y005671D02*
X027300Y005671D01*
X027300Y005769D02*
X028500Y005769D01*
X028500Y005868D02*
X027300Y005868D01*
X027300Y005966D02*
X028500Y005966D01*
X028500Y006065D02*
X027300Y006065D01*
X027300Y006163D02*
X028500Y006163D01*
X028500Y006262D02*
X027300Y006262D01*
X027300Y006360D02*
X028500Y006360D01*
X028500Y006459D02*
X027300Y006459D01*
X027300Y006557D02*
X028500Y006557D01*
X028500Y006656D02*
X027300Y006656D01*
X027300Y006754D02*
X028500Y006754D01*
X028500Y006853D02*
X027371Y006853D01*
X027469Y006951D02*
X028500Y006951D01*
X028500Y007050D02*
X027568Y007050D01*
X027666Y007148D02*
X028500Y007148D01*
X028500Y007247D02*
X028276Y007247D01*
X028420Y007345D02*
X028500Y007345D01*
X028500Y007444D02*
X028481Y007444D01*
X028800Y007345D02*
X028817Y007345D01*
X028800Y007247D02*
X028917Y007247D01*
X028024Y007247D02*
X027765Y007247D01*
X027800Y007345D02*
X027880Y007345D01*
X027819Y007444D02*
X027800Y007444D01*
X027650Y007344D02*
X027150Y006844D01*
X027150Y002344D01*
X027650Y001844D01*
X028110Y001829D02*
X028190Y001829D01*
X028190Y001731D02*
X028110Y001731D01*
X028089Y001632D02*
X028211Y001632D01*
X028310Y001534D02*
X027990Y001534D01*
X027310Y001534D02*
X026990Y001534D01*
X027089Y001632D02*
X027211Y001632D01*
X027190Y001731D02*
X027110Y001731D01*
X027110Y001829D02*
X027190Y001829D01*
X027190Y001928D02*
X027110Y001928D01*
X027110Y002026D02*
X027190Y002026D01*
X027157Y002125D02*
X027020Y002125D01*
X027059Y002223D02*
X026922Y002223D01*
X027000Y002322D02*
X025300Y002322D01*
X025300Y002223D02*
X026378Y002223D01*
X026280Y002125D02*
X025300Y002125D01*
X025300Y002026D02*
X026190Y002026D01*
X026190Y001928D02*
X025300Y001928D01*
X025286Y002420D02*
X026423Y002420D01*
X026325Y002519D02*
X025060Y002519D01*
X025158Y002617D02*
X026226Y002617D01*
X026190Y002716D02*
X025170Y002716D01*
X024700Y002814D02*
X026190Y002814D01*
X026190Y002913D02*
X025170Y002913D01*
X025170Y003011D02*
X026190Y003011D01*
X026265Y003110D02*
X025311Y003110D01*
X025397Y003208D02*
X026363Y003208D01*
X026937Y003208D02*
X027000Y003208D01*
X027000Y003307D02*
X025430Y003307D01*
X025428Y003405D02*
X027000Y003405D01*
X027000Y003504D02*
X025386Y003504D01*
X025259Y003602D02*
X027000Y003602D01*
X027000Y003701D02*
X025006Y003701D01*
X024907Y003799D02*
X027000Y003799D01*
X027000Y003898D02*
X024809Y003898D01*
X024710Y003996D02*
X027000Y003996D01*
X027000Y004095D02*
X025054Y004095D01*
X025168Y004193D02*
X027000Y004193D01*
X027000Y004292D02*
X025208Y004292D01*
X025208Y004390D02*
X027000Y004390D01*
X027000Y004489D02*
X025171Y004489D01*
X025070Y004587D02*
X027000Y004587D01*
X027000Y004686D02*
X024801Y004686D01*
X024702Y004784D02*
X027000Y004784D01*
X027000Y004883D02*
X024604Y004883D01*
X024505Y004981D02*
X027000Y004981D01*
X027000Y005080D02*
X024420Y005080D01*
X024420Y005178D02*
X027000Y005178D01*
X027000Y005277D02*
X024420Y005277D01*
X024420Y005375D02*
X027000Y005375D01*
X027000Y005474D02*
X024420Y005474D01*
X024420Y005572D02*
X027000Y005572D01*
X027000Y005671D02*
X024420Y005671D01*
X024420Y005769D02*
X027000Y005769D01*
X027000Y005868D02*
X024420Y005868D01*
X024420Y005966D02*
X027000Y005966D01*
X027000Y006065D02*
X024420Y006065D01*
X024420Y006163D02*
X027000Y006163D01*
X027000Y006262D02*
X024420Y006262D01*
X024420Y006360D02*
X027000Y006360D01*
X027000Y006459D02*
X024420Y006459D01*
X024420Y006557D02*
X027000Y006557D01*
X027000Y006656D02*
X024510Y006656D01*
X024548Y006754D02*
X027000Y006754D01*
X027000Y006853D02*
X024548Y006853D01*
X024510Y006951D02*
X027045Y006951D01*
X027143Y007050D02*
X024404Y007050D01*
X024270Y006804D02*
X024270Y005004D01*
X024930Y004344D01*
X024652Y004390D02*
X024316Y004390D01*
X024218Y004489D02*
X024573Y004489D01*
X024475Y004587D02*
X024119Y004587D01*
X024021Y004686D02*
X024376Y004686D01*
X024278Y004784D02*
X023922Y004784D01*
X023824Y004883D02*
X024179Y004883D01*
X024120Y004981D02*
X023800Y004981D01*
X023800Y005080D02*
X024120Y005080D01*
X024120Y005178D02*
X023800Y005178D01*
X023800Y005277D02*
X024120Y005277D01*
X024120Y005375D02*
X023800Y005375D01*
X023800Y005474D02*
X024120Y005474D01*
X024120Y005572D02*
X023800Y005572D01*
X023800Y005671D02*
X024120Y005671D01*
X024120Y005769D02*
X023800Y005769D01*
X023800Y005868D02*
X024120Y005868D01*
X024120Y005966D02*
X023800Y005966D01*
X023800Y006065D02*
X024120Y006065D01*
X024120Y006163D02*
X023800Y006163D01*
X023800Y006262D02*
X024120Y006262D01*
X024120Y006360D02*
X023800Y006360D01*
X023800Y006459D02*
X024120Y006459D01*
X024120Y006557D02*
X023800Y006557D01*
X023800Y006656D02*
X024030Y006656D01*
X023992Y006754D02*
X023800Y006754D01*
X023800Y006853D02*
X023992Y006853D01*
X024030Y006951D02*
X023800Y006951D01*
X023024Y007247D02*
X022276Y007247D01*
X022420Y007345D02*
X022880Y007345D01*
X022819Y007444D02*
X022481Y007444D01*
X022510Y007542D02*
X022790Y007542D01*
X022790Y007641D02*
X022510Y007641D01*
X022510Y007739D02*
X022790Y007739D01*
X022790Y007838D02*
X022510Y007838D01*
X022510Y007936D02*
X022790Y007936D01*
X022747Y008035D02*
X022510Y008035D01*
X022510Y008133D02*
X022649Y008133D01*
X022550Y008232D02*
X022487Y008232D01*
X022500Y008282D02*
X022500Y010488D01*
X022455Y010380D01*
X022354Y010279D01*
X022222Y010224D01*
X022078Y010224D01*
X021946Y010279D01*
X021845Y010380D01*
X021790Y010512D01*
X021790Y010772D01*
X021712Y010694D01*
X021010Y010694D01*
X021010Y010512D01*
X020955Y010380D01*
X020854Y010279D01*
X020722Y010224D01*
X020578Y010224D01*
X020446Y010279D01*
X020345Y010380D01*
X020300Y010488D01*
X020300Y009906D01*
X020300Y010005D02*
X022500Y010005D01*
X022500Y010103D02*
X020300Y010103D01*
X020300Y010202D02*
X022500Y010202D01*
X022500Y010300D02*
X022375Y010300D01*
X022463Y010399D02*
X022500Y010399D01*
X022800Y010399D02*
X022837Y010399D01*
X022800Y010300D02*
X022925Y010300D01*
X023650Y010344D02*
X024150Y010844D01*
X025120Y010990D02*
X025180Y010990D01*
X025180Y011088D02*
X025120Y011088D01*
X025120Y011187D02*
X025180Y011187D01*
X025180Y011285D02*
X025120Y011285D01*
X025120Y011384D02*
X025180Y011384D01*
X025180Y011482D02*
X025120Y011482D01*
X024989Y011482D02*
X024800Y011482D01*
X024800Y011384D02*
X024850Y011384D01*
X024800Y011581D02*
X025500Y011581D01*
X025500Y011679D02*
X024800Y011679D01*
X024800Y011778D02*
X025500Y011778D01*
X025500Y011876D02*
X024800Y011876D01*
X024800Y011975D02*
X025500Y011975D01*
X025500Y012073D02*
X024800Y012073D01*
X024800Y012172D02*
X025500Y012172D01*
X025500Y012270D02*
X024800Y012270D01*
X024800Y012369D02*
X025500Y012369D01*
X025500Y012467D02*
X024800Y012467D01*
X024800Y012566D02*
X025500Y012566D01*
X025500Y012664D02*
X024800Y012664D01*
X024800Y012763D02*
X025500Y012763D01*
X025500Y012861D02*
X024800Y012861D01*
X024800Y012960D02*
X025500Y012960D01*
X025500Y013058D02*
X024800Y013058D01*
X024800Y013157D02*
X025500Y013157D01*
X025500Y013255D02*
X024800Y013255D01*
X024800Y013354D02*
X025500Y013354D01*
X025500Y013452D02*
X024800Y013452D01*
X024800Y013551D02*
X025223Y013551D01*
X025124Y013649D02*
X024859Y013649D01*
X024918Y013748D02*
X025065Y013748D01*
X025024Y013846D02*
X024959Y013846D01*
X024962Y013945D02*
X025022Y013945D01*
X025023Y014043D02*
X024960Y014043D01*
X024919Y014142D02*
X025064Y014142D01*
X025121Y014240D02*
X024863Y014240D01*
X024764Y014339D02*
X025219Y014339D01*
X025764Y014339D02*
X026219Y014339D01*
X026121Y014240D02*
X025863Y014240D01*
X025919Y014142D02*
X026064Y014142D01*
X026023Y014043D02*
X025960Y014043D01*
X025962Y013945D02*
X026022Y013945D01*
X026024Y013846D02*
X025959Y013846D01*
X025918Y013748D02*
X026065Y013748D01*
X026124Y013649D02*
X025859Y013649D01*
X025800Y013551D02*
X026223Y013551D01*
X026500Y013452D02*
X025800Y013452D01*
X025800Y013354D02*
X026500Y013354D01*
X026500Y013255D02*
X025800Y013255D01*
X025800Y013157D02*
X026500Y013157D01*
X026500Y013058D02*
X025800Y013058D01*
X025800Y012960D02*
X026500Y012960D01*
X026500Y012861D02*
X025800Y012861D01*
X025800Y012763D02*
X026500Y012763D01*
X026500Y012664D02*
X025800Y012664D01*
X025800Y012566D02*
X026500Y012566D01*
X026500Y012467D02*
X025800Y012467D01*
X025800Y012369D02*
X026500Y012369D01*
X026500Y012270D02*
X025800Y012270D01*
X025800Y012172D02*
X026500Y012172D01*
X026500Y012073D02*
X025800Y012073D01*
X025800Y011975D02*
X026500Y011975D01*
X026500Y011876D02*
X025800Y011876D01*
X025800Y011778D02*
X026500Y011778D01*
X026500Y011679D02*
X025800Y011679D01*
X025800Y011581D02*
X026500Y011581D01*
X026500Y011482D02*
X025800Y011482D01*
X025800Y011384D02*
X025920Y011384D01*
X025835Y011285D02*
X025800Y011285D01*
X025500Y011384D02*
X025450Y011384D01*
X025500Y011482D02*
X025311Y011482D01*
X024500Y011581D02*
X022800Y011581D01*
X022800Y011679D02*
X024500Y011679D01*
X024500Y011778D02*
X022800Y011778D01*
X022800Y011876D02*
X024500Y011876D01*
X024500Y011975D02*
X022800Y011975D01*
X022800Y012073D02*
X024500Y012073D01*
X024500Y012172D02*
X024358Y012172D01*
X024491Y012270D02*
X024500Y012270D01*
X023942Y012172D02*
X022800Y012172D01*
X022800Y012270D02*
X023809Y012270D01*
X023735Y012369D02*
X022800Y012369D01*
X022800Y012467D02*
X023694Y012467D01*
X023680Y012566D02*
X022800Y012566D01*
X022866Y012664D02*
X023680Y012664D01*
X023711Y012763D02*
X022919Y012763D01*
X022930Y012861D02*
X023752Y012861D01*
X023851Y012960D02*
X022905Y012960D01*
X022832Y013058D02*
X024042Y013058D01*
X024258Y013058D02*
X024500Y013058D01*
X024500Y012960D02*
X024449Y012960D01*
X024500Y013157D02*
X022359Y013157D01*
X022416Y013255D02*
X024500Y013255D01*
X024500Y013354D02*
X022430Y013354D01*
X022408Y013452D02*
X024500Y013452D01*
X024223Y013551D02*
X023760Y013551D01*
X023758Y013548D02*
X023890Y013680D01*
X023962Y013853D01*
X023962Y014040D01*
X023890Y014213D01*
X023758Y014345D01*
X023585Y014416D01*
X023398Y014416D01*
X023225Y014345D01*
X023093Y014213D01*
X023022Y014040D01*
X023022Y013853D01*
X023093Y013680D01*
X023225Y013548D01*
X023398Y013476D01*
X023585Y013476D01*
X023758Y013548D01*
X023859Y013649D02*
X024124Y013649D01*
X024065Y013748D02*
X023918Y013748D01*
X023959Y013846D02*
X024024Y013846D01*
X024022Y013945D02*
X023962Y013945D01*
X023960Y014043D02*
X024023Y014043D01*
X024064Y014142D02*
X023919Y014142D01*
X023863Y014240D02*
X024121Y014240D01*
X024219Y014339D02*
X023764Y014339D01*
X023219Y014339D02*
X022764Y014339D01*
X022863Y014240D02*
X023121Y014240D01*
X023064Y014142D02*
X022919Y014142D01*
X022960Y014043D02*
X023023Y014043D01*
X023022Y013945D02*
X022962Y013945D01*
X022959Y013846D02*
X023024Y013846D01*
X023065Y013748D02*
X022918Y013748D01*
X022859Y013649D02*
X023124Y013649D01*
X023223Y013551D02*
X022760Y013551D01*
X022468Y013058D02*
X022300Y013058D01*
X022300Y012960D02*
X022395Y012960D01*
X022370Y012861D02*
X022300Y012861D01*
X022300Y012763D02*
X022381Y012763D01*
X022434Y012664D02*
X022300Y012664D01*
X022300Y012566D02*
X022500Y012566D01*
X022500Y012467D02*
X022300Y012467D01*
X022300Y012369D02*
X022500Y012369D01*
X022500Y012270D02*
X022300Y012270D01*
X022300Y012172D02*
X022500Y012172D01*
X022500Y012073D02*
X022300Y012073D01*
X022300Y011975D02*
X022500Y011975D01*
X022500Y011876D02*
X022300Y011876D01*
X022296Y011778D02*
X022500Y011778D01*
X022500Y011679D02*
X022197Y011679D01*
X022099Y011581D02*
X022500Y011581D01*
X021970Y011876D02*
X021847Y011876D01*
X021871Y011778D02*
X021680Y011778D01*
X021773Y011679D02*
X020300Y011679D01*
X020300Y011581D02*
X021674Y011581D01*
X021576Y011482D02*
X020300Y011482D01*
X020300Y011384D02*
X020420Y011384D01*
X020335Y011285D02*
X020300Y011285D01*
X020000Y011285D02*
X019965Y011285D01*
X020000Y011384D02*
X019880Y011384D01*
X020000Y011482D02*
X019300Y011482D01*
X019300Y011384D02*
X019420Y011384D01*
X019335Y011285D02*
X019300Y011285D01*
X019000Y011285D02*
X018965Y011285D01*
X019000Y011384D02*
X018880Y011384D01*
X018420Y011384D02*
X017880Y011384D01*
X017965Y011285D02*
X018335Y011285D01*
X018295Y011187D02*
X018005Y011187D01*
X018010Y011088D02*
X018290Y011088D01*
X018290Y010990D02*
X018010Y010990D01*
X018010Y010891D02*
X018290Y010891D01*
X018290Y010793D02*
X018010Y010793D01*
X018010Y010694D02*
X018290Y010694D01*
X018290Y010596D02*
X018010Y010596D01*
X018004Y010497D02*
X018296Y010497D01*
X018337Y010399D02*
X017963Y010399D01*
X017875Y010300D02*
X018425Y010300D01*
X019650Y010844D02*
X019650Y008844D01*
X019903Y008724D02*
X021058Y008724D01*
X021156Y008626D02*
X019827Y008626D01*
X019807Y008429D02*
X020493Y008429D01*
X020446Y008409D02*
X020345Y008308D01*
X020290Y008176D01*
X020290Y007512D01*
X020345Y007380D01*
X020446Y007279D01*
X020578Y007224D01*
X020722Y007224D01*
X020854Y007279D01*
X020955Y007380D01*
X021010Y007512D01*
X021010Y008176D01*
X020955Y008308D01*
X020854Y008409D01*
X020722Y008464D01*
X020578Y008464D01*
X020446Y008409D01*
X020367Y008330D02*
X019933Y008330D01*
X019987Y008232D02*
X020313Y008232D01*
X020290Y008133D02*
X020010Y008133D01*
X020010Y008035D02*
X020290Y008035D01*
X020290Y007936D02*
X020010Y007936D01*
X020010Y007838D02*
X020290Y007838D01*
X020290Y007739D02*
X020010Y007739D01*
X020066Y007641D02*
X020290Y007641D01*
X020290Y007542D02*
X020164Y007542D01*
X020263Y007444D02*
X020319Y007444D01*
X020361Y007345D02*
X020380Y007345D01*
X020460Y007247D02*
X020524Y007247D01*
X020776Y007247D02*
X022024Y007247D01*
X021880Y007345D02*
X020920Y007345D01*
X020981Y007444D02*
X021819Y007444D01*
X021790Y007542D02*
X021010Y007542D01*
X021010Y007641D02*
X021790Y007641D01*
X021790Y007739D02*
X021010Y007739D01*
X021010Y007838D02*
X021790Y007838D01*
X021790Y007936D02*
X021010Y007936D01*
X021010Y008035D02*
X021747Y008035D01*
X021649Y008133D02*
X021010Y008133D01*
X020987Y008232D02*
X021550Y008232D01*
X021452Y008330D02*
X020933Y008330D01*
X020807Y008429D02*
X021353Y008429D01*
X021255Y008527D02*
X019300Y008527D01*
X019930Y008823D02*
X020959Y008823D01*
X020861Y008921D02*
X019921Y008921D01*
X019870Y009020D02*
X020762Y009020D01*
X020664Y009118D02*
X019800Y009118D01*
X019800Y009217D02*
X020565Y009217D01*
X020467Y009315D02*
X019800Y009315D01*
X019800Y009414D02*
X020368Y009414D01*
X020270Y009512D02*
X019800Y009512D01*
X019800Y009611D02*
X020171Y009611D01*
X020073Y009709D02*
X019800Y009709D01*
X019800Y009808D02*
X020000Y009808D01*
X020000Y009906D02*
X019800Y009906D01*
X019800Y010005D02*
X020000Y010005D01*
X020000Y010103D02*
X019800Y010103D01*
X019800Y010202D02*
X020000Y010202D01*
X020000Y010300D02*
X019875Y010300D01*
X019963Y010399D02*
X020000Y010399D01*
X020300Y010399D02*
X020337Y010399D01*
X020300Y010300D02*
X020425Y010300D01*
X020875Y010300D02*
X021925Y010300D01*
X021837Y010399D02*
X020963Y010399D01*
X021004Y010497D02*
X021796Y010497D01*
X021790Y010596D02*
X021010Y010596D01*
X020650Y010844D02*
X021650Y010844D01*
X021650Y011344D01*
X021500Y011384D02*
X020880Y011384D01*
X020965Y011285D02*
X021500Y011285D01*
X021500Y011187D02*
X021005Y011187D01*
X021010Y011088D02*
X021500Y011088D01*
X021712Y010694D02*
X021790Y010694D01*
X020150Y009844D02*
X020150Y011844D01*
X019650Y012344D01*
X019650Y012844D01*
X019395Y012960D02*
X019300Y012960D01*
X019300Y013058D02*
X019468Y013058D01*
X019370Y012861D02*
X019300Y012861D01*
X019300Y012763D02*
X019381Y012763D01*
X019434Y012664D02*
X019300Y012664D01*
X019300Y012566D02*
X019500Y012566D01*
X019500Y012467D02*
X019300Y012467D01*
X019300Y012369D02*
X019500Y012369D01*
X019512Y012270D02*
X019300Y012270D01*
X019300Y012172D02*
X019610Y012172D01*
X019709Y012073D02*
X019300Y012073D01*
X019300Y011975D02*
X019807Y011975D01*
X019906Y011876D02*
X019300Y011876D01*
X019300Y011778D02*
X020000Y011778D01*
X020000Y011679D02*
X019300Y011679D01*
X019300Y011581D02*
X020000Y011581D01*
X020011Y012270D02*
X019936Y012270D01*
X020030Y012369D02*
X019838Y012369D01*
X019800Y012467D02*
X020070Y012467D01*
X020136Y012566D02*
X019800Y012566D01*
X019866Y012664D02*
X020251Y012664D01*
X021938Y012467D02*
X022000Y012467D01*
X022000Y012369D02*
X021979Y012369D01*
X022000Y012270D02*
X022000Y012270D01*
X022000Y012172D02*
X022000Y012172D01*
X022000Y012073D02*
X021976Y012073D01*
X022000Y011975D02*
X021935Y011975D01*
X024465Y011285D02*
X024500Y011285D01*
X026150Y010844D02*
X026150Y010344D01*
X026650Y009844D01*
X026650Y008844D01*
X026903Y008724D02*
X027000Y008724D01*
X027000Y008626D02*
X026827Y008626D01*
X027000Y008527D02*
X026300Y008527D01*
X026300Y008626D02*
X026473Y008626D01*
X026397Y008724D02*
X026300Y008724D01*
X026300Y008823D02*
X026370Y008823D01*
X026379Y008921D02*
X026300Y008921D01*
X026300Y009020D02*
X026430Y009020D01*
X026500Y009118D02*
X026300Y009118D01*
X026300Y009217D02*
X026500Y009217D01*
X026500Y009315D02*
X026300Y009315D01*
X026300Y009414D02*
X026500Y009414D01*
X026500Y009512D02*
X026300Y009512D01*
X026300Y009611D02*
X026500Y009611D01*
X026500Y009709D02*
X026300Y009709D01*
X026300Y009808D02*
X026474Y009808D01*
X026277Y010005D02*
X026202Y010005D01*
X026179Y010103D02*
X026103Y010103D01*
X026080Y010202D02*
X026005Y010202D01*
X025925Y010300D02*
X025906Y010300D01*
X025837Y010399D02*
X025808Y010399D01*
X025650Y010344D02*
X025650Y013844D01*
X025492Y013946D01*
X024650Y013844D02*
X024492Y013946D01*
X024650Y013844D02*
X024650Y008344D01*
X025150Y007844D01*
X026150Y007844D02*
X026150Y009844D01*
X025650Y010344D01*
X025500Y010300D02*
X025446Y010300D01*
X025580Y010202D02*
X025300Y010202D01*
X024500Y010202D02*
X023800Y010202D01*
X023800Y010103D02*
X024500Y010103D01*
X024500Y010005D02*
X023800Y010005D01*
X023800Y009906D02*
X024500Y009906D01*
X024500Y009808D02*
X023800Y009808D01*
X023800Y009709D02*
X024500Y009709D01*
X024500Y009611D02*
X023800Y009611D01*
X023800Y009512D02*
X024500Y009512D01*
X024500Y009414D02*
X023800Y009414D01*
X023800Y009315D02*
X024500Y009315D01*
X024500Y009217D02*
X023800Y009217D01*
X023800Y009118D02*
X024500Y009118D01*
X024500Y009020D02*
X023800Y009020D01*
X023800Y008921D02*
X024500Y008921D01*
X024500Y008823D02*
X023800Y008823D01*
X023800Y008724D02*
X024500Y008724D01*
X024500Y008626D02*
X023800Y008626D01*
X024800Y008429D02*
X024993Y008429D01*
X026307Y008429D02*
X026993Y008429D01*
X026867Y008330D02*
X026433Y008330D01*
X026487Y008232D02*
X026813Y008232D01*
X026790Y008133D02*
X026510Y008133D01*
X026510Y008035D02*
X026790Y008035D01*
X026790Y007936D02*
X026510Y007936D01*
X026510Y007838D02*
X026790Y007838D01*
X026790Y007739D02*
X026510Y007739D01*
X026510Y007641D02*
X026790Y007641D01*
X026790Y007542D02*
X026510Y007542D01*
X026481Y007444D02*
X026819Y007444D01*
X026880Y007345D02*
X026420Y007345D01*
X026276Y007247D02*
X027024Y007247D01*
X027150Y007844D02*
X027150Y009344D01*
X027150Y009844D01*
X026650Y010344D01*
X026650Y013844D01*
X026492Y013946D01*
X026962Y013945D02*
X027022Y013945D01*
X027023Y014043D02*
X026960Y014043D01*
X026919Y014142D02*
X027064Y014142D01*
X027121Y014240D02*
X026863Y014240D01*
X026764Y014339D02*
X027219Y014339D01*
X027492Y013946D02*
X027650Y013844D01*
X027650Y010344D01*
X028150Y009844D01*
X028150Y009344D01*
X028150Y007844D01*
X029120Y007874D02*
X029120Y008514D01*
X029118Y008514D01*
X029054Y008504D01*
X028993Y008484D01*
X028935Y008455D01*
X028883Y008417D01*
X028837Y008371D01*
X028800Y008320D01*
X028800Y010488D01*
X028845Y010380D01*
X028946Y010279D01*
X029078Y010224D01*
X029222Y010224D01*
X029354Y010279D01*
X029455Y010380D01*
X029500Y010488D01*
X029500Y008320D01*
X029463Y008371D01*
X029417Y008417D01*
X029365Y008455D01*
X029307Y008484D01*
X029246Y008504D01*
X029182Y008514D01*
X029180Y008514D01*
X029180Y007874D01*
X029120Y007874D01*
X029120Y007936D02*
X029180Y007936D01*
X029180Y008035D02*
X029120Y008035D01*
X029120Y008133D02*
X029180Y008133D01*
X029180Y008232D02*
X029120Y008232D01*
X029120Y008330D02*
X029180Y008330D01*
X029180Y008429D02*
X029120Y008429D01*
X028899Y008429D02*
X028800Y008429D01*
X028800Y008527D02*
X029500Y008527D01*
X029500Y008429D02*
X029401Y008429D01*
X029493Y008330D02*
X029500Y008330D01*
X028807Y008330D02*
X028800Y008330D01*
X028800Y008626D02*
X029500Y008626D01*
X029500Y008724D02*
X028800Y008724D01*
X028800Y008823D02*
X029500Y008823D01*
X029500Y008921D02*
X028800Y008921D01*
X028800Y009020D02*
X029500Y009020D01*
X029500Y009118D02*
X028800Y009118D01*
X028800Y009217D02*
X029500Y009217D01*
X029500Y009315D02*
X028800Y009315D01*
X028800Y009414D02*
X029500Y009414D01*
X029500Y009512D02*
X028800Y009512D01*
X028800Y009611D02*
X029500Y009611D01*
X029500Y009709D02*
X028800Y009709D01*
X028800Y009808D02*
X029500Y009808D01*
X029500Y009906D02*
X028800Y009906D01*
X028800Y010005D02*
X029500Y010005D01*
X029500Y010103D02*
X028800Y010103D01*
X028800Y010202D02*
X029500Y010202D01*
X029500Y010300D02*
X029375Y010300D01*
X029463Y010399D02*
X029500Y010399D01*
X028925Y010300D02*
X028800Y010300D01*
X028800Y010399D02*
X028837Y010399D01*
X028150Y010844D02*
X028150Y013844D01*
X028492Y013946D01*
X028650Y013844D01*
X028650Y003844D01*
X028894Y003701D02*
X029500Y003701D01*
X029500Y003799D02*
X028930Y003799D01*
X028930Y003898D02*
X029500Y003898D01*
X029500Y003996D02*
X028890Y003996D01*
X028800Y004095D02*
X029500Y004095D01*
X029500Y004193D02*
X028800Y004193D01*
X028800Y004292D02*
X029500Y004292D01*
X029500Y004390D02*
X028800Y004390D01*
X028800Y004489D02*
X029500Y004489D01*
X029500Y004587D02*
X028800Y004587D01*
X028800Y004686D02*
X029500Y004686D01*
X029500Y004784D02*
X028800Y004784D01*
X028800Y004883D02*
X029500Y004883D01*
X029500Y004981D02*
X028800Y004981D01*
X028800Y005080D02*
X029500Y005080D01*
X029500Y005178D02*
X028800Y005178D01*
X028800Y005277D02*
X029500Y005277D01*
X029500Y005375D02*
X028800Y005375D01*
X028800Y005474D02*
X029500Y005474D01*
X029500Y005572D02*
X028800Y005572D01*
X028800Y005671D02*
X029500Y005671D01*
X029500Y005769D02*
X028800Y005769D01*
X028800Y005868D02*
X029500Y005868D01*
X029500Y005966D02*
X028800Y005966D01*
X028800Y006065D02*
X029500Y006065D01*
X029500Y006163D02*
X028800Y006163D01*
X028800Y006262D02*
X029500Y006262D01*
X029500Y006360D02*
X028800Y006360D01*
X028800Y006459D02*
X029500Y006459D01*
X029500Y006557D02*
X028800Y006557D01*
X030150Y006844D02*
X030150Y009139D01*
X031026Y010014D01*
X032237Y009414D02*
X032492Y009414D01*
X032492Y009315D02*
X032361Y009315D01*
X032429Y009217D02*
X032492Y009217D01*
X032492Y009118D02*
X032470Y009118D01*
X032476Y009020D02*
X032492Y009020D01*
X032492Y008921D02*
X032474Y008921D01*
X032492Y008823D02*
X032433Y008823D01*
X032492Y008724D02*
X032372Y008724D01*
X032264Y008626D02*
X032492Y008626D01*
X030850Y008429D02*
X030300Y008429D01*
X030300Y008330D02*
X030705Y008330D01*
X030629Y008232D02*
X030300Y008232D01*
X030300Y008133D02*
X030588Y008133D01*
X030576Y008035D02*
X030300Y008035D01*
X030300Y007936D02*
X030576Y007936D01*
X030612Y007838D02*
X030300Y007838D01*
X030300Y007739D02*
X030664Y007739D01*
X030763Y007641D02*
X030300Y007641D01*
X031284Y007444D02*
X031887Y007444D01*
X031720Y007345D02*
X031402Y007345D01*
X031468Y007247D02*
X031635Y007247D01*
X031594Y007148D02*
X031508Y007148D01*
X031074Y006951D02*
X030977Y006951D01*
X030977Y006853D02*
X031074Y006853D01*
X031074Y006754D02*
X030977Y006754D01*
X030977Y006656D02*
X031074Y006656D01*
X031230Y006557D02*
X032492Y006557D01*
X032492Y006459D02*
X032128Y006459D01*
X032316Y006360D02*
X032492Y006360D01*
X032492Y006262D02*
X032410Y006262D01*
X032451Y006163D02*
X032492Y006163D01*
X032492Y006065D02*
X032476Y006065D01*
X032476Y005966D02*
X032492Y005966D01*
X032492Y005868D02*
X032452Y005868D01*
X032492Y005769D02*
X032411Y005769D01*
X032492Y005671D02*
X032318Y005671D01*
X032301Y005375D02*
X032492Y005375D01*
X032492Y005277D02*
X032399Y005277D01*
X032445Y005178D02*
X032492Y005178D01*
X032492Y005080D02*
X032476Y005080D01*
X032476Y004981D02*
X032492Y004981D01*
X032492Y004883D02*
X032458Y004883D01*
X032492Y004784D02*
X032417Y004784D01*
X032492Y004686D02*
X032333Y004686D01*
X032492Y004390D02*
X029800Y004390D01*
X029800Y004292D02*
X032492Y004292D01*
X032492Y004193D02*
X029800Y004193D01*
X029800Y004095D02*
X032492Y004095D01*
X032492Y003996D02*
X029800Y003996D01*
X029800Y003898D02*
X032492Y003898D01*
X032492Y003799D02*
X029800Y003799D01*
X029800Y003701D02*
X032492Y003701D01*
X032492Y003602D02*
X029800Y003602D01*
X029800Y003504D02*
X032492Y003504D01*
X032492Y003405D02*
X029800Y003405D01*
X029800Y003307D02*
X032492Y003307D01*
X032492Y003208D02*
X029800Y003208D01*
X029800Y003110D02*
X032492Y003110D01*
X032492Y003011D02*
X029800Y003011D01*
X029800Y002913D02*
X032492Y002913D01*
X032492Y002814D02*
X029800Y002814D01*
X029800Y002716D02*
X032492Y002716D01*
X032492Y002617D02*
X029800Y002617D01*
X029800Y002519D02*
X032492Y002519D01*
X032492Y002420D02*
X031860Y002420D01*
X031799Y002445D02*
X032057Y002338D01*
X032254Y002141D01*
X032361Y001883D01*
X032361Y001605D01*
X032254Y001347D01*
X032057Y001150D01*
X031799Y001043D01*
X031521Y001043D01*
X031263Y001150D01*
X031066Y001347D01*
X030959Y001605D01*
X030959Y001883D01*
X031066Y002141D01*
X031263Y002338D01*
X031521Y002445D01*
X031799Y002445D01*
X032074Y002322D02*
X032492Y002322D01*
X032492Y002223D02*
X032173Y002223D01*
X032261Y002125D02*
X032492Y002125D01*
X032492Y002026D02*
X032302Y002026D01*
X032343Y001928D02*
X032492Y001928D01*
X032492Y001829D02*
X032361Y001829D01*
X032361Y001731D02*
X032492Y001731D01*
X032492Y001632D02*
X032361Y001632D01*
X032332Y001534D02*
X032492Y001534D01*
X032492Y001435D02*
X032291Y001435D01*
X032244Y001337D02*
X032492Y001337D01*
X032492Y001238D02*
X032146Y001238D01*
X032033Y001140D02*
X032492Y001140D01*
X032492Y001041D02*
X001300Y001041D01*
X001300Y000994D02*
X001300Y014814D01*
X032492Y014814D01*
X032492Y000994D01*
X001300Y000994D01*
X001300Y001140D02*
X001757Y001140D01*
X001733Y001150D02*
X001991Y001043D01*
X002269Y001043D01*
X002527Y001150D01*
X002724Y001347D01*
X002831Y001605D01*
X002831Y001883D01*
X002724Y002141D01*
X002527Y002338D01*
X002269Y002445D01*
X001991Y002445D01*
X001733Y002338D01*
X001536Y002141D01*
X001429Y001883D01*
X001429Y001605D01*
X001536Y001347D01*
X001733Y001150D01*
X001644Y001238D02*
X001300Y001238D01*
X001300Y001337D02*
X001546Y001337D01*
X001499Y001435D02*
X001300Y001435D01*
X001300Y001534D02*
X001458Y001534D01*
X001429Y001632D02*
X001300Y001632D01*
X001300Y001731D02*
X001429Y001731D01*
X001429Y001829D02*
X001300Y001829D01*
X001300Y001928D02*
X001447Y001928D01*
X001488Y002026D02*
X001300Y002026D01*
X001300Y002125D02*
X001529Y002125D01*
X001617Y002223D02*
X001300Y002223D01*
X001300Y002322D02*
X001716Y002322D01*
X001930Y002420D02*
X001300Y002420D01*
X001300Y002519D02*
X003690Y002519D01*
X003690Y002617D02*
X001300Y002617D01*
X001300Y002716D02*
X003690Y002716D01*
X003690Y002814D02*
X001300Y002814D01*
X001300Y002913D02*
X003690Y002913D01*
X003690Y003011D02*
X001300Y003011D01*
X001300Y003110D02*
X003690Y003110D01*
X004150Y002844D02*
X004160Y002704D01*
X004150Y002844D02*
X004650Y003344D01*
X004650Y005844D01*
X005650Y005844D01*
X005262Y005671D02*
X005050Y005671D01*
X005050Y005572D02*
X005321Y005572D01*
X005434Y005474D02*
X005050Y005474D01*
X005013Y005375D02*
X006000Y005375D01*
X006000Y005277D02*
X005847Y005277D01*
X005988Y005178D02*
X006000Y005178D01*
X006300Y005178D02*
X008000Y005178D01*
X008000Y005080D02*
X006300Y005080D01*
X006300Y004981D02*
X008000Y004981D01*
X008000Y004883D02*
X006300Y004883D01*
X006300Y004784D02*
X008000Y004784D01*
X008000Y004686D02*
X006300Y004686D01*
X006300Y004587D02*
X008000Y004587D01*
X007907Y004489D02*
X006300Y004489D01*
X006300Y004390D02*
X007870Y004390D01*
X007870Y004292D02*
X006300Y004292D01*
X006300Y004193D02*
X007909Y004193D01*
X008021Y004095D02*
X006300Y004095D01*
X006300Y003996D02*
X006737Y003996D01*
X006704Y003982D02*
X006572Y003850D01*
X006500Y003678D01*
X006500Y003491D01*
X006572Y003318D01*
X006704Y003186D01*
X006877Y003114D01*
X007063Y003114D01*
X007236Y003186D01*
X007368Y003318D01*
X007440Y003491D01*
X007440Y003678D01*
X007368Y003850D01*
X007236Y003982D01*
X007063Y004054D01*
X006877Y004054D01*
X006704Y003982D01*
X006619Y003898D02*
X006300Y003898D01*
X006300Y003799D02*
X006550Y003799D01*
X006510Y003701D02*
X006300Y003701D01*
X006300Y003602D02*
X006500Y003602D01*
X006500Y003504D02*
X006300Y003504D01*
X006300Y003405D02*
X006535Y003405D01*
X006583Y003307D02*
X006300Y003307D01*
X006300Y003208D02*
X006681Y003208D01*
X006300Y003110D02*
X009725Y003110D01*
X009787Y003084D02*
X009973Y003084D01*
X010146Y003156D01*
X010278Y003288D01*
X010350Y003461D01*
X010350Y003648D01*
X010278Y003820D01*
X010146Y003952D01*
X009973Y004024D01*
X009787Y004024D01*
X009614Y003952D01*
X009482Y003820D01*
X009410Y003648D01*
X009410Y003461D01*
X009482Y003288D01*
X009614Y003156D01*
X009787Y003084D01*
X010035Y003110D02*
X010500Y003110D01*
X010500Y003208D02*
X010199Y003208D01*
X010286Y003307D02*
X010500Y003307D01*
X010500Y003405D02*
X010327Y003405D01*
X010350Y003504D02*
X010500Y003504D01*
X010500Y003602D02*
X010350Y003602D01*
X010328Y003701D02*
X010500Y003701D01*
X010500Y003799D02*
X010287Y003799D01*
X010201Y003898D02*
X010500Y003898D01*
X010500Y003996D02*
X010041Y003996D01*
X009719Y003996D02*
X008983Y003996D01*
X009016Y003982D02*
X008843Y004054D01*
X008657Y004054D01*
X008484Y003982D01*
X008352Y003850D01*
X008280Y003678D01*
X008280Y003491D01*
X008352Y003318D01*
X008484Y003186D01*
X008657Y003114D01*
X008843Y003114D01*
X009016Y003186D01*
X009148Y003318D01*
X009220Y003491D01*
X009220Y003678D01*
X009148Y003850D01*
X009016Y003982D01*
X009101Y003898D02*
X009559Y003898D01*
X009473Y003799D02*
X009170Y003799D01*
X009210Y003701D02*
X009432Y003701D01*
X009410Y003602D02*
X009220Y003602D01*
X009220Y003504D02*
X009410Y003504D01*
X009433Y003405D02*
X009185Y003405D01*
X009137Y003307D02*
X009474Y003307D01*
X009561Y003208D02*
X009039Y003208D01*
X008461Y003208D02*
X007259Y003208D01*
X007357Y003307D02*
X008363Y003307D01*
X008315Y003405D02*
X007405Y003405D01*
X007440Y003504D02*
X008280Y003504D01*
X008280Y003602D02*
X007440Y003602D01*
X007430Y003701D02*
X008290Y003701D01*
X008330Y003799D02*
X007390Y003799D01*
X007321Y003898D02*
X008399Y003898D01*
X008517Y003996D02*
X007203Y003996D01*
X008150Y004344D02*
X008150Y008844D01*
X009650Y008844D01*
X010650Y007844D01*
X010290Y007838D02*
X010010Y007838D01*
X010010Y007936D02*
X010290Y007936D01*
X010247Y008035D02*
X010010Y008035D01*
X010010Y008133D02*
X010149Y008133D01*
X010050Y008232D02*
X009987Y008232D01*
X009952Y008330D02*
X009933Y008330D01*
X009853Y008429D02*
X009807Y008429D01*
X009755Y008527D02*
X008300Y008527D01*
X008300Y008429D02*
X008493Y008429D01*
X008367Y008330D02*
X008300Y008330D01*
X008300Y008232D02*
X008313Y008232D01*
X008000Y008232D02*
X007987Y008232D01*
X008000Y008200D02*
X007955Y008308D01*
X007854Y008409D01*
X007722Y008464D01*
X007578Y008464D01*
X007446Y008409D01*
X007345Y008308D01*
X007290Y008176D01*
X007290Y007994D01*
X007097Y007994D01*
X007048Y008110D01*
X006916Y008242D01*
X006743Y008314D01*
X006557Y008314D01*
X006384Y008242D01*
X006300Y008159D01*
X006300Y009282D01*
X007372Y010353D01*
X007446Y010279D01*
X007578Y010224D01*
X007722Y010224D01*
X007854Y010279D01*
X007955Y010380D01*
X008010Y010512D01*
X008010Y011176D01*
X007955Y011308D01*
X007854Y011409D01*
X007722Y011464D01*
X007578Y011464D01*
X007446Y011409D01*
X007372Y011335D01*
X007300Y011406D01*
X007300Y012374D01*
X007345Y012374D01*
X007500Y012529D01*
X007500Y011782D01*
X007588Y011694D01*
X008290Y010992D01*
X008290Y010512D01*
X008345Y010380D01*
X008446Y010279D01*
X008578Y010224D01*
X008722Y010224D01*
X008854Y010279D01*
X008928Y010353D01*
X011000Y008282D01*
X011000Y008200D01*
X010955Y008308D01*
X010854Y008409D01*
X010722Y008464D01*
X010578Y008464D01*
X010446Y008409D01*
X010372Y008335D01*
X009800Y008906D01*
X009712Y008994D01*
X008088Y008994D01*
X008000Y008906D01*
X008000Y008200D01*
X008000Y008330D02*
X007933Y008330D01*
X008000Y008429D02*
X007807Y008429D01*
X008000Y008527D02*
X006300Y008527D01*
X006300Y008429D02*
X007493Y008429D01*
X007367Y008330D02*
X006300Y008330D01*
X006300Y008232D02*
X006373Y008232D01*
X005710Y008232D02*
X001300Y008232D01*
X001300Y008330D02*
X005710Y008330D01*
X005710Y008429D02*
X001300Y008429D01*
X001300Y008527D02*
X005710Y008527D01*
X005710Y008626D02*
X001300Y008626D01*
X001300Y008724D02*
X005710Y008724D01*
X005710Y008823D02*
X001300Y008823D01*
X001300Y008921D02*
X005710Y008921D01*
X005710Y009020D02*
X001300Y009020D01*
X001300Y009118D02*
X005710Y009118D01*
X005710Y009217D02*
X001300Y009217D01*
X001300Y009315D02*
X005710Y009315D01*
X005710Y009414D02*
X001300Y009414D01*
X001300Y009512D02*
X005710Y009512D01*
X005710Y009611D02*
X001300Y009611D01*
X001300Y009709D02*
X005710Y009709D01*
X005710Y009808D02*
X001300Y009808D01*
X001300Y009906D02*
X005710Y009906D01*
X005710Y010005D02*
X001300Y010005D01*
X001300Y010103D02*
X005710Y010103D01*
X005795Y010202D02*
X001300Y010202D01*
X001300Y010300D02*
X005894Y010300D01*
X005992Y010399D02*
X001300Y010399D01*
X001300Y010497D02*
X006091Y010497D01*
X006189Y010596D02*
X001300Y010596D01*
X001300Y010694D02*
X006203Y010694D01*
X006180Y010793D02*
X001300Y010793D01*
X001300Y010891D02*
X006180Y010891D01*
X006202Y010990D02*
X003919Y010990D01*
X003809Y010944D02*
X004103Y011066D01*
X004328Y011291D01*
X004450Y011585D01*
X004450Y011903D01*
X004328Y012197D01*
X004103Y012422D01*
X003809Y012544D01*
X003491Y012544D01*
X003197Y012422D01*
X002972Y012197D01*
X002850Y011903D01*
X002850Y011585D01*
X002972Y011291D01*
X003197Y011066D01*
X003491Y010944D01*
X003809Y010944D01*
X004125Y011088D02*
X006242Y011088D01*
X006328Y011187D02*
X004224Y011187D01*
X004322Y011285D02*
X006487Y011285D01*
X006813Y011285D02*
X007000Y011285D01*
X007000Y011384D02*
X004367Y011384D01*
X004407Y011482D02*
X007000Y011482D01*
X007000Y011581D02*
X004448Y011581D01*
X004450Y011679D02*
X007000Y011679D01*
X007000Y011778D02*
X004450Y011778D01*
X004450Y011876D02*
X007000Y011876D01*
X007000Y011975D02*
X004420Y011975D01*
X004380Y012073D02*
X007000Y012073D01*
X007000Y012172D02*
X004339Y012172D01*
X004255Y012270D02*
X007000Y012270D01*
X007000Y012369D02*
X004157Y012369D01*
X003995Y012467D02*
X006862Y012467D01*
X006680Y012649D02*
X006680Y013039D01*
X006955Y013314D01*
X007345Y013314D01*
X007500Y013159D01*
X007500Y013282D01*
X007376Y013406D01*
X007345Y013374D01*
X006955Y013374D01*
X006680Y013649D01*
X007428Y013354D02*
X002541Y013354D01*
X002323Y013255D02*
X006896Y013255D01*
X006798Y013157D02*
X001300Y013157D01*
X001300Y013255D02*
X001937Y013255D01*
X001719Y013354D02*
X001300Y013354D01*
X001300Y013452D02*
X001620Y013452D01*
X001530Y013551D02*
X001300Y013551D01*
X001300Y013649D02*
X001489Y013649D01*
X001448Y013748D02*
X001300Y013748D01*
X001300Y013846D02*
X001429Y013846D01*
X001429Y013945D02*
X001300Y013945D01*
X001300Y014043D02*
X001429Y014043D01*
X001457Y014142D02*
X001300Y014142D01*
X001300Y014240D02*
X001498Y014240D01*
X001543Y014339D02*
X001300Y014339D01*
X001300Y014437D02*
X001641Y014437D01*
X001750Y014536D02*
X001300Y014536D01*
X001300Y014634D02*
X001988Y014634D01*
X002272Y014634D02*
X031494Y014634D01*
X031826Y014634D02*
X032492Y014634D01*
X032492Y014536D02*
X032060Y014536D01*
X032159Y014437D02*
X032492Y014437D01*
X032492Y014339D02*
X032256Y014339D01*
X032296Y014240D02*
X032492Y014240D01*
X032492Y014142D02*
X032337Y014142D01*
X032361Y014043D02*
X032492Y014043D01*
X032492Y013945D02*
X032361Y013945D01*
X032361Y013846D02*
X032492Y013846D01*
X032492Y013748D02*
X032338Y013748D01*
X032297Y013649D02*
X032492Y013649D01*
X032492Y013551D02*
X032256Y013551D01*
X032160Y013452D02*
X032492Y013452D01*
X032492Y013354D02*
X032061Y013354D01*
X031829Y013255D02*
X032492Y013255D01*
X032492Y013157D02*
X029550Y013157D01*
X029451Y013255D02*
X031491Y013255D01*
X031259Y013354D02*
X029430Y013354D01*
X029408Y013452D02*
X031160Y013452D01*
X031064Y013551D02*
X029760Y013551D01*
X029859Y013649D02*
X031023Y013649D01*
X030982Y013748D02*
X029918Y013748D01*
X029959Y013846D02*
X030959Y013846D01*
X030959Y013945D02*
X029962Y013945D01*
X029960Y014043D02*
X030959Y014043D01*
X030983Y014142D02*
X029919Y014142D01*
X029863Y014240D02*
X031024Y014240D01*
X031064Y014339D02*
X029764Y014339D01*
X029150Y013344D02*
X029650Y012844D01*
X029650Y001844D01*
X029150Y001344D01*
X025150Y001344D01*
X025044Y001238D02*
X024756Y001238D01*
X024800Y001337D02*
X025000Y001337D01*
X025000Y001435D02*
X024906Y001435D01*
X023650Y001844D02*
X023150Y002344D01*
X023150Y006344D01*
X023150Y007844D02*
X022650Y008344D01*
X022650Y012844D01*
X026380Y011384D02*
X026500Y011384D01*
X026500Y011285D02*
X026465Y011285D01*
X026463Y010399D02*
X026500Y010399D01*
X026500Y010300D02*
X026406Y010300D01*
X026505Y010202D02*
X026580Y010202D01*
X026603Y010103D02*
X026679Y010103D01*
X026702Y010005D02*
X026777Y010005D01*
X026800Y009808D02*
X026974Y009808D01*
X027000Y009709D02*
X026800Y009709D01*
X026800Y009611D02*
X027000Y009611D01*
X026925Y009512D02*
X026800Y009512D01*
X026800Y009414D02*
X026878Y009414D01*
X026872Y009315D02*
X026800Y009315D01*
X026800Y009217D02*
X026902Y009217D01*
X026983Y009118D02*
X026800Y009118D01*
X026870Y009020D02*
X027000Y009020D01*
X027000Y008921D02*
X026921Y008921D01*
X026930Y008823D02*
X027000Y008823D01*
X024500Y010300D02*
X024375Y010300D01*
X024463Y010399D02*
X024500Y010399D01*
X023925Y010300D02*
X023818Y010300D01*
X023650Y010344D02*
X023650Y004844D01*
X025150Y003344D01*
X024700Y003307D02*
X024600Y003307D01*
X024600Y003364D02*
X024435Y003364D01*
X024130Y003059D01*
X024130Y002894D01*
X024600Y002894D01*
X024600Y003364D01*
X024600Y003208D02*
X024700Y003208D01*
X024700Y003110D02*
X024600Y003110D01*
X024600Y003011D02*
X024700Y003011D01*
X024700Y002913D02*
X024600Y002913D01*
X024180Y003110D02*
X024049Y003110D01*
X024120Y003011D02*
X024130Y003011D01*
X024120Y002913D02*
X024130Y002913D01*
X024120Y002716D02*
X024130Y002716D01*
X024142Y002617D02*
X024088Y002617D01*
X023989Y002519D02*
X024240Y002519D01*
X022650Y002844D02*
X022650Y004844D01*
X019650Y007844D01*
X017650Y007844D02*
X017650Y006844D01*
X018150Y006344D01*
X018650Y006344D01*
X019150Y006844D01*
X021650Y004344D01*
X021650Y002844D01*
X021000Y002519D02*
X020989Y002519D01*
X021000Y002420D02*
X020891Y002420D01*
X021000Y002322D02*
X018800Y002322D01*
X018800Y002420D02*
X020409Y002420D01*
X020311Y002519D02*
X018800Y002519D01*
X018800Y002617D02*
X020212Y002617D01*
X020180Y002716D02*
X018800Y002716D01*
X018800Y002814D02*
X020180Y002814D01*
X020180Y002913D02*
X018800Y002913D01*
X018800Y003011D02*
X020180Y003011D01*
X019989Y003110D02*
X018800Y003110D01*
X018800Y003208D02*
X019903Y003208D01*
X019870Y003307D02*
X018800Y003307D01*
X018800Y003405D02*
X019872Y003405D01*
X019778Y003504D02*
X018800Y003504D01*
X018800Y003602D02*
X019680Y003602D01*
X019581Y003701D02*
X018894Y003701D01*
X018930Y003799D02*
X019483Y003799D01*
X019384Y003898D02*
X018930Y003898D01*
X018890Y003996D02*
X019286Y003996D01*
X019187Y004095D02*
X018777Y004095D01*
X018650Y003844D02*
X018650Y001844D01*
X017650Y001844D02*
X016150Y001844D01*
X016300Y001632D02*
X017229Y001632D01*
X017296Y001534D02*
X016300Y001534D01*
X016300Y001435D02*
X017409Y001435D01*
X017891Y001435D02*
X018000Y001435D01*
X018000Y001337D02*
X016300Y001337D01*
X016256Y001238D02*
X018044Y001238D01*
X015296Y001534D02*
X015004Y001534D01*
X015071Y001632D02*
X015229Y001632D01*
X015188Y001731D02*
X015112Y001731D01*
X015120Y001829D02*
X015180Y001829D01*
X015180Y001928D02*
X015120Y001928D01*
X015083Y002026D02*
X015217Y002026D01*
X015266Y002125D02*
X015034Y002125D01*
X014936Y002223D02*
X015364Y002223D01*
X014650Y001844D02*
X013650Y002844D01*
X013650Y005844D01*
X013150Y005844D02*
X012900Y005844D01*
X013150Y005844D02*
X013150Y007344D01*
X013650Y007844D01*
X014010Y007838D02*
X014620Y007838D01*
X014620Y007814D02*
X014240Y007814D01*
X014240Y007552D01*
X014250Y007488D01*
X014270Y007427D01*
X014299Y007369D01*
X014337Y007317D01*
X014383Y007271D01*
X014435Y007233D01*
X014493Y007204D01*
X014554Y007184D01*
X014618Y007174D01*
X014620Y007174D01*
X014620Y007814D01*
X014680Y007814D01*
X014680Y007874D01*
X015060Y007874D01*
X015060Y008136D01*
X015050Y008200D01*
X015030Y008261D01*
X015001Y008319D01*
X014963Y008371D01*
X014917Y008417D01*
X014865Y008455D01*
X014807Y008484D01*
X014746Y008504D01*
X014682Y008514D01*
X014680Y008514D01*
X014680Y007874D01*
X014620Y007874D01*
X014620Y007814D01*
X014620Y007874D02*
X014240Y007874D01*
X014240Y008136D01*
X014250Y008200D01*
X014270Y008261D01*
X014299Y008319D01*
X014337Y008371D01*
X014383Y008417D01*
X014435Y008455D01*
X014493Y008484D01*
X014554Y008504D01*
X014618Y008514D01*
X014620Y008514D01*
X014620Y007874D01*
X014620Y007936D02*
X014680Y007936D01*
X014680Y007838D02*
X015290Y007838D01*
X015290Y007936D02*
X015060Y007936D01*
X015060Y008035D02*
X015290Y008035D01*
X015290Y008133D02*
X015060Y008133D01*
X015040Y008232D02*
X015313Y008232D01*
X015367Y008330D02*
X014993Y008330D01*
X014901Y008429D02*
X015493Y008429D01*
X015473Y008626D02*
X013300Y008626D01*
X013300Y008724D02*
X015397Y008724D01*
X015370Y008823D02*
X013300Y008823D01*
X013300Y008921D02*
X015361Y008921D01*
X015262Y009020D02*
X013300Y009020D01*
X013300Y009118D02*
X015164Y009118D01*
X015065Y009217D02*
X013300Y009217D01*
X013300Y009315D02*
X014967Y009315D01*
X014868Y009414D02*
X013300Y009414D01*
X013300Y009512D02*
X014770Y009512D01*
X014671Y009611D02*
X013300Y009611D01*
X013300Y009709D02*
X014573Y009709D01*
X014474Y009808D02*
X013300Y009808D01*
X013300Y009906D02*
X014376Y009906D01*
X014277Y010005D02*
X013300Y010005D01*
X013300Y010103D02*
X014179Y010103D01*
X014080Y010202D02*
X013800Y010202D01*
X013946Y010300D02*
X014000Y010300D01*
X014150Y010344D02*
X014150Y011844D01*
X013650Y011844D01*
X013150Y011344D01*
X013150Y008344D01*
X012650Y007844D01*
X013363Y007345D02*
X013380Y007345D01*
X013300Y007247D02*
X013524Y007247D01*
X013300Y007148D02*
X015000Y007148D01*
X015000Y007050D02*
X013300Y007050D01*
X013300Y006951D02*
X015000Y006951D01*
X015000Y006853D02*
X013300Y006853D01*
X013300Y006754D02*
X015000Y006754D01*
X015000Y006656D02*
X013300Y006656D01*
X013300Y006557D02*
X015000Y006557D01*
X014919Y006459D02*
X013300Y006459D01*
X013300Y006360D02*
X014815Y006360D01*
X014759Y006262D02*
X013300Y006262D01*
X015150Y006094D02*
X015150Y004344D01*
X014753Y004193D02*
X014600Y004193D01*
X014623Y004292D02*
X014725Y004292D01*
X014725Y004390D02*
X014624Y004390D01*
X014602Y004489D02*
X014750Y004489D01*
X014792Y004587D02*
X014559Y004587D01*
X014480Y004686D02*
X014890Y004686D01*
X015000Y004784D02*
X014333Y004784D01*
X015800Y004686D02*
X016320Y004686D01*
X016241Y004587D02*
X015800Y004587D01*
X015800Y004489D02*
X016198Y004489D01*
X016176Y004390D02*
X015800Y004390D01*
X015800Y004292D02*
X016177Y004292D01*
X016200Y004193D02*
X015800Y004193D01*
X015800Y004095D02*
X016244Y004095D01*
X016326Y003996D02*
X015800Y003996D01*
X015800Y003898D02*
X016487Y003898D01*
X015500Y003898D02*
X014313Y003898D01*
X014474Y003996D02*
X014897Y003996D01*
X014798Y004095D02*
X014556Y004095D01*
X015403Y003996D02*
X015500Y003996D01*
X016833Y004784D02*
X016998Y004784D01*
X017000Y004686D02*
X016980Y004686D01*
X017650Y004344D02*
X017650Y005344D01*
X017150Y005844D01*
X017150Y006094D01*
X017575Y006065D02*
X017717Y006065D01*
X017619Y006163D02*
X017575Y006163D01*
X017557Y005966D02*
X017816Y005966D01*
X017870Y005868D02*
X017516Y005868D01*
X017437Y005769D02*
X017878Y005769D01*
X017928Y005671D02*
X017536Y005671D01*
X017634Y005572D02*
X017982Y005572D01*
X018325Y006065D02*
X019093Y006065D01*
X019207Y006065D02*
X019217Y006065D01*
X018935Y006163D02*
X018043Y006163D01*
X018020Y006262D02*
X017945Y006262D01*
X017922Y006360D02*
X017846Y006360D01*
X017823Y006459D02*
X017748Y006459D01*
X017725Y006557D02*
X017649Y006557D01*
X017626Y006656D02*
X017551Y006656D01*
X017588Y006694D02*
X017588Y006694D01*
X017528Y006754D02*
X017452Y006754D01*
X017500Y006853D02*
X017354Y006853D01*
X017300Y006951D02*
X017500Y006951D01*
X017500Y007050D02*
X017300Y007050D01*
X017300Y007148D02*
X017500Y007148D01*
X017500Y007247D02*
X017300Y007247D01*
X017300Y007345D02*
X017380Y007345D01*
X017319Y007444D02*
X017300Y007444D01*
X017800Y006951D02*
X019045Y006951D01*
X018946Y006853D02*
X017854Y006853D01*
X017952Y006754D02*
X018848Y006754D01*
X018749Y006656D02*
X018051Y006656D01*
X018149Y006557D02*
X018651Y006557D01*
X018780Y006262D02*
X018881Y006262D01*
X019150Y006344D02*
X021150Y004344D01*
X021150Y002344D01*
X023852Y003307D02*
X024377Y003307D01*
X024279Y003208D02*
X023951Y003208D01*
X024612Y004095D02*
X024806Y004095D01*
X024692Y004193D02*
X024513Y004193D01*
X024415Y004292D02*
X024652Y004292D01*
X027300Y003208D02*
X027363Y003208D01*
X029144Y002617D02*
X029500Y002617D01*
X029500Y002519D02*
X029046Y002519D01*
X028947Y002420D02*
X029500Y002420D01*
X029500Y002322D02*
X027385Y002322D01*
X027423Y002420D02*
X027300Y002420D01*
X027300Y002519D02*
X027325Y002519D01*
X027000Y002519D02*
X026975Y002519D01*
X027000Y002420D02*
X026877Y002420D01*
X027922Y002223D02*
X028378Y002223D01*
X028280Y002125D02*
X028020Y002125D01*
X028110Y002026D02*
X028190Y002026D01*
X028190Y001928D02*
X028110Y001928D01*
X028922Y002223D02*
X029500Y002223D01*
X029500Y002125D02*
X029020Y002125D01*
X029110Y002026D02*
X029500Y002026D01*
X029500Y001928D02*
X029110Y001928D01*
X029110Y001829D02*
X029423Y001829D01*
X029324Y001731D02*
X029110Y001731D01*
X029089Y001632D02*
X029226Y001632D01*
X029127Y001534D02*
X028990Y001534D01*
X029355Y001337D02*
X031076Y001337D01*
X031029Y001435D02*
X029453Y001435D01*
X029552Y001534D02*
X030988Y001534D01*
X030959Y001632D02*
X029650Y001632D01*
X029749Y001731D02*
X030959Y001731D01*
X030959Y001829D02*
X029800Y001829D01*
X029800Y001928D02*
X030977Y001928D01*
X031018Y002026D02*
X029800Y002026D01*
X029800Y002125D02*
X031059Y002125D01*
X031147Y002223D02*
X029800Y002223D01*
X029800Y002322D02*
X031246Y002322D01*
X031460Y002420D02*
X029800Y002420D01*
X029256Y001238D02*
X031174Y001238D01*
X031287Y001140D02*
X002503Y001140D01*
X002616Y001238D02*
X006044Y001238D01*
X006000Y001337D02*
X002714Y001337D01*
X002761Y001435D02*
X006000Y001435D01*
X006000Y001534D02*
X002802Y001534D01*
X002831Y001632D02*
X006000Y001632D01*
X006000Y001731D02*
X002831Y001731D01*
X002831Y001829D02*
X006000Y001829D01*
X006000Y001928D02*
X002813Y001928D01*
X002772Y002026D02*
X006000Y002026D01*
X006000Y002125D02*
X002731Y002125D01*
X002643Y002223D02*
X004959Y002223D01*
X004960Y002222D02*
X005038Y002197D01*
X005110Y002185D01*
X005110Y002654D01*
X005210Y002654D01*
X005210Y002185D01*
X005282Y002197D01*
X005360Y002222D01*
X005433Y002259D01*
X005499Y002307D01*
X005557Y002365D01*
X005605Y002431D01*
X005642Y002504D01*
X005667Y002582D01*
X005679Y002654D01*
X005210Y002654D01*
X005210Y002754D01*
X005679Y002754D01*
X005667Y002826D01*
X005642Y002904D01*
X005605Y002977D01*
X005557Y003043D01*
X005499Y003101D01*
X005433Y003149D01*
X005360Y003186D01*
X005282Y003211D01*
X005210Y003223D01*
X005210Y002754D01*
X005110Y002754D01*
X005110Y002654D01*
X004641Y002654D01*
X004653Y002582D01*
X004678Y002504D01*
X004715Y002431D01*
X004763Y002365D01*
X004821Y002307D01*
X004887Y002259D01*
X004960Y002222D01*
X005110Y002223D02*
X005210Y002223D01*
X005210Y002322D02*
X005110Y002322D01*
X005110Y002420D02*
X005210Y002420D01*
X005210Y002519D02*
X005110Y002519D01*
X005110Y002617D02*
X005210Y002617D01*
X005210Y002716D02*
X006000Y002716D01*
X006000Y002814D02*
X005669Y002814D01*
X005637Y002913D02*
X006000Y002913D01*
X006000Y003011D02*
X005580Y003011D01*
X005487Y003110D02*
X006000Y003110D01*
X006000Y003208D02*
X005292Y003208D01*
X005210Y003208D02*
X005110Y003208D01*
X005110Y003223D02*
X005038Y003211D01*
X004960Y003186D01*
X004887Y003149D01*
X004821Y003101D01*
X004763Y003043D01*
X004715Y002977D01*
X004678Y002904D01*
X004653Y002826D01*
X004641Y002754D01*
X005110Y002754D01*
X005110Y003223D01*
X005028Y003208D02*
X004726Y003208D01*
X004800Y003307D02*
X006000Y003307D01*
X006000Y003405D02*
X004800Y003405D01*
X004800Y003504D02*
X006000Y003504D01*
X006000Y003602D02*
X004800Y003602D01*
X004800Y003701D02*
X006000Y003701D01*
X006000Y003799D02*
X004800Y003799D01*
X004800Y003898D02*
X006000Y003898D01*
X006000Y003996D02*
X004800Y003996D01*
X004800Y004095D02*
X006000Y004095D01*
X006000Y004193D02*
X004800Y004193D01*
X004800Y004292D02*
X006000Y004292D01*
X006000Y004390D02*
X005790Y004390D01*
X005669Y004390D02*
X005631Y004390D01*
X005631Y004369D02*
X005631Y004825D01*
X005175Y004825D01*
X005175Y004807D01*
X005187Y004733D01*
X005210Y004662D01*
X005244Y004595D01*
X005288Y004535D01*
X005341Y004482D01*
X005401Y004438D01*
X005468Y004404D01*
X005539Y004381D01*
X005613Y004369D01*
X005631Y004369D01*
X005631Y004489D02*
X005669Y004489D01*
X005669Y004587D02*
X005631Y004587D01*
X005631Y004686D02*
X005669Y004686D01*
X005669Y004784D02*
X005631Y004784D01*
X005650Y004844D02*
X005150Y004344D01*
X005150Y002844D01*
X005160Y002704D01*
X005110Y002716D02*
X004630Y002716D01*
X004630Y002814D02*
X004651Y002814D01*
X004630Y002913D02*
X004683Y002913D01*
X004630Y003011D02*
X004740Y003011D01*
X004833Y003110D02*
X004630Y003110D01*
X004400Y003307D02*
X001300Y003307D01*
X001300Y003405D02*
X001715Y003405D01*
X001718Y003404D02*
X001789Y003381D01*
X001863Y003369D01*
X001881Y003369D01*
X001881Y003825D01*
X001919Y003825D01*
X001919Y003863D01*
X002375Y003863D01*
X002375Y003881D01*
X002363Y003955D01*
X002340Y004026D01*
X002306Y004093D01*
X002262Y004153D01*
X002209Y004206D01*
X002149Y004250D01*
X002082Y004284D01*
X002011Y004307D01*
X001937Y004319D01*
X001919Y004319D01*
X001919Y003863D01*
X001881Y003863D01*
X001881Y003825D01*
X001425Y003825D01*
X001425Y003807D01*
X001437Y003733D01*
X001460Y003662D01*
X001494Y003595D01*
X001538Y003535D01*
X001591Y003482D01*
X001651Y003438D01*
X001718Y003404D01*
X001881Y003405D02*
X001919Y003405D01*
X001919Y003369D02*
X001937Y003369D01*
X002011Y003381D01*
X002082Y003404D01*
X002149Y003438D01*
X002209Y003482D01*
X002262Y003535D01*
X002306Y003595D01*
X002340Y003662D01*
X002363Y003733D01*
X002375Y003807D01*
X002375Y003825D01*
X001919Y003825D01*
X001919Y003369D01*
X001919Y003504D02*
X001881Y003504D01*
X001881Y003602D02*
X001919Y003602D01*
X001919Y003701D02*
X001881Y003701D01*
X001881Y003799D02*
X001919Y003799D01*
X001900Y003844D02*
X002150Y003844D01*
X002150Y005344D01*
X002650Y005844D01*
X002700Y005868D02*
X003250Y005868D01*
X003250Y005966D02*
X003100Y005966D01*
X003100Y005894D02*
X002700Y005894D01*
X002700Y005794D01*
X002600Y005794D01*
X002600Y005096D01*
X002545Y005105D01*
X002477Y005127D01*
X002414Y005159D01*
X002357Y005201D01*
X002307Y005251D01*
X002265Y005308D01*
X002233Y005371D01*
X002211Y005439D01*
X002200Y005509D01*
X002200Y005794D01*
X002600Y005794D01*
X002600Y005894D01*
X002200Y005894D01*
X002200Y006179D01*
X002211Y006249D01*
X002233Y006317D01*
X002265Y006380D01*
X002307Y006437D01*
X002357Y006487D01*
X002414Y006529D01*
X002477Y006561D01*
X002545Y006583D01*
X002600Y006592D01*
X002600Y005894D01*
X002700Y005894D01*
X002700Y006592D01*
X002755Y006583D01*
X002823Y006561D01*
X002886Y006529D01*
X002943Y006487D01*
X002993Y006437D01*
X003035Y006380D01*
X003067Y006317D01*
X003089Y006249D01*
X003100Y006179D01*
X003100Y005894D01*
X003100Y005769D02*
X003250Y005769D01*
X003250Y005671D02*
X003100Y005671D01*
X003100Y005572D02*
X003166Y005572D01*
X003150Y005344D02*
X003150Y003844D01*
X002900Y003844D01*
X003325Y003799D02*
X004500Y003799D01*
X004500Y003701D02*
X003325Y003701D01*
X003325Y003602D02*
X004500Y003602D01*
X004500Y003504D02*
X003325Y003504D01*
X002475Y003504D02*
X002231Y003504D01*
X002310Y003602D02*
X002475Y003602D01*
X002475Y003701D02*
X002353Y003701D01*
X002374Y003799D02*
X002475Y003799D01*
X002475Y003898D02*
X002372Y003898D01*
X002350Y003996D02*
X002475Y003996D01*
X002475Y004095D02*
X002305Y004095D01*
X002223Y004193D02*
X002475Y004193D01*
X002060Y004292D02*
X003000Y004292D01*
X003000Y004390D02*
X001300Y004390D01*
X001300Y004292D02*
X001740Y004292D01*
X001718Y004284D02*
X001789Y004307D01*
X001863Y004319D01*
X001881Y004319D01*
X001881Y003863D01*
X001425Y003863D01*
X001425Y003881D01*
X001437Y003955D01*
X001460Y004026D01*
X001494Y004093D01*
X001538Y004153D01*
X001591Y004206D01*
X001651Y004250D01*
X001718Y004284D01*
X001881Y004292D02*
X001919Y004292D01*
X001919Y004193D02*
X001881Y004193D01*
X001881Y004095D02*
X001919Y004095D01*
X001919Y003996D02*
X001881Y003996D01*
X001881Y003898D02*
X001919Y003898D01*
X001495Y004095D02*
X001300Y004095D01*
X001300Y004193D02*
X001577Y004193D01*
X001450Y003996D02*
X001300Y003996D01*
X001300Y003898D02*
X001428Y003898D01*
X001426Y003799D02*
X001300Y003799D01*
X001300Y003701D02*
X001447Y003701D01*
X001490Y003602D02*
X001300Y003602D01*
X001300Y003504D02*
X001569Y003504D01*
X001300Y003208D02*
X004302Y003208D01*
X004499Y003405D02*
X002085Y003405D01*
X003325Y003898D02*
X004500Y003898D01*
X004500Y003996D02*
X003325Y003996D01*
X003325Y004095D02*
X004500Y004095D01*
X004500Y004193D02*
X003325Y004193D01*
X003300Y004292D02*
X004500Y004292D01*
X004500Y004390D02*
X003300Y004390D01*
X003300Y004489D02*
X004500Y004489D01*
X004500Y004587D02*
X003300Y004587D01*
X003300Y004686D02*
X004500Y004686D01*
X004500Y004784D02*
X003300Y004784D01*
X003300Y004883D02*
X004500Y004883D01*
X004500Y004981D02*
X003300Y004981D01*
X003300Y005080D02*
X004500Y005080D01*
X004488Y005178D02*
X003812Y005178D01*
X003948Y005277D02*
X004352Y005277D01*
X004287Y005375D02*
X004013Y005375D01*
X004050Y005474D02*
X004250Y005474D01*
X004250Y005572D02*
X004050Y005572D01*
X004050Y005671D02*
X004250Y005671D01*
X004250Y005769D02*
X004050Y005769D01*
X004050Y005868D02*
X004250Y005868D01*
X004250Y005966D02*
X004050Y005966D01*
X004050Y006065D02*
X004250Y006065D01*
X004250Y006163D02*
X004050Y006163D01*
X004034Y006262D02*
X004266Y006262D01*
X004307Y006360D02*
X003993Y006360D01*
X003901Y006459D02*
X004399Y006459D01*
X004901Y006459D02*
X006000Y006459D01*
X006000Y006557D02*
X003800Y006557D01*
X003500Y006557D02*
X002831Y006557D01*
X002700Y006557D02*
X002600Y006557D01*
X002600Y006459D02*
X002700Y006459D01*
X002700Y006360D02*
X002600Y006360D01*
X002600Y006262D02*
X002700Y006262D01*
X002700Y006163D02*
X002600Y006163D01*
X002600Y006065D02*
X002700Y006065D01*
X002700Y005966D02*
X002600Y005966D01*
X002600Y005868D02*
X001300Y005868D01*
X001300Y005966D02*
X002200Y005966D01*
X002200Y006065D02*
X001300Y006065D01*
X001300Y006163D02*
X002200Y006163D01*
X002215Y006262D02*
X001300Y006262D01*
X001300Y006360D02*
X002255Y006360D01*
X002328Y006459D02*
X001300Y006459D01*
X001300Y006557D02*
X002469Y006557D01*
X002972Y006459D02*
X003399Y006459D01*
X003307Y006360D02*
X003045Y006360D01*
X003085Y006262D02*
X003266Y006262D01*
X003250Y006163D02*
X003100Y006163D01*
X003100Y006065D02*
X003250Y006065D01*
X003650Y005844D02*
X003650Y006794D01*
X005860Y006794D01*
X005860Y010054D01*
X006650Y010844D01*
X007097Y010694D02*
X007288Y010694D01*
X007290Y010793D02*
X007120Y010793D01*
X007120Y010891D02*
X007290Y010891D01*
X007290Y010990D02*
X007098Y010990D01*
X007058Y011088D02*
X007194Y011088D01*
X007095Y011187D02*
X006972Y011187D01*
X007323Y011384D02*
X007420Y011384D01*
X007300Y011482D02*
X007800Y011482D01*
X007880Y011384D02*
X007898Y011384D01*
X007965Y011285D02*
X007997Y011285D01*
X008005Y011187D02*
X008095Y011187D01*
X008010Y011088D02*
X008194Y011088D01*
X008290Y010990D02*
X008010Y010990D01*
X008010Y010891D02*
X008290Y010891D01*
X008290Y010793D02*
X008010Y010793D01*
X008010Y010694D02*
X008290Y010694D01*
X008290Y010596D02*
X008010Y010596D01*
X008004Y010497D02*
X008296Y010497D01*
X008337Y010399D02*
X007963Y010399D01*
X007875Y010300D02*
X008425Y010300D01*
X008875Y010300D02*
X008982Y010300D01*
X009080Y010202D02*
X007220Y010202D01*
X007318Y010300D02*
X007425Y010300D01*
X007121Y010103D02*
X009179Y010103D01*
X009277Y010005D02*
X007023Y010005D01*
X006924Y009906D02*
X009376Y009906D01*
X009474Y009808D02*
X006826Y009808D01*
X006727Y009709D02*
X009573Y009709D01*
X009671Y009611D02*
X006629Y009611D01*
X006530Y009512D02*
X009770Y009512D01*
X009868Y009414D02*
X006432Y009414D01*
X006333Y009315D02*
X009967Y009315D01*
X010065Y009217D02*
X006300Y009217D01*
X006300Y009118D02*
X010164Y009118D01*
X010262Y009020D02*
X006300Y009020D01*
X006300Y008921D02*
X008015Y008921D01*
X008000Y008823D02*
X006300Y008823D01*
X006300Y008724D02*
X008000Y008724D01*
X008000Y008626D02*
X006300Y008626D01*
X006927Y008232D02*
X007313Y008232D01*
X007290Y008133D02*
X007026Y008133D01*
X007080Y008035D02*
X007290Y008035D01*
X007150Y007844D02*
X006650Y007844D01*
X007150Y007844D02*
X007150Y006344D01*
X006970Y006144D01*
X007405Y005966D02*
X008000Y005966D01*
X008000Y005868D02*
X007358Y005868D01*
X007260Y005769D02*
X008000Y005769D01*
X008000Y005671D02*
X006300Y005671D01*
X006300Y005769D02*
X006680Y005769D01*
X006582Y005868D02*
X006300Y005868D01*
X006300Y005966D02*
X006535Y005966D01*
X006500Y006065D02*
X006300Y006065D01*
X006300Y006163D02*
X006500Y006163D01*
X006510Y006262D02*
X006300Y006262D01*
X006300Y006360D02*
X006551Y006360D01*
X006620Y006459D02*
X006300Y006459D01*
X006300Y006557D02*
X006739Y006557D01*
X007000Y006656D02*
X006300Y006656D01*
X006300Y006754D02*
X007000Y006754D01*
X007000Y006853D02*
X006300Y006853D01*
X006300Y006951D02*
X007000Y006951D01*
X007000Y007050D02*
X006300Y007050D01*
X006300Y007148D02*
X007000Y007148D01*
X007000Y007247D02*
X006300Y007247D01*
X006300Y007345D02*
X007000Y007345D01*
X007000Y007444D02*
X006911Y007444D01*
X007300Y007444D02*
X007319Y007444D01*
X007300Y007345D02*
X007380Y007345D01*
X007300Y007247D02*
X007524Y007247D01*
X007300Y007148D02*
X008000Y007148D01*
X008000Y007050D02*
X007300Y007050D01*
X007300Y006951D02*
X008000Y006951D01*
X008000Y006853D02*
X007300Y006853D01*
X007300Y006754D02*
X008000Y006754D01*
X008000Y006656D02*
X007300Y006656D01*
X007300Y006557D02*
X008000Y006557D01*
X008000Y006459D02*
X007320Y006459D01*
X007389Y006360D02*
X008000Y006360D01*
X008000Y006262D02*
X007430Y006262D01*
X007440Y006163D02*
X008000Y006163D01*
X008000Y006065D02*
X007440Y006065D01*
X008300Y005868D02*
X008308Y005868D01*
X008300Y005769D02*
X008390Y005769D01*
X008300Y005671D02*
X008534Y005671D01*
X008700Y005671D02*
X008800Y005671D01*
X008800Y005769D02*
X008700Y005769D01*
X008700Y005868D02*
X008800Y005868D01*
X008800Y005966D02*
X008700Y005966D01*
X008700Y006065D02*
X008800Y006065D01*
X008800Y006163D02*
X009606Y006163D01*
X009508Y006262D02*
X009258Y006262D01*
X009224Y006360D02*
X009452Y006360D01*
X009411Y006459D02*
X009164Y006459D01*
X009066Y006557D02*
X009410Y006557D01*
X009413Y006656D02*
X008844Y006656D01*
X008800Y006656D02*
X008700Y006656D01*
X008656Y006656D02*
X008300Y006656D01*
X008300Y006754D02*
X009454Y006754D01*
X009429Y006853D02*
X008300Y006853D01*
X008300Y006951D02*
X009331Y006951D01*
X009232Y007050D02*
X008300Y007050D01*
X008300Y007148D02*
X009134Y007148D01*
X009035Y007247D02*
X008776Y007247D01*
X008920Y007345D02*
X008937Y007345D01*
X009263Y007444D02*
X009319Y007444D01*
X009290Y007542D02*
X009164Y007542D01*
X009066Y007641D02*
X009290Y007641D01*
X009290Y007739D02*
X009010Y007739D01*
X009010Y007838D02*
X009290Y007838D01*
X009290Y007936D02*
X009010Y007936D01*
X009010Y008035D02*
X009290Y008035D01*
X009290Y008133D02*
X009010Y008133D01*
X008987Y008232D02*
X009313Y008232D01*
X009367Y008330D02*
X008933Y008330D01*
X008807Y008429D02*
X009493Y008429D01*
X009656Y008626D02*
X008300Y008626D01*
X009785Y008921D02*
X010361Y008921D01*
X010459Y008823D02*
X009884Y008823D01*
X009982Y008724D02*
X010558Y008724D01*
X010656Y008626D02*
X010081Y008626D01*
X010179Y008527D02*
X010755Y008527D01*
X010807Y008429D02*
X010853Y008429D01*
X010933Y008330D02*
X010952Y008330D01*
X010987Y008232D02*
X011000Y008232D01*
X011300Y008232D02*
X011313Y008232D01*
X011300Y008330D02*
X011367Y008330D01*
X011278Y008429D02*
X011493Y008429D01*
X010493Y008429D02*
X010278Y008429D01*
X010290Y007739D02*
X010010Y007739D01*
X010066Y007641D02*
X010290Y007641D01*
X010290Y007542D02*
X010164Y007542D01*
X010263Y007444D02*
X010319Y007444D01*
X010361Y007345D02*
X010380Y007345D01*
X010460Y007247D02*
X010524Y007247D01*
X010134Y007148D02*
X009558Y007148D01*
X009524Y007247D02*
X009460Y007247D01*
X009380Y007345D02*
X009361Y007345D01*
X009776Y007247D02*
X010035Y007247D01*
X009937Y007345D02*
X009920Y007345D01*
X009657Y007050D02*
X010232Y007050D01*
X010148Y006951D02*
X010331Y006951D01*
X010246Y006853D02*
X010429Y006853D01*
X010500Y006754D02*
X010306Y006754D01*
X010347Y006656D02*
X010500Y006656D01*
X010500Y006557D02*
X010350Y006557D01*
X010349Y006459D02*
X010500Y006459D01*
X010500Y006360D02*
X010308Y006360D01*
X010252Y006262D02*
X010500Y006262D01*
X010500Y006163D02*
X010154Y006163D01*
X010500Y006065D02*
X009264Y006065D01*
X009239Y005966D02*
X010500Y005966D01*
X010500Y005868D02*
X009192Y005868D01*
X009110Y005769D02*
X010500Y005769D01*
X010500Y005671D02*
X008966Y005671D01*
X008300Y005572D02*
X010500Y005572D01*
X010500Y005474D02*
X008300Y005474D01*
X008300Y005375D02*
X010500Y005375D01*
X010500Y005277D02*
X008300Y005277D01*
X008300Y005178D02*
X010500Y005178D01*
X010500Y005080D02*
X008300Y005080D01*
X008300Y004981D02*
X010500Y004981D01*
X010500Y004883D02*
X008300Y004883D01*
X008300Y004784D02*
X010500Y004784D01*
X010500Y004686D02*
X008300Y004686D01*
X008300Y004587D02*
X010500Y004587D01*
X010500Y004489D02*
X008393Y004489D01*
X008430Y004390D02*
X010500Y004390D01*
X010500Y004292D02*
X008430Y004292D01*
X008391Y004193D02*
X010500Y004193D01*
X010500Y004095D02*
X008279Y004095D01*
X006000Y004489D02*
X005966Y004489D01*
X005510Y004390D02*
X004800Y004390D01*
X004800Y004489D02*
X005334Y004489D01*
X005250Y004587D02*
X004800Y004587D01*
X004800Y004686D02*
X005202Y004686D01*
X005179Y004784D02*
X004800Y004784D01*
X004800Y004883D02*
X005175Y004883D01*
X005175Y004881D02*
X005175Y004863D01*
X005631Y004863D01*
X005631Y005319D01*
X005613Y005319D01*
X005539Y005307D01*
X005468Y005284D01*
X005401Y005250D01*
X005341Y005206D01*
X005288Y005153D01*
X005244Y005093D01*
X005210Y005026D01*
X005187Y004955D01*
X005175Y004881D01*
X005195Y004981D02*
X004800Y004981D01*
X004800Y005080D02*
X005237Y005080D01*
X005312Y005178D02*
X004812Y005178D01*
X004948Y005277D02*
X005453Y005277D01*
X005631Y005277D02*
X005669Y005277D01*
X005669Y005178D02*
X005631Y005178D01*
X005631Y005080D02*
X005669Y005080D01*
X005669Y004981D02*
X005631Y004981D01*
X005631Y004883D02*
X005669Y004883D01*
X006300Y005277D02*
X008000Y005277D01*
X008000Y005375D02*
X006300Y005375D01*
X006300Y005474D02*
X008000Y005474D01*
X008000Y005572D02*
X006300Y005572D01*
X006000Y005572D02*
X005979Y005572D01*
X006000Y005474D02*
X005866Y005474D01*
X005281Y006065D02*
X005050Y006065D01*
X005050Y006163D02*
X005368Y006163D01*
X005547Y006262D02*
X005034Y006262D01*
X004993Y006360D02*
X006000Y006360D01*
X006000Y006262D02*
X005753Y006262D01*
X005932Y006163D02*
X006000Y006163D01*
X006000Y006656D02*
X005934Y006656D01*
X005710Y006951D02*
X001300Y006951D01*
X001300Y006853D02*
X003500Y006853D01*
X003500Y006754D02*
X001300Y006754D01*
X001300Y006656D02*
X003500Y006656D01*
X003650Y005844D02*
X003150Y005344D01*
X003300Y005277D02*
X003352Y005277D01*
X003300Y005178D02*
X003488Y005178D01*
X003000Y005178D02*
X002912Y005178D01*
X003000Y005080D02*
X001300Y005080D01*
X001300Y005178D02*
X002388Y005178D01*
X002288Y005277D02*
X001300Y005277D01*
X001300Y005375D02*
X002232Y005375D01*
X002206Y005474D02*
X001300Y005474D01*
X001300Y005572D02*
X002200Y005572D01*
X002200Y005671D02*
X001300Y005671D01*
X001300Y005769D02*
X002200Y005769D01*
X002600Y005769D02*
X002700Y005769D01*
X002700Y005671D02*
X002600Y005671D01*
X002600Y005572D02*
X002700Y005572D01*
X002700Y005474D02*
X002600Y005474D01*
X002600Y005375D02*
X002700Y005375D01*
X002700Y005277D02*
X002600Y005277D01*
X002600Y005178D02*
X002700Y005178D01*
X003000Y004981D02*
X001300Y004981D01*
X001300Y004883D02*
X003000Y004883D01*
X003000Y004784D02*
X001300Y004784D01*
X001300Y004686D02*
X003000Y004686D01*
X003000Y004587D02*
X001300Y004587D01*
X001300Y004489D02*
X003000Y004489D01*
X005110Y003110D02*
X005210Y003110D01*
X005210Y003011D02*
X005110Y003011D01*
X005110Y002913D02*
X005210Y002913D01*
X005210Y002814D02*
X005110Y002814D01*
X004647Y002617D02*
X004630Y002617D01*
X004630Y002519D02*
X004674Y002519D01*
X004630Y002420D02*
X004724Y002420D01*
X004807Y002322D02*
X004630Y002322D01*
X005361Y002223D02*
X006000Y002223D01*
X006000Y002322D02*
X005513Y002322D01*
X005596Y002420D02*
X006000Y002420D01*
X006000Y002519D02*
X005646Y002519D01*
X005673Y002617D02*
X006000Y002617D01*
X006300Y002617D02*
X006965Y002617D01*
X006983Y002643D02*
X006935Y002577D01*
X006898Y002504D01*
X006873Y002426D01*
X006861Y002354D01*
X007330Y002354D01*
X007330Y002254D01*
X007430Y002254D01*
X007430Y001785D01*
X007502Y001797D01*
X007580Y001822D01*
X007653Y001859D01*
X007719Y001907D01*
X007777Y001965D01*
X007825Y002031D01*
X007862Y002104D01*
X007880Y002160D01*
X007898Y002104D01*
X007935Y002031D01*
X007983Y001965D01*
X008041Y001907D01*
X008107Y001859D01*
X008180Y001822D01*
X008258Y001797D01*
X008330Y001785D01*
X008330Y002254D01*
X008430Y002254D01*
X008430Y001785D01*
X008502Y001797D01*
X008580Y001822D01*
X008653Y001859D01*
X008719Y001907D01*
X008777Y001965D01*
X008825Y002031D01*
X008862Y002104D01*
X008887Y002182D01*
X008899Y002254D01*
X008430Y002254D01*
X008430Y002354D01*
X008899Y002354D01*
X008887Y002426D01*
X008862Y002504D01*
X008825Y002577D01*
X008777Y002643D01*
X008719Y002701D01*
X008653Y002749D01*
X008580Y002786D01*
X008502Y002811D01*
X008430Y002823D01*
X008430Y002354D01*
X008330Y002354D01*
X008330Y002254D01*
X007430Y002254D01*
X007430Y002354D01*
X007899Y002354D01*
X008330Y002354D01*
X008330Y002823D01*
X008258Y002811D01*
X008180Y002786D01*
X008107Y002749D01*
X008041Y002701D01*
X007983Y002643D01*
X007935Y002577D01*
X007898Y002504D01*
X007880Y002448D01*
X007862Y002504D01*
X007825Y002577D01*
X007777Y002643D01*
X007719Y002701D01*
X007653Y002749D01*
X007580Y002786D01*
X007502Y002811D01*
X007430Y002823D01*
X007430Y002354D01*
X007330Y002354D01*
X007330Y002823D01*
X007258Y002811D01*
X007180Y002786D01*
X007107Y002749D01*
X007041Y002701D01*
X006983Y002643D01*
X007062Y002716D02*
X006300Y002716D01*
X006300Y002814D02*
X007276Y002814D01*
X007330Y002814D02*
X007430Y002814D01*
X007484Y002814D02*
X008276Y002814D01*
X008330Y002814D02*
X008430Y002814D01*
X008484Y002814D02*
X010500Y002814D01*
X010500Y002913D02*
X006300Y002913D01*
X006300Y003011D02*
X010500Y003011D01*
X010800Y003011D02*
X011771Y003011D01*
X011869Y002913D02*
X010800Y002913D01*
X010800Y002814D02*
X011968Y002814D01*
X011910Y002716D02*
X011615Y002716D01*
X011646Y002702D02*
X011473Y002774D01*
X011287Y002774D01*
X011114Y002702D01*
X010982Y002570D01*
X010910Y002398D01*
X010910Y002211D01*
X010982Y002038D01*
X011114Y001906D01*
X011287Y001834D01*
X011473Y001834D01*
X011646Y001906D01*
X011778Y002038D01*
X011850Y002211D01*
X011850Y002398D01*
X011778Y002570D01*
X011646Y002702D01*
X011732Y002617D02*
X011910Y002617D01*
X011910Y002519D02*
X011800Y002519D01*
X011841Y002420D02*
X011910Y002420D01*
X011910Y002322D02*
X011850Y002322D01*
X011850Y002223D02*
X011910Y002223D01*
X011910Y002125D02*
X011814Y002125D01*
X011767Y002026D02*
X011910Y002026D01*
X011910Y001928D02*
X011668Y001928D01*
X011092Y001928D02*
X010668Y001928D01*
X010767Y002026D02*
X010993Y002026D01*
X010946Y002125D02*
X010814Y002125D01*
X010850Y002223D02*
X010910Y002223D01*
X010910Y002322D02*
X010850Y002322D01*
X010841Y002420D02*
X010919Y002420D01*
X010960Y002519D02*
X010800Y002519D01*
X010800Y002617D02*
X011028Y002617D01*
X011145Y002716D02*
X010800Y002716D01*
X010650Y002344D02*
X010380Y002304D01*
X010650Y002344D02*
X010650Y006844D01*
X009650Y007844D01*
X009650Y006844D02*
X008650Y007844D01*
X008319Y007444D02*
X008300Y007444D01*
X008300Y007345D02*
X008380Y007345D01*
X008300Y007247D02*
X008524Y007247D01*
X008000Y007247D02*
X007776Y007247D01*
X007920Y007345D02*
X008000Y007345D01*
X008000Y007444D02*
X007981Y007444D01*
X007650Y007844D02*
X007150Y007844D01*
X006389Y007444D02*
X006300Y007444D01*
X005710Y007444D02*
X001300Y007444D01*
X001300Y007542D02*
X005710Y007542D01*
X005710Y007641D02*
X001300Y007641D01*
X001300Y007739D02*
X005710Y007739D01*
X005710Y007838D02*
X001300Y007838D01*
X001300Y007936D02*
X005710Y007936D01*
X005710Y008035D02*
X001300Y008035D01*
X001300Y008133D02*
X005710Y008133D01*
X005710Y007345D02*
X001300Y007345D01*
X001300Y007247D02*
X005710Y007247D01*
X005710Y007148D02*
X001300Y007148D01*
X001300Y007050D02*
X005710Y007050D01*
X008300Y006557D02*
X008434Y006557D01*
X008336Y006459D02*
X008300Y006459D01*
X008700Y006459D02*
X008800Y006459D01*
X008800Y006557D02*
X008700Y006557D01*
X008700Y006360D02*
X008800Y006360D01*
X008800Y006262D02*
X008700Y006262D01*
X009650Y006844D02*
X009880Y006554D01*
X010800Y005178D02*
X010883Y005178D01*
X012028Y005178D02*
X012562Y005178D01*
X012487Y005080D02*
X012127Y005080D01*
X012225Y004981D02*
X012445Y004981D01*
X012425Y004883D02*
X012324Y004883D01*
X012422Y004784D02*
X012429Y004784D01*
X010904Y004489D02*
X010800Y004489D01*
X010800Y004587D02*
X010806Y004587D01*
X010800Y004193D02*
X010898Y004193D01*
X011150Y003844D02*
X012150Y002844D01*
X012150Y002344D01*
X012380Y002304D01*
X012850Y002026D02*
X014217Y002026D01*
X014180Y001928D02*
X012850Y001928D01*
X014180Y001829D02*
X008593Y001829D01*
X008430Y001829D02*
X008330Y001829D01*
X008330Y001928D02*
X008430Y001928D01*
X008430Y002026D02*
X008330Y002026D01*
X008330Y002125D02*
X008430Y002125D01*
X008430Y002223D02*
X008330Y002223D01*
X008380Y002304D02*
X008150Y002344D01*
X007650Y002344D01*
X007380Y002304D01*
X007430Y002322D02*
X008330Y002322D01*
X008330Y002420D02*
X008430Y002420D01*
X008430Y002322D02*
X008910Y002322D01*
X008910Y002398D02*
X008910Y002211D01*
X008982Y002038D01*
X009114Y001906D01*
X009287Y001834D01*
X009473Y001834D01*
X009646Y001906D01*
X009778Y002038D01*
X009850Y002211D01*
X009850Y002398D01*
X009778Y002570D01*
X009646Y002702D01*
X009473Y002774D01*
X009287Y002774D01*
X009114Y002702D01*
X008982Y002570D01*
X008910Y002398D01*
X008919Y002420D02*
X008888Y002420D01*
X008854Y002519D02*
X008960Y002519D01*
X009028Y002617D02*
X008795Y002617D01*
X008698Y002716D02*
X009145Y002716D01*
X009615Y002716D02*
X010145Y002716D01*
X010028Y002617D02*
X009732Y002617D01*
X009800Y002519D02*
X009960Y002519D01*
X009919Y002420D02*
X009841Y002420D01*
X009850Y002322D02*
X009910Y002322D01*
X009910Y002223D02*
X009850Y002223D01*
X009814Y002125D02*
X009946Y002125D01*
X009993Y002026D02*
X009767Y002026D01*
X009668Y001928D02*
X010092Y001928D01*
X009092Y001928D02*
X008739Y001928D01*
X008821Y002026D02*
X008993Y002026D01*
X008946Y002125D02*
X008868Y002125D01*
X008894Y002223D02*
X008910Y002223D01*
X008430Y002519D02*
X008330Y002519D01*
X008330Y002617D02*
X008430Y002617D01*
X008430Y002716D02*
X008330Y002716D01*
X008062Y002716D02*
X007698Y002716D01*
X007795Y002617D02*
X007965Y002617D01*
X007906Y002519D02*
X007854Y002519D01*
X007430Y002519D02*
X007330Y002519D01*
X007330Y002617D02*
X007430Y002617D01*
X007430Y002716D02*
X007330Y002716D01*
X007330Y002420D02*
X007430Y002420D01*
X007330Y002322D02*
X006300Y002322D01*
X006300Y002420D02*
X006872Y002420D01*
X006906Y002519D02*
X006300Y002519D01*
X006861Y002254D02*
X006873Y002182D01*
X006898Y002104D01*
X006935Y002031D01*
X006983Y001965D01*
X007041Y001907D01*
X007107Y001859D01*
X007180Y001822D01*
X007258Y001797D01*
X007330Y001785D01*
X007330Y002254D01*
X006861Y002254D01*
X006866Y002223D02*
X006300Y002223D01*
X006300Y002125D02*
X006892Y002125D01*
X006939Y002026D02*
X006300Y002026D01*
X006300Y001928D02*
X007021Y001928D01*
X007167Y001829D02*
X006300Y001829D01*
X006300Y001731D02*
X014188Y001731D01*
X014229Y001632D02*
X006300Y001632D01*
X006300Y001534D02*
X014296Y001534D01*
X011672Y003110D02*
X010800Y003110D01*
X010800Y003208D02*
X011574Y003208D01*
X011475Y003307D02*
X010800Y003307D01*
X010800Y003405D02*
X011377Y003405D01*
X010889Y003504D02*
X010800Y003504D01*
X007892Y002125D02*
X007868Y002125D01*
X007821Y002026D02*
X007939Y002026D01*
X008021Y001928D02*
X007739Y001928D01*
X007593Y001829D02*
X008167Y001829D01*
X007430Y001829D02*
X007330Y001829D01*
X007330Y001928D02*
X007430Y001928D01*
X007430Y002026D02*
X007330Y002026D01*
X007330Y002125D02*
X007430Y002125D01*
X007430Y002223D02*
X007330Y002223D01*
X003690Y002322D02*
X002544Y002322D01*
X002330Y002420D02*
X003690Y002420D01*
X015150Y006094D02*
X015150Y007344D01*
X015650Y007844D01*
X015290Y007739D02*
X015060Y007739D01*
X015060Y007641D02*
X015234Y007641D01*
X015136Y007542D02*
X015058Y007542D01*
X015035Y007444D02*
X015037Y007444D01*
X015000Y007345D02*
X014983Y007345D01*
X015000Y007247D02*
X014883Y007247D01*
X014680Y007247D02*
X014620Y007247D01*
X014620Y007345D02*
X014680Y007345D01*
X014680Y007444D02*
X014620Y007444D01*
X014620Y007542D02*
X014680Y007542D01*
X014680Y007641D02*
X014620Y007641D01*
X014620Y007739D02*
X014680Y007739D01*
X014240Y007739D02*
X014010Y007739D01*
X014010Y007641D02*
X014240Y007641D01*
X014242Y007542D02*
X014010Y007542D01*
X013981Y007444D02*
X014265Y007444D01*
X014317Y007345D02*
X013920Y007345D01*
X013776Y007247D02*
X014417Y007247D01*
X015300Y007247D02*
X015524Y007247D01*
X015380Y007345D02*
X015363Y007345D01*
X015300Y007148D02*
X016000Y007148D01*
X016000Y007050D02*
X015840Y007050D01*
X015909Y006951D02*
X016000Y006951D01*
X016000Y006853D02*
X015930Y006853D01*
X015916Y006754D02*
X016000Y006754D01*
X016000Y006656D02*
X015857Y006656D01*
X015800Y006557D02*
X016000Y006557D01*
X016000Y006459D02*
X015800Y006459D01*
X015460Y007050D02*
X015300Y007050D01*
X015776Y007247D02*
X016000Y007247D01*
X016000Y007345D02*
X015920Y007345D01*
X015981Y007444D02*
X016000Y007444D01*
X014680Y008035D02*
X014620Y008035D01*
X014620Y008133D02*
X014680Y008133D01*
X014680Y008232D02*
X014620Y008232D01*
X014620Y008330D02*
X014680Y008330D01*
X014680Y008429D02*
X014620Y008429D01*
X014399Y008429D02*
X013807Y008429D01*
X013933Y008330D02*
X014307Y008330D01*
X014260Y008232D02*
X013987Y008232D01*
X014010Y008133D02*
X014240Y008133D01*
X014240Y008035D02*
X014010Y008035D01*
X014010Y007936D02*
X014240Y007936D01*
X015933Y008330D02*
X016000Y008330D01*
X015987Y008232D02*
X016000Y008232D01*
X016300Y008232D02*
X016313Y008232D01*
X016300Y008330D02*
X016367Y008330D01*
X016300Y008429D02*
X016493Y008429D01*
X016300Y008527D02*
X017000Y008527D01*
X017000Y008429D02*
X016807Y008429D01*
X016933Y008330D02*
X017000Y008330D01*
X016987Y008232D02*
X017000Y008232D01*
X017300Y008232D02*
X017313Y008232D01*
X017300Y008330D02*
X017367Y008330D01*
X016000Y008823D02*
X015930Y008823D01*
X015921Y008921D02*
X016000Y008921D01*
X016000Y009020D02*
X015870Y009020D01*
X016000Y009118D02*
X015720Y009118D01*
X015490Y009217D02*
X016000Y009217D01*
X016000Y009315D02*
X015391Y009315D01*
X015293Y009414D02*
X016000Y009414D01*
X016000Y009512D02*
X015194Y009512D01*
X015096Y009611D02*
X016000Y009611D01*
X016000Y009709D02*
X014997Y009709D01*
X014899Y009808D02*
X016000Y009808D01*
X016000Y009906D02*
X014800Y009906D01*
X014702Y010005D02*
X016000Y010005D01*
X016000Y010103D02*
X014603Y010103D01*
X014875Y010300D02*
X015425Y010300D01*
X015337Y010399D02*
X014963Y010399D01*
X015004Y010497D02*
X015296Y010497D01*
X015290Y010596D02*
X015010Y010596D01*
X015010Y010694D02*
X015290Y010694D01*
X015290Y010793D02*
X015010Y010793D01*
X015010Y010891D02*
X015290Y010891D01*
X015290Y010990D02*
X015010Y010990D01*
X015010Y011088D02*
X015194Y011088D01*
X015095Y011187D02*
X015005Y011187D01*
X015088Y011194D02*
X015088Y011194D01*
X015000Y011285D02*
X014965Y011285D01*
X015000Y011384D02*
X014880Y011384D01*
X014800Y011482D02*
X015000Y011482D01*
X015000Y011581D02*
X014800Y011581D01*
X014800Y011679D02*
X015000Y011679D01*
X015000Y011778D02*
X014800Y011778D01*
X014800Y011876D02*
X015000Y011876D01*
X015000Y011975D02*
X014800Y011975D01*
X014950Y012073D02*
X015000Y012073D01*
X015300Y011975D02*
X015417Y011975D01*
X016021Y012073D02*
X016483Y012073D01*
X016817Y012073D02*
X017000Y012073D01*
X017000Y011975D02*
X016899Y011975D01*
X016930Y011876D02*
X017000Y011876D01*
X017000Y011778D02*
X016926Y011778D01*
X016881Y011679D02*
X017000Y011679D01*
X017000Y011581D02*
X016746Y011581D01*
X016650Y011844D02*
X016150Y011344D01*
X016000Y011384D02*
X015880Y011384D01*
X015965Y011285D02*
X016000Y011285D01*
X015650Y010844D02*
X015150Y011344D01*
X014500Y011482D02*
X014300Y011482D01*
X014300Y011384D02*
X014420Y011384D01*
X014335Y011285D02*
X014300Y011285D01*
X014000Y011320D02*
X013963Y011371D01*
X013917Y011417D01*
X013865Y011455D01*
X013807Y011484D01*
X013746Y011504D01*
X013682Y011514D01*
X013680Y011514D01*
X013680Y010874D01*
X013620Y010874D01*
X013620Y011514D01*
X013618Y011514D01*
X013554Y011504D01*
X013507Y011489D01*
X013712Y011694D01*
X014000Y011694D01*
X014000Y011320D01*
X014000Y011384D02*
X013950Y011384D01*
X014000Y011482D02*
X013811Y011482D01*
X013680Y011482D02*
X013620Y011482D01*
X013620Y011384D02*
X013680Y011384D01*
X013680Y011285D02*
X013620Y011285D01*
X013620Y011187D02*
X013680Y011187D01*
X013680Y011088D02*
X013620Y011088D01*
X013620Y010990D02*
X013680Y010990D01*
X013680Y010891D02*
X013620Y010891D01*
X013000Y011285D02*
X012965Y011285D01*
X013000Y011384D02*
X012880Y011384D01*
X013076Y011482D02*
X012224Y011482D01*
X012126Y011581D02*
X013174Y011581D01*
X013128Y011679D02*
X013032Y011679D01*
X013032Y011615D02*
X013032Y012086D01*
X012561Y012086D01*
X012573Y012012D01*
X012598Y011934D01*
X012635Y011861D01*
X012683Y011795D01*
X012741Y011737D01*
X012807Y011689D01*
X012880Y011652D01*
X012958Y011627D01*
X013032Y011615D01*
X013032Y011778D02*
X013128Y011778D01*
X013128Y011876D02*
X013032Y011876D01*
X013032Y011975D02*
X013128Y011975D01*
X013128Y012073D02*
X013032Y012073D01*
X013032Y012172D02*
X011800Y012172D01*
X011800Y012270D02*
X012577Y012270D01*
X012573Y012256D02*
X012561Y012182D01*
X013032Y012182D01*
X013032Y012653D01*
X012958Y012641D01*
X012880Y012616D01*
X012807Y012579D01*
X012741Y012531D01*
X012683Y012473D01*
X012635Y012407D01*
X012598Y012334D01*
X012573Y012256D01*
X012616Y012369D02*
X011800Y012369D01*
X011739Y012467D02*
X012679Y012467D01*
X012789Y012566D02*
X011641Y012566D01*
X011800Y012073D02*
X012563Y012073D01*
X012585Y011975D02*
X011800Y011975D01*
X011830Y011876D02*
X012628Y011876D01*
X012701Y011778D02*
X011929Y011778D01*
X012027Y011679D02*
X012828Y011679D01*
X012420Y011384D02*
X012323Y011384D01*
X011997Y011285D02*
X011965Y011285D01*
X012005Y011187D02*
X012095Y011187D01*
X012010Y011088D02*
X012194Y011088D01*
X012290Y010990D02*
X012010Y010990D01*
X011898Y011384D02*
X011880Y011384D01*
X011800Y011482D02*
X010224Y011482D01*
X010323Y011384D02*
X010420Y011384D01*
X009997Y011285D02*
X009965Y011285D01*
X010005Y011187D02*
X010095Y011187D01*
X010010Y011088D02*
X010194Y011088D01*
X010290Y010990D02*
X010010Y010990D01*
X010010Y010891D02*
X010290Y010891D01*
X010290Y010793D02*
X010010Y010793D01*
X010010Y010694D02*
X010290Y010694D01*
X010290Y010596D02*
X010010Y010596D01*
X010004Y010497D02*
X010296Y010497D01*
X010337Y010399D02*
X009963Y010399D01*
X009875Y010300D02*
X010425Y010300D01*
X010650Y010844D02*
X009150Y012344D01*
X008650Y012344D01*
X008650Y013344D01*
X008800Y013255D02*
X008896Y013255D01*
X008150Y012844D02*
X008150Y012344D01*
X009650Y010844D01*
X009290Y010891D02*
X009010Y010891D01*
X009010Y010793D02*
X009290Y010793D01*
X009290Y010694D02*
X009012Y010694D01*
X009111Y010596D02*
X009290Y010596D01*
X009296Y010497D02*
X009209Y010497D01*
X009308Y010399D02*
X009337Y010399D01*
X009406Y010300D02*
X009425Y010300D01*
X009290Y010990D02*
X009010Y010990D01*
X009010Y011088D02*
X009194Y011088D01*
X009095Y011187D02*
X009005Y011187D01*
X008997Y011285D02*
X008965Y011285D01*
X008898Y011384D02*
X008880Y011384D01*
X008800Y011482D02*
X008224Y011482D01*
X008126Y011581D02*
X008701Y011581D01*
X008603Y011679D02*
X008027Y011679D01*
X007929Y011778D02*
X008504Y011778D01*
X008406Y011876D02*
X007830Y011876D01*
X007800Y011975D02*
X008307Y011975D01*
X008209Y012073D02*
X007800Y012073D01*
X007800Y012172D02*
X008110Y012172D01*
X008012Y012270D02*
X007800Y012270D01*
X007800Y012369D02*
X008000Y012369D01*
X007862Y012467D02*
X007800Y012467D01*
X007500Y012467D02*
X007438Y012467D01*
X007500Y012369D02*
X007300Y012369D01*
X007300Y012270D02*
X007500Y012270D01*
X007500Y012172D02*
X007300Y012172D01*
X007300Y012073D02*
X007500Y012073D01*
X007500Y011975D02*
X007300Y011975D01*
X007300Y011876D02*
X007500Y011876D01*
X007504Y011778D02*
X007300Y011778D01*
X007300Y011679D02*
X007603Y011679D01*
X007588Y011694D02*
X007588Y011694D01*
X007701Y011581D02*
X007300Y011581D01*
X008323Y011384D02*
X008420Y011384D01*
X008929Y011778D02*
X009504Y011778D01*
X009406Y011876D02*
X008830Y011876D01*
X008732Y011975D02*
X009307Y011975D01*
X009209Y012073D02*
X008633Y012073D01*
X008535Y012172D02*
X009110Y012172D01*
X008512Y012270D02*
X008436Y012270D01*
X008500Y012369D02*
X008338Y012369D01*
X008438Y012467D02*
X008500Y012467D01*
X006680Y012960D02*
X001300Y012960D01*
X001300Y013058D02*
X006699Y013058D01*
X007404Y013255D02*
X007500Y013255D01*
X007800Y013255D02*
X007896Y013255D01*
X011482Y011876D02*
X011500Y011876D01*
X011504Y011778D02*
X011388Y011778D01*
X011210Y011679D02*
X011603Y011679D01*
X009898Y011384D02*
X009880Y011384D01*
X009800Y011482D02*
X009224Y011482D01*
X009126Y011581D02*
X009701Y011581D01*
X009603Y011679D02*
X009027Y011679D01*
X009323Y011384D02*
X009420Y011384D01*
X007189Y010596D02*
X007056Y010596D01*
X007091Y010497D02*
X006968Y010497D01*
X006992Y010399D02*
X006803Y010399D01*
X006894Y010300D02*
X006318Y010300D01*
X006220Y010202D02*
X006795Y010202D01*
X006697Y010103D02*
X006121Y010103D01*
X006023Y010005D02*
X006598Y010005D01*
X006500Y009906D02*
X006010Y009906D01*
X006010Y009808D02*
X006401Y009808D01*
X006303Y009709D02*
X006010Y009709D01*
X006010Y009611D02*
X006204Y009611D01*
X006106Y009512D02*
X006010Y009512D01*
X006417Y010399D02*
X006497Y010399D01*
X003381Y010990D02*
X001300Y010990D01*
X001300Y011088D02*
X003175Y011088D01*
X003076Y011187D02*
X001300Y011187D01*
X001300Y011285D02*
X002978Y011285D01*
X002933Y011384D02*
X001300Y011384D01*
X001300Y011482D02*
X002893Y011482D01*
X002852Y011581D02*
X001300Y011581D01*
X001300Y011679D02*
X002850Y011679D01*
X002850Y011778D02*
X001300Y011778D01*
X001300Y011876D02*
X002850Y011876D01*
X002880Y011975D02*
X001300Y011975D01*
X001300Y012073D02*
X002920Y012073D01*
X002961Y012172D02*
X001300Y012172D01*
X001300Y012270D02*
X003045Y012270D01*
X003143Y012369D02*
X001300Y012369D01*
X001300Y012467D02*
X003305Y012467D01*
X001300Y014733D02*
X032492Y014733D01*
X032492Y013058D02*
X029648Y013058D01*
X029747Y012960D02*
X032492Y012960D01*
X032492Y012861D02*
X029800Y012861D01*
X029800Y012763D02*
X032492Y012763D01*
X032492Y012664D02*
X029800Y012664D01*
X029800Y012566D02*
X032492Y012566D01*
X031744Y012369D02*
X031307Y012369D01*
X031406Y012270D02*
X031645Y012270D01*
X031604Y012172D02*
X031447Y012172D01*
X031476Y012073D02*
X031576Y012073D01*
X031576Y011975D02*
X031476Y011975D01*
X031455Y011876D02*
X031596Y011876D01*
X031636Y011778D02*
X031415Y011778D01*
X031327Y011679D02*
X031724Y011679D01*
X028920Y011384D02*
X028800Y011384D01*
X028800Y011285D02*
X028835Y011285D01*
X027500Y012960D02*
X027449Y012960D01*
X027500Y013058D02*
X027258Y013058D01*
X027042Y013058D02*
X026800Y013058D01*
X026800Y012960D02*
X026851Y012960D01*
X026800Y013157D02*
X027500Y013157D01*
X027500Y013255D02*
X026800Y013255D01*
X026800Y013354D02*
X027500Y013354D01*
X027500Y013452D02*
X026800Y013452D01*
X026800Y013551D02*
X027223Y013551D01*
X027124Y013649D02*
X026859Y013649D01*
X026918Y013748D02*
X027065Y013748D01*
X027024Y013846D02*
X026959Y013846D01*
X017219Y014339D02*
X016764Y014339D01*
X015679Y012763D02*
X015641Y012763D01*
X015641Y012664D02*
X015679Y012664D01*
X015679Y012566D02*
X015641Y012566D01*
X015641Y012467D02*
X015679Y012467D01*
X016122Y012270D02*
X017000Y012270D01*
X017000Y012172D02*
X016085Y012172D01*
X014660Y012384D02*
X014650Y012344D01*
X014650Y010844D01*
X014500Y011581D02*
X014300Y011581D01*
X014300Y011679D02*
X014500Y011679D01*
X014500Y011778D02*
X014300Y011778D01*
X014300Y011876D02*
X014500Y011876D01*
X014500Y011975D02*
X014232Y011975D01*
X014370Y012073D02*
X013597Y012073D01*
X013128Y012270D02*
X013032Y012270D01*
X013032Y012369D02*
X013128Y012369D01*
X013128Y012467D02*
X013032Y012467D01*
X013032Y012566D02*
X013128Y012566D01*
X014981Y012664D02*
X015000Y012664D01*
X015300Y012763D02*
X015373Y012763D01*
X014000Y011679D02*
X013697Y011679D01*
X013599Y011581D02*
X014000Y011581D01*
X016875Y010300D02*
X017000Y010300D01*
X017000Y010399D02*
X016963Y010399D01*
X020150Y009844D02*
X022150Y007844D01*
X021993Y008429D02*
X021778Y008429D01*
X030407Y006951D02*
X030529Y006951D01*
X030552Y006853D02*
X030428Y006853D01*
X030414Y006754D02*
X030597Y006754D01*
X030677Y006656D02*
X030355Y006656D01*
X031316Y006360D02*
X031735Y006360D01*
X031641Y006262D02*
X031410Y006262D01*
X031451Y006163D02*
X031600Y006163D01*
X031576Y006065D02*
X031476Y006065D01*
X031476Y005966D02*
X031576Y005966D01*
X031599Y005868D02*
X031452Y005868D01*
X031411Y005769D02*
X031640Y005769D01*
X031733Y005671D02*
X031318Y005671D01*
X032303Y006656D02*
X032492Y006656D01*
X032492Y006754D02*
X032402Y006754D01*
X032446Y006853D02*
X032492Y006853D01*
X032492Y006951D02*
X032476Y006951D01*
X032476Y007050D02*
X032492Y007050D01*
X032492Y007148D02*
X032457Y007148D01*
X032492Y007247D02*
X032416Y007247D01*
X032492Y007345D02*
X032331Y007345D01*
X032492Y007444D02*
X032164Y007444D01*
D21*
X026650Y008844D03*
X023150Y006344D03*
X020650Y006344D03*
X020650Y005844D03*
X019150Y006344D03*
X018150Y005844D03*
X018150Y005344D03*
X015650Y006844D03*
X013650Y005844D03*
X013150Y003844D03*
X016890Y002844D03*
X018650Y003844D03*
X020150Y003344D03*
X025150Y003344D03*
X028650Y003844D03*
X025080Y004954D03*
X019650Y008844D03*
X015650Y008844D03*
X016650Y011844D03*
X019650Y012844D03*
X022150Y013344D03*
X022650Y012844D03*
X029150Y013344D03*
X008150Y004344D03*
D22*
X019370Y001864D03*
X024930Y004344D03*
X019840Y004584D03*
X024270Y006804D03*
X030150Y006844D03*
X028150Y009344D03*
X027150Y009344D03*
X016630Y009644D03*
X008150Y009944D03*
M02*
