%
M48
M72
T01C0.0236
T02C0.0240
T03C0.0276
T04C0.0320
T05C0.0354
T06C0.0394
T07C0.0400
T08C0.0472
T09C0.1102
T10C0.1300
%
T01
X8150Y9944
X16630Y9644
X24270Y6804
X19840Y4584
X24930Y4344
X30150Y6844
X28150Y9344
X27150Y9344
X19370Y1864
T02
X8150Y4344
X13150Y3844
X16890Y2844
X18650Y3844
X20150Y3344
X25150Y3344
X28650Y3844
X25080Y4954
X23150Y6344
X20650Y6344
X20650Y5844
X19150Y6344
X18150Y5844
X18150Y5344
X15650Y6844
X13650Y5844
X15650Y8844
X19650Y8844
X26650Y8844
X16650Y11844
X19650Y12844
X22150Y13344
X22650Y12844
X29150Y13344
T03
X1900Y3844
X2900Y3844
X5650Y4844
X5650Y5844
X11150Y4844
X12900Y4844
X14150Y4344
X15150Y4344
X16650Y4344
X17650Y4344
X17150Y6094
X15150Y6094
X12900Y5844
X11150Y3844
X14660Y12384
X15660Y12384
T04
X7650Y10844
X8650Y10844
X9650Y10844
X10650Y10844
X11650Y10844
X12650Y10844
X13650Y10844
X14650Y10844
X15650Y10844
X16650Y10844
X17650Y10844
X18650Y10844
X19650Y10844
X20650Y10844
X22150Y10844
X23150Y10844
X24150Y10844
X25150Y10844
X26150Y10844
X27150Y10844
X28150Y10844
X29150Y10844
X21530Y12224
X20530Y12224
X21030Y12974
X29150Y7844
X28150Y7844
X27150Y7844
X26150Y7844
X25150Y7844
X24150Y7844
X23150Y7844
X22150Y7844
X20650Y7844
X19650Y7844
X18650Y7844
X17650Y7844
X16650Y7844
X15650Y7844
X14650Y7844
X13650Y7844
X12650Y7844
X11650Y7844
X10650Y7844
X9650Y7844
X8650Y7844
X7650Y7844
T05
X9880Y3554
X9880Y6554
X6650Y7844
X6650Y10844
X24150Y12594
X27150Y12594
T06
X11080Y12134
X13080Y12134
X12080Y14134
X31026Y12014
X32026Y12014
X32026Y11014
X31026Y11014
X31026Y10014
X32026Y10014
X32026Y9014
X31026Y9014
X31026Y8014
X32026Y8014
X32026Y7014
X31026Y7014
X31026Y6014
X32026Y6014
X32026Y5014
X31026Y5014
T07
X7150Y12844
X8150Y12844
X9150Y12844
X9150Y13844
X8150Y13844
X7150Y13844
X14492Y13946
X15492Y13946
X16492Y13946
X17492Y13946
X18492Y13946
X19492Y13946
X20492Y13946
X21492Y13946
X22492Y13946
X23492Y13946
X24492Y13946
X25492Y13946
X26492Y13946
X27492Y13946
X28492Y13946
X29492Y13946
X8750Y6144
X6970Y6144
X4650Y5844
X3650Y5844
X2650Y5844
X6970Y3584
X8750Y3584
X8380Y2304
X7380Y2304
X9380Y2304
X10380Y2304
X11380Y2304
X12380Y2304
X14650Y1844
X15650Y1844
X17650Y1844
X18650Y1844
X20650Y1844
X21650Y1844
X22650Y1844
X23650Y1844
X24650Y1844
X24650Y2844
X23650Y2844
X22650Y2844
X21650Y2844
X20650Y2844
X5160Y2704
X4160Y2704
T08
X26650Y1844
X27650Y1844
X28650Y1844
X28650Y2844
X27650Y2844
X26650Y2844
T09
X2130Y13934
X2130Y1744
X31660Y1744
X31660Y13944
T10
X3650Y11744
M30
