G75*
%MOIN*%
%OFA0B0*%
%FSLAX24Y24*%
%IPPOS*%
%LPD*%
%AMOC8*
5,1,8,0,0,1.08239X$1,22.5*
%
%ADD10C,0.0000*%
%ADD11C,0.1142*%
%ADD12C,0.0560*%
%ADD13R,0.0780X0.0780*%
%ADD14C,0.0780*%
%ADD15C,0.0690*%
%ADD16C,0.0740*%
%ADD17R,0.0690X0.0690*%
%ADD18OC8,0.0760*%
%ADD19C,0.0640*%
%ADD20C,0.1340*%
%ADD21OC8,0.0780*%
D10*
X001150Y000844D02*
X001150Y014964D01*
X032642Y014964D01*
X032642Y000844D01*
X001150Y000844D01*
X001579Y001744D02*
X001581Y001791D01*
X001587Y001837D01*
X001597Y001883D01*
X001610Y001928D01*
X001628Y001971D01*
X001649Y002013D01*
X001673Y002053D01*
X001701Y002090D01*
X001732Y002125D01*
X001766Y002158D01*
X001802Y002187D01*
X001841Y002213D01*
X001882Y002236D01*
X001925Y002255D01*
X001969Y002271D01*
X002014Y002283D01*
X002060Y002291D01*
X002107Y002295D01*
X002153Y002295D01*
X002200Y002291D01*
X002246Y002283D01*
X002291Y002271D01*
X002335Y002255D01*
X002378Y002236D01*
X002419Y002213D01*
X002458Y002187D01*
X002494Y002158D01*
X002528Y002125D01*
X002559Y002090D01*
X002587Y002053D01*
X002611Y002013D01*
X002632Y001971D01*
X002650Y001928D01*
X002663Y001883D01*
X002673Y001837D01*
X002679Y001791D01*
X002681Y001744D01*
X002679Y001697D01*
X002673Y001651D01*
X002663Y001605D01*
X002650Y001560D01*
X002632Y001517D01*
X002611Y001475D01*
X002587Y001435D01*
X002559Y001398D01*
X002528Y001363D01*
X002494Y001330D01*
X002458Y001301D01*
X002419Y001275D01*
X002378Y001252D01*
X002335Y001233D01*
X002291Y001217D01*
X002246Y001205D01*
X002200Y001197D01*
X002153Y001193D01*
X002107Y001193D01*
X002060Y001197D01*
X002014Y001205D01*
X001969Y001217D01*
X001925Y001233D01*
X001882Y001252D01*
X001841Y001275D01*
X001802Y001301D01*
X001766Y001330D01*
X001732Y001363D01*
X001701Y001398D01*
X001673Y001435D01*
X001649Y001475D01*
X001628Y001517D01*
X001610Y001560D01*
X001597Y001605D01*
X001587Y001651D01*
X001581Y001697D01*
X001579Y001744D01*
X003000Y011744D02*
X003002Y011794D01*
X003008Y011844D01*
X003018Y011894D01*
X003031Y011942D01*
X003048Y011990D01*
X003069Y012036D01*
X003093Y012080D01*
X003121Y012122D01*
X003152Y012162D01*
X003186Y012199D01*
X003223Y012234D01*
X003262Y012265D01*
X003303Y012294D01*
X003347Y012319D01*
X003393Y012341D01*
X003440Y012359D01*
X003488Y012373D01*
X003537Y012384D01*
X003587Y012391D01*
X003637Y012394D01*
X003688Y012393D01*
X003738Y012388D01*
X003788Y012379D01*
X003836Y012367D01*
X003884Y012350D01*
X003930Y012330D01*
X003975Y012307D01*
X004018Y012280D01*
X004058Y012250D01*
X004096Y012217D01*
X004131Y012181D01*
X004164Y012142D01*
X004193Y012101D01*
X004219Y012058D01*
X004242Y012013D01*
X004261Y011966D01*
X004276Y011918D01*
X004288Y011869D01*
X004296Y011819D01*
X004300Y011769D01*
X004300Y011719D01*
X004296Y011669D01*
X004288Y011619D01*
X004276Y011570D01*
X004261Y011522D01*
X004242Y011475D01*
X004219Y011430D01*
X004193Y011387D01*
X004164Y011346D01*
X004131Y011307D01*
X004096Y011271D01*
X004058Y011238D01*
X004018Y011208D01*
X003975Y011181D01*
X003930Y011158D01*
X003884Y011138D01*
X003836Y011121D01*
X003788Y011109D01*
X003738Y011100D01*
X003688Y011095D01*
X003637Y011094D01*
X003587Y011097D01*
X003537Y011104D01*
X003488Y011115D01*
X003440Y011129D01*
X003393Y011147D01*
X003347Y011169D01*
X003303Y011194D01*
X003262Y011223D01*
X003223Y011254D01*
X003186Y011289D01*
X003152Y011326D01*
X003121Y011366D01*
X003093Y011408D01*
X003069Y011452D01*
X003048Y011498D01*
X003031Y011546D01*
X003018Y011594D01*
X003008Y011644D01*
X003002Y011694D01*
X003000Y011744D01*
X001579Y013934D02*
X001581Y013981D01*
X001587Y014027D01*
X001597Y014073D01*
X001610Y014118D01*
X001628Y014161D01*
X001649Y014203D01*
X001673Y014243D01*
X001701Y014280D01*
X001732Y014315D01*
X001766Y014348D01*
X001802Y014377D01*
X001841Y014403D01*
X001882Y014426D01*
X001925Y014445D01*
X001969Y014461D01*
X002014Y014473D01*
X002060Y014481D01*
X002107Y014485D01*
X002153Y014485D01*
X002200Y014481D01*
X002246Y014473D01*
X002291Y014461D01*
X002335Y014445D01*
X002378Y014426D01*
X002419Y014403D01*
X002458Y014377D01*
X002494Y014348D01*
X002528Y014315D01*
X002559Y014280D01*
X002587Y014243D01*
X002611Y014203D01*
X002632Y014161D01*
X002650Y014118D01*
X002663Y014073D01*
X002673Y014027D01*
X002679Y013981D01*
X002681Y013934D01*
X002679Y013887D01*
X002673Y013841D01*
X002663Y013795D01*
X002650Y013750D01*
X002632Y013707D01*
X002611Y013665D01*
X002587Y013625D01*
X002559Y013588D01*
X002528Y013553D01*
X002494Y013520D01*
X002458Y013491D01*
X002419Y013465D01*
X002378Y013442D01*
X002335Y013423D01*
X002291Y013407D01*
X002246Y013395D01*
X002200Y013387D01*
X002153Y013383D01*
X002107Y013383D01*
X002060Y013387D01*
X002014Y013395D01*
X001969Y013407D01*
X001925Y013423D01*
X001882Y013442D01*
X001841Y013465D01*
X001802Y013491D01*
X001766Y013520D01*
X001732Y013553D01*
X001701Y013588D01*
X001673Y013625D01*
X001649Y013665D01*
X001628Y013707D01*
X001610Y013750D01*
X001597Y013795D01*
X001587Y013841D01*
X001581Y013887D01*
X001579Y013934D01*
X031109Y013944D02*
X031111Y013991D01*
X031117Y014037D01*
X031127Y014083D01*
X031140Y014128D01*
X031158Y014171D01*
X031179Y014213D01*
X031203Y014253D01*
X031231Y014290D01*
X031262Y014325D01*
X031296Y014358D01*
X031332Y014387D01*
X031371Y014413D01*
X031412Y014436D01*
X031455Y014455D01*
X031499Y014471D01*
X031544Y014483D01*
X031590Y014491D01*
X031637Y014495D01*
X031683Y014495D01*
X031730Y014491D01*
X031776Y014483D01*
X031821Y014471D01*
X031865Y014455D01*
X031908Y014436D01*
X031949Y014413D01*
X031988Y014387D01*
X032024Y014358D01*
X032058Y014325D01*
X032089Y014290D01*
X032117Y014253D01*
X032141Y014213D01*
X032162Y014171D01*
X032180Y014128D01*
X032193Y014083D01*
X032203Y014037D01*
X032209Y013991D01*
X032211Y013944D01*
X032209Y013897D01*
X032203Y013851D01*
X032193Y013805D01*
X032180Y013760D01*
X032162Y013717D01*
X032141Y013675D01*
X032117Y013635D01*
X032089Y013598D01*
X032058Y013563D01*
X032024Y013530D01*
X031988Y013501D01*
X031949Y013475D01*
X031908Y013452D01*
X031865Y013433D01*
X031821Y013417D01*
X031776Y013405D01*
X031730Y013397D01*
X031683Y013393D01*
X031637Y013393D01*
X031590Y013397D01*
X031544Y013405D01*
X031499Y013417D01*
X031455Y013433D01*
X031412Y013452D01*
X031371Y013475D01*
X031332Y013501D01*
X031296Y013530D01*
X031262Y013563D01*
X031231Y013598D01*
X031203Y013635D01*
X031179Y013675D01*
X031158Y013717D01*
X031140Y013760D01*
X031127Y013805D01*
X031117Y013851D01*
X031111Y013897D01*
X031109Y013944D01*
X031109Y001744D02*
X031111Y001791D01*
X031117Y001837D01*
X031127Y001883D01*
X031140Y001928D01*
X031158Y001971D01*
X031179Y002013D01*
X031203Y002053D01*
X031231Y002090D01*
X031262Y002125D01*
X031296Y002158D01*
X031332Y002187D01*
X031371Y002213D01*
X031412Y002236D01*
X031455Y002255D01*
X031499Y002271D01*
X031544Y002283D01*
X031590Y002291D01*
X031637Y002295D01*
X031683Y002295D01*
X031730Y002291D01*
X031776Y002283D01*
X031821Y002271D01*
X031865Y002255D01*
X031908Y002236D01*
X031949Y002213D01*
X031988Y002187D01*
X032024Y002158D01*
X032058Y002125D01*
X032089Y002090D01*
X032117Y002053D01*
X032141Y002013D01*
X032162Y001971D01*
X032180Y001928D01*
X032193Y001883D01*
X032203Y001837D01*
X032209Y001791D01*
X032211Y001744D01*
X032209Y001697D01*
X032203Y001651D01*
X032193Y001605D01*
X032180Y001560D01*
X032162Y001517D01*
X032141Y001475D01*
X032117Y001435D01*
X032089Y001398D01*
X032058Y001363D01*
X032024Y001330D01*
X031988Y001301D01*
X031949Y001275D01*
X031908Y001252D01*
X031865Y001233D01*
X031821Y001217D01*
X031776Y001205D01*
X031730Y001197D01*
X031683Y001193D01*
X031637Y001193D01*
X031590Y001197D01*
X031544Y001205D01*
X031499Y001217D01*
X031455Y001233D01*
X031412Y001252D01*
X031371Y001275D01*
X031332Y001301D01*
X031296Y001330D01*
X031262Y001363D01*
X031231Y001398D01*
X031203Y001435D01*
X031179Y001475D01*
X031158Y001517D01*
X031140Y001560D01*
X031127Y001605D01*
X031117Y001651D01*
X031111Y001697D01*
X031109Y001744D01*
D11*
X031660Y001744D03*
X002130Y001744D03*
X002130Y013934D03*
X031660Y013944D03*
D12*
X029150Y011104D02*
X029150Y010584D01*
X028150Y010584D02*
X028150Y011104D01*
X027150Y011104D02*
X027150Y010584D01*
X026150Y010584D02*
X026150Y011104D01*
X025150Y011104D02*
X025150Y010584D01*
X024150Y010584D02*
X024150Y011104D01*
X023150Y011104D02*
X023150Y010584D01*
X022150Y010584D02*
X022150Y011104D01*
X020650Y011104D02*
X020650Y010584D01*
X019650Y010584D02*
X019650Y011104D01*
X018650Y011104D02*
X018650Y010584D01*
X017650Y010584D02*
X017650Y011104D01*
X016650Y011104D02*
X016650Y010584D01*
X015650Y010584D02*
X015650Y011104D01*
X014650Y011104D02*
X014650Y010584D01*
X013650Y010584D02*
X013650Y011104D01*
X012650Y011104D02*
X012650Y010584D01*
X011650Y010584D02*
X011650Y011104D01*
X010650Y011104D02*
X010650Y010584D01*
X009650Y010584D02*
X009650Y011104D01*
X008650Y011104D02*
X008650Y010584D01*
X007650Y010584D02*
X007650Y011104D01*
X007650Y008104D02*
X007650Y007584D01*
X008650Y007584D02*
X008650Y008104D01*
X009650Y008104D02*
X009650Y007584D01*
X010650Y007584D02*
X010650Y008104D01*
X011650Y008104D02*
X011650Y007584D01*
X012650Y007584D02*
X012650Y008104D01*
X013650Y008104D02*
X013650Y007584D01*
X014650Y007584D02*
X014650Y008104D01*
X015650Y008104D02*
X015650Y007584D01*
X016650Y007584D02*
X016650Y008104D01*
X017650Y008104D02*
X017650Y007584D01*
X018650Y007584D02*
X018650Y008104D01*
X019650Y008104D02*
X019650Y007584D01*
X020650Y007584D02*
X020650Y008104D01*
X022150Y008104D02*
X022150Y007584D01*
X023150Y007584D02*
X023150Y008104D01*
X024150Y008104D02*
X024150Y007584D01*
X025150Y007584D02*
X025150Y008104D01*
X026150Y008104D02*
X026150Y007584D01*
X027150Y007584D02*
X027150Y008104D01*
X028150Y008104D02*
X028150Y007584D01*
X029150Y007584D02*
X029150Y008104D01*
D13*
X014492Y013946D03*
X004160Y002704D03*
X012380Y002304D03*
D14*
X011380Y002304D03*
X010380Y002304D03*
X009380Y002304D03*
X008380Y002304D03*
X007380Y002304D03*
X005160Y002704D03*
X006970Y003584D03*
X008750Y003584D03*
X009880Y003554D03*
X014650Y001844D03*
X015650Y001844D03*
X017650Y001844D03*
X018650Y001844D03*
X008750Y006144D03*
X009880Y006554D03*
X006970Y006144D03*
X006650Y007844D03*
X006650Y010844D03*
X011080Y012134D03*
X013080Y012134D03*
X015492Y013946D03*
X016492Y013946D03*
X017492Y013946D03*
X018492Y013946D03*
X019492Y013946D03*
X020492Y013946D03*
X021492Y013946D03*
X022492Y013946D03*
X023492Y013946D03*
X024492Y013946D03*
X025492Y013946D03*
X026492Y013946D03*
X027492Y013946D03*
X028492Y013946D03*
X029492Y013946D03*
X027150Y012594D03*
X024150Y012594D03*
X021530Y012224D03*
X020530Y012224D03*
X021030Y012974D03*
X012080Y014134D03*
D15*
X014660Y012384D03*
X015660Y012384D03*
X015150Y006094D03*
X017150Y006094D03*
X012900Y005844D03*
X012900Y004844D03*
X014150Y004344D03*
X015150Y004344D03*
X016650Y004344D03*
X017650Y004344D03*
X011150Y003844D03*
X011150Y004844D03*
X005650Y004844D03*
X005650Y005844D03*
X001900Y003844D03*
D16*
X031026Y005014D03*
X032026Y005014D03*
X032026Y006014D03*
X031026Y006014D03*
X031026Y007014D03*
X032026Y007014D03*
X032026Y008014D03*
X031026Y008014D03*
X031026Y009014D03*
X032026Y009014D03*
X032026Y010014D03*
X031026Y010014D03*
X031026Y011014D03*
X032026Y011014D03*
X032026Y012014D03*
X031026Y012014D03*
D17*
X002900Y003844D03*
D18*
X026650Y002844D03*
X027650Y002844D03*
X028650Y002844D03*
X028650Y001844D03*
X027650Y001844D03*
X026650Y001844D03*
D19*
X004650Y005544D02*
X004650Y006144D01*
X003650Y006144D02*
X003650Y005544D01*
X002650Y005544D02*
X002650Y006144D01*
D20*
X003650Y011744D03*
D21*
X007150Y012844D03*
X008150Y012844D03*
X009150Y012844D03*
X009150Y013844D03*
X008150Y013844D03*
X007150Y013844D03*
X020650Y002844D03*
X021650Y002844D03*
X022650Y002844D03*
X023650Y002844D03*
X024650Y002844D03*
X024650Y001844D03*
X023650Y001844D03*
X022650Y001844D03*
X021650Y001844D03*
X020650Y001844D03*
M02*
